G04 Layer: BottomSilkLayer*
G04 EasyEDA v5.9.41, Fri, 08 Feb 2019 23:39:09 GMT*
G04 113b46e1fbc2432c9b03807f1b5d6b43*
G04 Gerber Generator version 0.2*
G04 Scale: 100 percent, Rotated: No, Reflected: No *
G04 Dimensions in millimeters *
G04 leading zeros omitted , absolute positions ,3 integer and 3 decimal *
%FSLAX33Y33*%
%MOMM*%
G90*
G71D02*

%ADD10C,0.254000*%
%ADD12C,0.200000*%
%ADD13C,0.399999*%
%ADD14C,0.299999*%
%ADD42C,0.228600*%
%ADD43C,0.152400*%
%ADD45C,0.140005*%
%ADD46C,0.180010*%
%ADD47C,0.203200*%

%LPD*%

%LPD*%
G36*
G01X43798Y34073D02*
G01X43803Y34057D01*
G01X43810Y34027D01*
G01X43819Y33986D01*
G01X43830Y33935D01*
G01X43842Y33876D01*
G01X43854Y33811D01*
G01X43868Y33741D01*
G01X43881Y33668D01*
G01X43907Y33528D01*
G01X43930Y33413D01*
G01X43946Y33333D01*
G01X43954Y33302D01*
G01X43982Y33287D01*
G01X44045Y33259D01*
G01X44133Y33222D01*
G01X44232Y33181D01*
G01X44332Y33141D01*
G01X44421Y33107D01*
G01X44486Y33082D01*
G01X44518Y33073D01*
G01X44530Y33077D01*
G01X44555Y33091D01*
G01X44591Y33111D01*
G01X44635Y33139D01*
G01X44687Y33172D01*
G01X44746Y33211D01*
G01X44809Y33253D01*
G01X44875Y33298D01*
G01X44941Y33343D01*
G01X45003Y33386D01*
G01X45059Y33424D01*
G01X45109Y33458D01*
G01X45151Y33485D01*
G01X45183Y33506D01*
G01X45204Y33519D01*
G01X45213Y33524D01*
G01X45221Y33518D01*
G01X45240Y33501D01*
G01X45268Y33475D01*
G01X45305Y33440D01*
G01X45348Y33398D01*
G01X45398Y33349D01*
G01X45452Y33296D01*
G01X45509Y33238D01*
G01X45794Y32952D01*
G01X45676Y32782D01*
G01X45650Y32744D01*
G01X45621Y32702D01*
G01X45591Y32657D01*
G01X45559Y32611D01*
G01X45528Y32565D01*
G01X45498Y32521D01*
G01X45470Y32479D01*
G01X45445Y32442D01*
G01X45331Y32273D01*
G01X45438Y32021D01*
G01X45485Y31913D01*
G01X45521Y31831D01*
G01X45551Y31770D01*
G01X45576Y31728D01*
G01X45599Y31700D01*
G01X45622Y31682D01*
G01X45648Y31672D01*
G01X45680Y31666D01*
G01X45718Y31659D01*
G01X45769Y31650D01*
G01X45828Y31639D01*
G01X45895Y31626D01*
G01X45965Y31613D01*
G01X46036Y31600D01*
G01X46106Y31587D01*
G01X46171Y31575D01*
G01X46229Y31564D01*
G01X46278Y31554D01*
G01X46314Y31547D01*
G01X46335Y31543D01*
G01X46350Y31539D01*
G01X46362Y31530D01*
G01X46370Y31513D01*
G01X46375Y31482D01*
G01X46379Y31432D01*
G01X46380Y31359D01*
G01X46381Y31258D01*
G01X46381Y31123D01*
G01X46381Y31040D01*
G01X46380Y30963D01*
G01X46380Y30894D01*
G01X46379Y30833D01*
G01X46377Y30783D01*
G01X46376Y30745D01*
G01X46374Y30721D01*
G01X46373Y30713D01*
G01X46348Y30710D01*
G01X46300Y30702D01*
G01X46233Y30690D01*
G01X46154Y30674D01*
G01X46066Y30657D01*
G01X45974Y30638D01*
G01X45882Y30619D01*
G01X45796Y30601D01*
G01X45721Y30584D01*
G01X45660Y30570D01*
G01X45619Y30560D01*
G01X45603Y30554D01*
G01X45588Y30524D01*
G01X45558Y30455D01*
G01X45517Y30356D01*
G01X45470Y30238D01*
G01X45352Y29938D01*
G01X45561Y29636D01*
G01X45603Y29575D01*
G01X45642Y29517D01*
G01X45679Y29464D01*
G01X45711Y29416D01*
G01X45738Y29375D01*
G01X45758Y29343D01*
G01X45772Y29321D01*
G01X45779Y29310D01*
G01X45775Y29300D01*
G01X45760Y29279D01*
G01X45735Y29248D01*
G01X45701Y29210D01*
G01X45660Y29165D01*
G01X45613Y29114D01*
G01X45560Y29059D01*
G01X45503Y29002D01*
G01X45218Y28717D01*
G01X44914Y28925D01*
G01X44852Y28966D01*
G01X44792Y29005D01*
G01X44737Y29041D01*
G01X44687Y29071D01*
G01X44644Y29097D01*
G01X44609Y29116D01*
G01X44584Y29128D01*
G01X44570Y29133D01*
G01X44545Y29127D01*
G01X44505Y29112D01*
G01X44456Y29089D01*
G01X44403Y29062D01*
G01X44355Y29035D01*
G01X44318Y29018D01*
G01X44290Y29010D01*
G01X44268Y29014D01*
G01X44249Y29031D01*
G01X44231Y29062D01*
G01X44210Y29109D01*
G01X44184Y29174D01*
G01X44175Y29196D01*
G01X44163Y29227D01*
G01X44147Y29265D01*
G01X44129Y29309D01*
G01X44109Y29359D01*
G01X44086Y29414D01*
G01X44062Y29473D01*
G01X44036Y29536D01*
G01X44009Y29601D01*
G01X43982Y29669D01*
G01X43953Y29737D01*
G01X43925Y29805D01*
G01X43884Y29906D01*
G01X43845Y30000D01*
G01X43810Y30086D01*
G01X43780Y30162D01*
G01X43754Y30225D01*
G01X43735Y30274D01*
G01X43723Y30305D01*
G01X43719Y30318D01*
G01X43726Y30329D01*
G01X43745Y30345D01*
G01X43772Y30366D01*
G01X43806Y30389D01*
G01X43857Y30423D01*
G01X43904Y30459D01*
G01X43948Y30496D01*
G01X43989Y30535D01*
G01X44026Y30576D01*
G01X44060Y30618D01*
G01X44091Y30662D01*
G01X44118Y30708D01*
G01X44142Y30755D01*
G01X44163Y30804D01*
G01X44181Y30854D01*
G01X44195Y30907D01*
G01X44206Y30961D01*
G01X44214Y31016D01*
G01X44219Y31074D01*
G01X44220Y31133D01*
G01X44218Y31235D01*
G01X44208Y31310D01*
G01X44189Y31377D01*
G01X44155Y31456D01*
G01X44128Y31508D01*
G01X44099Y31558D01*
G01X44067Y31605D01*
G01X44033Y31649D01*
G01X43996Y31691D01*
G01X43957Y31730D01*
G01X43916Y31767D01*
G01X43873Y31800D01*
G01X43829Y31831D01*
G01X43782Y31858D01*
G01X43734Y31882D01*
G01X43685Y31903D01*
G01X43634Y31921D01*
G01X43582Y31936D01*
G01X43530Y31947D01*
G01X43476Y31954D01*
G01X43422Y31958D01*
G01X43367Y31959D01*
G01X43312Y31955D01*
G01X43257Y31948D01*
G01X43188Y31934D01*
G01X43122Y31915D01*
G01X43059Y31891D01*
G01X42998Y31863D01*
G01X42941Y31830D01*
G01X42886Y31792D01*
G01X42835Y31751D01*
G01X42787Y31704D01*
G01X42742Y31654D01*
G01X42701Y31599D01*
G01X42664Y31541D01*
G01X42630Y31478D01*
G01X42592Y31396D01*
G01X42572Y31328D01*
G01X42564Y31246D01*
G01X42562Y31123D01*
G01X42564Y31005D01*
G01X42571Y30924D01*
G01X42588Y30858D01*
G01X42618Y30788D01*
G01X42647Y30729D01*
G01X42678Y30675D01*
G01X42711Y30626D01*
G01X42747Y30580D01*
G01X42786Y30536D01*
G01X42829Y30495D01*
G01X42878Y30454D01*
G01X42932Y30413D01*
G01X42999Y30363D01*
G01X43036Y30329D01*
G01X43049Y30302D01*
G01X43045Y30275D01*
G01X43040Y30264D01*
G01X43032Y30244D01*
G01X43020Y30214D01*
G01X43004Y30177D01*
G01X42986Y30132D01*
G01X42965Y30081D01*
G01X42941Y30024D01*
G01X42916Y29962D01*
G01X42888Y29895D01*
G01X42859Y29825D01*
G01X42829Y29752D01*
G01X42798Y29676D01*
G01X42766Y29601D01*
G01X42736Y29527D01*
G01X42706Y29456D01*
G01X42678Y29388D01*
G01X42652Y29324D01*
G01X42627Y29265D01*
G01X42605Y29211D01*
G01X42586Y29164D01*
G01X42569Y29124D01*
G01X42556Y29092D01*
G01X42546Y29068D01*
G01X42540Y29054D01*
G01X42512Y28986D01*
G01X42374Y29059D01*
G01X42317Y29088D01*
G01X42265Y29111D01*
G01X42223Y29127D01*
G01X42198Y29133D01*
G01X42184Y29128D01*
G01X42160Y29116D01*
G01X42126Y29097D01*
G01X42084Y29072D01*
G01X42035Y29041D01*
G01X41981Y29006D01*
G01X41922Y28967D01*
G01X41862Y28925D01*
G01X41563Y28718D01*
G01X41279Y29002D01*
G01X41222Y29059D01*
G01X41169Y29114D01*
G01X41121Y29163D01*
G01X41079Y29208D01*
G01X41044Y29245D01*
G01X41018Y29274D01*
G01X41001Y29294D01*
G01X40995Y29303D01*
G01X41012Y29333D01*
G01X41056Y29403D01*
G01X41121Y29501D01*
G01X41200Y29618D01*
G01X41241Y29678D01*
G01X41280Y29736D01*
G01X41314Y29790D01*
G01X41345Y29839D01*
G01X41370Y29881D01*
G01X41389Y29915D01*
G01X41401Y29940D01*
G01X41405Y29954D01*
G01X41401Y29975D01*
G01X41390Y30011D01*
G01X41373Y30061D01*
G01X41351Y30120D01*
G01X41326Y30185D01*
G01X41300Y30253D01*
G01X41272Y30321D01*
G01X41245Y30386D01*
G01X41220Y30444D01*
G01X41198Y30492D01*
G01X41180Y30527D01*
G01X41169Y30545D01*
G01X41152Y30553D01*
G01X41118Y30565D01*
G01X41067Y30579D01*
G01X41005Y30594D01*
G01X40935Y30610D01*
G01X40859Y30627D01*
G01X40782Y30643D01*
G01X40706Y30658D01*
G01X40636Y30671D01*
G01X40574Y30682D01*
G01X40524Y30689D01*
G01X40490Y30691D01*
G01X40457Y30694D01*
G01X40431Y30704D01*
G01X40411Y30725D01*
G01X40398Y30761D01*
G01X40389Y30816D01*
G01X40384Y30894D01*
G01X40382Y30999D01*
G01X40381Y31135D01*
G01X40381Y31259D01*
G01X40382Y31352D01*
G01X40384Y31420D01*
G01X40387Y31467D01*
G01X40393Y31497D01*
G01X40401Y31516D01*
G01X40412Y31526D01*
G01X40427Y31534D01*
G01X40443Y31539D01*
G01X40472Y31546D01*
G01X40513Y31555D01*
G01X40562Y31566D01*
G01X40619Y31578D01*
G01X40683Y31590D01*
G01X40750Y31603D01*
G01X40821Y31616D01*
G01X40958Y31642D01*
G01X41072Y31666D01*
G01X41151Y31684D01*
G01X41185Y31695D01*
G01X41203Y31725D01*
G01X41233Y31790D01*
G01X41272Y31878D01*
G01X41315Y31977D01*
G01X41356Y32077D01*
G01X41391Y32167D01*
G01X41416Y32234D01*
G01X41425Y32268D01*
G01X41421Y32282D01*
G01X41408Y32306D01*
G01X41389Y32341D01*
G01X41362Y32385D01*
G01X41330Y32435D01*
G01X41294Y32492D01*
G01X41254Y32553D01*
G01X41210Y32616D01*
G01X41167Y32679D01*
G01X41127Y32739D01*
G01X41090Y32794D01*
G01X41059Y32842D01*
G01X41032Y32882D01*
G01X41012Y32914D01*
G01X41000Y32935D01*
G01X40995Y32945D01*
G01X41001Y32954D01*
G01X41018Y32973D01*
G01X41044Y33002D01*
G01X41079Y33039D01*
G01X41121Y33083D01*
G01X41170Y33133D01*
G01X41223Y33187D01*
G01X41280Y33245D01*
G01X41565Y33529D01*
G01X41896Y33301D01*
G01X41963Y33255D01*
G01X42027Y33212D01*
G01X42086Y33173D01*
G01X42138Y33140D01*
G01X42182Y33112D01*
G01X42217Y33090D01*
G01X42242Y33077D01*
G01X42254Y33072D01*
G01X42286Y33081D01*
G01X42351Y33105D01*
G01X42437Y33138D01*
G01X42534Y33177D01*
G01X42630Y33218D01*
G01X42715Y33255D01*
G01X42778Y33284D01*
G01X42808Y33301D01*
G01X42813Y33313D01*
G01X42821Y33340D01*
G01X42832Y33379D01*
G01X42844Y33430D01*
G01X42857Y33491D01*
G01X42871Y33560D01*
G01X42886Y33635D01*
G01X42901Y33714D01*
G01X42974Y34109D01*
G01X43377Y34114D01*
G01X43511Y34116D01*
G01X43611Y34117D01*
G01X43683Y34116D01*
G01X43733Y34113D01*
G01X43764Y34108D01*
G01X43782Y34100D01*
G01X43792Y34089D01*
G01X43798Y34073D01*
G37*

%LPD*%
G36*
G01X30479Y14392D02*
G01X30403Y14389D01*
G01X30343Y14390D01*
G01X30287Y14395D01*
G01X30234Y14404D01*
G01X30182Y14417D01*
G01X30133Y14433D01*
G01X30084Y14455D01*
G01X30036Y14481D01*
G01X29988Y14512D01*
G01X29939Y14548D01*
G01X29889Y14590D01*
G01X29837Y14638D01*
G01X29783Y14692D01*
G01X29728Y14750D01*
G01X29674Y14810D01*
G01X29621Y14870D01*
G01X29570Y14931D01*
G01X29520Y14992D01*
G01X29473Y15053D01*
G01X29428Y15113D01*
G01X29387Y15172D01*
G01X29348Y15229D01*
G01X29313Y15285D01*
G01X29282Y15339D01*
G01X29254Y15390D01*
G01X29222Y15457D01*
G01X29213Y15502D01*
G01X29229Y15541D01*
G01X29272Y15590D01*
G01X29312Y15638D01*
G01X29329Y15679D01*
G01X29327Y15726D01*
G01X29305Y15792D01*
G01X29283Y15860D01*
G01X29282Y15905D01*
G01X29307Y15944D01*
G01X29361Y15992D01*
G01X29415Y16039D01*
G01X29440Y16076D01*
G01X29439Y16116D01*
G01X29417Y16173D01*
G01X29395Y16226D01*
G01X29390Y16263D01*
G01X29402Y16290D01*
G01X29430Y16316D01*
G01X29455Y16345D01*
G01X29476Y16392D01*
G01X29492Y16451D01*
G01X29501Y16520D01*
G01X29510Y16600D01*
G01X29526Y16655D01*
G01X29554Y16691D01*
G01X29595Y16716D01*
G01X29634Y16738D01*
G01X29657Y16764D01*
G01X29665Y16797D01*
G01X29662Y16840D01*
G01X29658Y16880D01*
G01X29661Y16925D01*
G01X29668Y16969D01*
G01X29681Y17006D01*
G01X29694Y17050D01*
G01X29695Y17094D01*
G01X29681Y17145D01*
G01X29654Y17206D01*
G01X29639Y17237D01*
G01X29627Y17271D01*
G01X29616Y17307D01*
G01X29608Y17345D01*
G01X29602Y17386D01*
G01X29598Y17431D01*
G01X29596Y17480D01*
G01X29596Y17534D01*
G01X29598Y17593D01*
G01X29603Y17658D01*
G01X29609Y17728D01*
G01X29618Y17804D01*
G01X29629Y17888D01*
G01X29642Y17979D01*
G01X29658Y18077D01*
G01X29675Y18183D01*
G01X29759Y18677D01*
G01X29645Y18924D01*
G01X29615Y18992D01*
G01X29590Y19059D01*
G01X29568Y19127D01*
G01X29548Y19196D01*
G01X29531Y19270D01*
G01X29516Y19349D01*
G01X29504Y19436D01*
G01X29492Y19532D01*
G01X29476Y19677D01*
G01X29462Y19796D01*
G01X29451Y19892D01*
G01X29441Y19967D01*
G01X29431Y20024D01*
G01X29421Y20064D01*
G01X29411Y20091D01*
G01X29398Y20107D01*
G01X29383Y20113D01*
G01X29364Y20113D01*
G01X29342Y20109D01*
G01X29315Y20103D01*
G01X29275Y20099D01*
G01X29236Y20102D01*
G01X29198Y20115D01*
G01X29162Y20136D01*
G01X29125Y20167D01*
G01X29089Y20208D01*
G01X29052Y20259D01*
G01X29014Y20321D01*
G01X28976Y20393D01*
G01X28936Y20478D01*
G01X28894Y20574D01*
G01X28850Y20683D01*
G01X28820Y20763D01*
G01X28792Y20842D01*
G01X28766Y20918D01*
G01X28743Y20993D01*
G01X28722Y21064D01*
G01X28704Y21133D01*
G01X28688Y21198D01*
G01X28675Y21261D01*
G01X28665Y21320D01*
G01X28657Y21376D01*
G01X28652Y21427D01*
G01X28650Y21476D01*
G01X28650Y21519D01*
G01X28654Y21559D01*
G01X28660Y21594D01*
G01X28669Y21625D01*
G01X28676Y21651D01*
G01X28683Y21693D01*
G01X28689Y21746D01*
G01X28694Y21810D01*
G01X28698Y21881D01*
G01X28702Y21959D01*
G01X28704Y22040D01*
G01X28705Y22123D01*
G01X28705Y22228D01*
G01X28708Y22319D01*
G01X28713Y22397D01*
G01X28720Y22464D01*
G01X28729Y22521D01*
G01X28743Y22567D01*
G01X28760Y22606D01*
G01X28781Y22636D01*
G01X28806Y22660D01*
G01X28836Y22679D01*
G01X28871Y22693D01*
G01X28911Y22704D01*
G01X29009Y22726D01*
G01X29014Y23528D01*
G01X29014Y23610D01*
G01X29015Y23691D01*
G01X29017Y23771D01*
G01X29020Y23850D01*
G01X29022Y23928D01*
G01X29025Y24005D01*
G01X29029Y24081D01*
G01X29033Y24156D01*
G01X29037Y24230D01*
G01X29042Y24303D01*
G01X29048Y24375D01*
G01X29054Y24446D01*
G01X29061Y24517D01*
G01X29068Y24586D01*
G01X29075Y24654D01*
G01X29083Y24722D01*
G01X29092Y24788D01*
G01X29101Y24854D01*
G01X29110Y24919D01*
G01X29121Y24983D01*
G01X29131Y25046D01*
G01X29142Y25108D01*
G01X29154Y25169D01*
G01X29166Y25230D01*
G01X29179Y25289D01*
G01X29192Y25348D01*
G01X29205Y25406D01*
G01X29220Y25462D01*
G01X29234Y25518D01*
G01X29249Y25574D01*
G01X29265Y25628D01*
G01X29281Y25682D01*
G01X29298Y25735D01*
G01X29316Y25787D01*
G01X29333Y25838D01*
G01X29352Y25888D01*
G01X29371Y25938D01*
G01X29390Y25987D01*
G01X29410Y26035D01*
G01X29430Y26082D01*
G01X29451Y26128D01*
G01X29473Y26174D01*
G01X29495Y26219D01*
G01X29518Y26263D01*
G01X29541Y26307D01*
G01X29565Y26349D01*
G01X29589Y26392D01*
G01X29614Y26433D01*
G01X29639Y26473D01*
G01X29665Y26514D01*
G01X29692Y26553D01*
G01X29719Y26591D01*
G01X29752Y26635D01*
G01X29787Y26682D01*
G01X29826Y26729D01*
G01X29866Y26779D01*
G01X29910Y26830D01*
G01X29955Y26881D01*
G01X30002Y26933D01*
G01X30051Y26985D01*
G01X30101Y27038D01*
G01X30152Y27091D01*
G01X30204Y27143D01*
G01X30256Y27196D01*
G01X30310Y27247D01*
G01X30363Y27298D01*
G01X30417Y27348D01*
G01X30470Y27396D01*
G01X30523Y27443D01*
G01X30575Y27488D01*
G01X30626Y27531D01*
G01X30676Y27572D01*
G01X30725Y27611D01*
G01X30772Y27646D01*
G01X30817Y27679D01*
G01X30861Y27709D01*
G01X30923Y27751D01*
G01X30989Y27792D01*
G01X31056Y27834D01*
G01X31125Y27875D01*
G01X31194Y27916D01*
G01X31265Y27955D01*
G01X31337Y27995D01*
G01X31409Y28033D01*
G01X31480Y28071D01*
G01X31551Y28106D01*
G01X31621Y28141D01*
G01X31691Y28174D01*
G01X31759Y28205D01*
G01X31825Y28235D01*
G01X31888Y28262D01*
G01X31950Y28287D01*
G01X32008Y28310D01*
G01X32063Y28330D01*
G01X32115Y28347D01*
G01X32163Y28362D01*
G01X32206Y28374D01*
G01X32245Y28382D01*
G01X32279Y28387D01*
G01X32308Y28389D01*
G01X32356Y28382D01*
G01X32430Y28364D01*
G01X32520Y28337D01*
G01X32617Y28305D01*
G01X32664Y28287D01*
G01X32713Y28268D01*
G01X32761Y28247D01*
G01X32810Y28226D01*
G01X32859Y28202D01*
G01X32909Y28177D01*
G01X32959Y28151D01*
G01X33008Y28124D01*
G01X33058Y28096D01*
G01X33108Y28066D01*
G01X33159Y28035D01*
G01X33209Y28003D01*
G01X33259Y27970D01*
G01X33310Y27935D01*
G01X33359Y27900D01*
G01X33410Y27863D01*
G01X33459Y27826D01*
G01X33509Y27787D01*
G01X33558Y27747D01*
G01X33608Y27707D01*
G01X33657Y27665D01*
G01X33705Y27623D01*
G01X33754Y27579D01*
G01X33801Y27535D01*
G01X33849Y27489D01*
G01X33895Y27444D01*
G01X33942Y27397D01*
G01X33988Y27349D01*
G01X34024Y27311D01*
G01X34060Y27270D01*
G01X34096Y27230D01*
G01X34132Y27188D01*
G01X34168Y27146D01*
G01X34203Y27103D01*
G01X34238Y27059D01*
G01X34272Y27014D01*
G01X34307Y26968D01*
G01X34341Y26922D01*
G01X34374Y26875D01*
G01X34408Y26827D01*
G01X34441Y26779D01*
G01X34474Y26729D01*
G01X34506Y26680D01*
G01X34538Y26629D01*
G01X34570Y26578D01*
G01X34601Y26526D01*
G01X34632Y26473D01*
G01X34663Y26420D01*
G01X34693Y26366D01*
G01X34723Y26311D01*
G01X34782Y26201D01*
G01X34811Y26144D01*
G01X34839Y26087D01*
G01X34867Y26030D01*
G01X34895Y25973D01*
G01X34921Y25914D01*
G01X34948Y25855D01*
G01X34974Y25796D01*
G01X35000Y25736D01*
G01X35026Y25675D01*
G01X35050Y25615D01*
G01X35075Y25553D01*
G01X35099Y25492D01*
G01X35122Y25430D01*
G01X35145Y25367D01*
G01X35167Y25305D01*
G01X35189Y25242D01*
G01X35211Y25178D01*
G01X35231Y25114D01*
G01X35252Y25049D01*
G01X35272Y24985D01*
G01X35291Y24920D01*
G01X35310Y24855D01*
G01X35328Y24790D01*
G01X35346Y24724D01*
G01X35363Y24658D01*
G01X35378Y24597D01*
G01X35392Y24538D01*
G01X35405Y24483D01*
G01X35416Y24430D01*
G01X35425Y24377D01*
G01X35434Y24326D01*
G01X35442Y24273D01*
G01X35448Y24220D01*
G01X35454Y24165D01*
G01X35459Y24107D01*
G01X35463Y24046D01*
G01X35468Y23981D01*
G01X35471Y23911D01*
G01X35474Y23835D01*
G01X35477Y23753D01*
G01X35479Y23678D01*
G01X35480Y23604D01*
G01X35481Y23531D01*
G01X35481Y23460D01*
G01X35480Y23391D01*
G01X35479Y23327D01*
G01X35477Y23267D01*
G01X35475Y23213D01*
G01X35472Y23164D01*
G01X35469Y23123D01*
G01X35465Y23089D01*
G01X35460Y23064D01*
G01X35445Y22983D01*
G01X35446Y22929D01*
G01X35467Y22886D01*
G01X35511Y22841D01*
G01X35530Y22824D01*
G01X35545Y22807D01*
G01X35558Y22787D01*
G01X35569Y22764D01*
G01X35577Y22735D01*
G01X35584Y22698D01*
G01X35588Y22651D01*
G01X35592Y22592D01*
G01X35594Y22519D01*
G01X35595Y22430D01*
G01X35596Y22323D01*
G01X35596Y22195D01*
G01X35596Y22115D01*
G01X35597Y22036D01*
G01X35599Y21955D01*
G01X35601Y21877D01*
G01X35603Y21800D01*
G01X35606Y21726D01*
G01X35610Y21657D01*
G01X35613Y21592D01*
G01X35617Y21533D01*
G01X35622Y21481D01*
G01X35627Y21438D01*
G01X35632Y21402D01*
G01X35641Y21337D01*
G01X35647Y21280D01*
G01X35649Y21228D01*
G01X35648Y21179D01*
G01X35642Y21129D01*
G01X35631Y21076D01*
G01X35616Y21016D01*
G01X35596Y20948D01*
G01X35579Y20898D01*
G01X35559Y20845D01*
G01X35537Y20791D01*
G01X35512Y20738D01*
G01X35487Y20686D01*
G01X35461Y20639D01*
G01X35436Y20596D01*
G01X35412Y20560D01*
G01X35382Y20516D01*
G01X35357Y20472D01*
G01X35335Y20429D01*
G01X35317Y20383D01*
G01X35302Y20334D01*
G01X35289Y20279D01*
G01X35278Y20217D01*
G01X35268Y20148D01*
G01X35261Y20087D01*
G01X35253Y20028D01*
G01X35245Y19972D01*
G01X35237Y19916D01*
G01X35228Y19863D01*
G01X35219Y19810D01*
G01X35209Y19760D01*
G01X35199Y19709D01*
G01X35189Y19660D01*
G01X35177Y19610D01*
G01X35165Y19561D01*
G01X35151Y19512D01*
G01X35137Y19462D01*
G01X35122Y19412D01*
G01X35105Y19361D01*
G01X35087Y19309D01*
G01X35068Y19256D01*
G01X35047Y19201D01*
G01X35025Y19145D01*
G01X35001Y19087D01*
G01X34976Y19026D01*
G01X34949Y18963D01*
G01X34920Y18897D01*
G01X34889Y18829D01*
G01X34856Y18757D01*
G01X34821Y18682D01*
G01X34784Y18603D01*
G01X34745Y18521D01*
G01X34703Y18435D01*
G01X34659Y18344D01*
G01X34613Y18249D01*
G01X34564Y18149D01*
G01X34510Y18040D01*
G01X34461Y17941D01*
G01X34415Y17849D01*
G01X34373Y17766D01*
G01X34335Y17690D01*
G01X34299Y17621D01*
G01X34265Y17559D01*
G01X34234Y17501D01*
G01X34205Y17449D01*
G01X34177Y17402D01*
G01X34150Y17357D01*
G01X34124Y17317D01*
G01X34098Y17279D01*
G01X34073Y17244D01*
G01X34047Y17210D01*
G01X34021Y17176D01*
G01X33993Y17143D01*
G01X33964Y17110D01*
G01X33934Y17076D01*
G01X33902Y17041D01*
G01X33840Y16977D01*
G01X33780Y16917D01*
G01X33722Y16864D01*
G01X33664Y16815D01*
G01X33608Y16772D01*
G01X33554Y16734D01*
G01X33501Y16701D01*
G01X33449Y16673D01*
G01X33404Y16651D01*
G01X33363Y16632D01*
G01X33324Y16617D01*
G01X33287Y16604D01*
G01X33247Y16594D01*
G01X33204Y16587D01*
G01X33157Y16581D01*
G01X33102Y16577D01*
G01X33037Y16574D01*
G01X32962Y16571D01*
G01X32874Y16570D01*
G01X32771Y16570D01*
G01X32641Y16569D01*
G01X32533Y16567D01*
G01X32446Y16563D01*
G01X32378Y16558D01*
G01X32325Y16550D01*
G01X32285Y16539D01*
G01X32255Y16527D01*
G01X32233Y16511D01*
G01X32202Y16487D01*
G01X32166Y16466D01*
G01X32129Y16450D01*
G01X32096Y16440D01*
G01X32060Y16423D01*
G01X32025Y16384D01*
G01X31991Y16322D01*
G01X31957Y16236D01*
G01X31923Y16135D01*
G01X31909Y16064D01*
G01X31914Y16010D01*
G01X31935Y15958D01*
G01X31956Y15912D01*
G01X31963Y15877D01*
G01X31956Y15847D01*
G01X31935Y15815D01*
G01X31914Y15794D01*
G01X31890Y15776D01*
G01X31865Y15764D01*
G01X31843Y15760D01*
G01X31802Y15740D01*
G01X31783Y15693D01*
G01X31789Y15631D01*
G01X31820Y15571D01*
G01X31844Y15538D01*
G01X31854Y15510D01*
G01X31848Y15484D01*
G01X31827Y15454D01*
G01X31806Y15433D01*
G01X31782Y15415D01*
G01X31758Y15404D01*
G01X31737Y15399D01*
G01X31693Y15381D01*
G01X31670Y15338D01*
G01X31671Y15284D01*
G01X31700Y15233D01*
G01X31729Y15184D01*
G01X31731Y15132D01*
G01X31709Y15091D01*
G01X31666Y15074D01*
G01X31645Y15070D01*
G01X31620Y15058D01*
G01X31596Y15041D01*
G01X31575Y15020D01*
G01X31555Y14989D01*
G01X31551Y14961D01*
G01X31565Y14930D01*
G01X31597Y14889D01*
G01X31634Y14846D01*
G01X31645Y14816D01*
G01X31627Y14787D01*
G01X31580Y14746D01*
G01X31536Y14718D01*
G01X31480Y14696D01*
G01X31419Y14682D01*
G01X31355Y14677D01*
G01X31295Y14674D01*
G01X31248Y14664D01*
G01X31213Y14648D01*
G01X31196Y14628D01*
G01X31177Y14602D01*
G01X31144Y14576D01*
G01X31097Y14548D01*
G01X31038Y14522D01*
G01X30970Y14495D01*
G01X30895Y14471D01*
G01X30814Y14449D01*
G01X30730Y14429D01*
G01X30645Y14412D01*
G01X30560Y14399D01*
G01X30479Y14392D01*
G37*

%LPC*%
G36*
G01X30350Y14465D02*
G01X30409Y14463D01*
G01X30452Y14468D01*
G01X30449Y14482D01*
G01X30394Y14508D01*
G01X30283Y14550D01*
G01X30186Y14585D01*
G01X30108Y14610D01*
G01X30049Y14627D01*
G01X30009Y14636D01*
G01X29984Y14636D01*
G01X29975Y14628D01*
G01X29979Y14612D01*
G01X29996Y14588D01*
G01X30023Y14564D01*
G01X30062Y14541D01*
G01X30110Y14520D01*
G01X30166Y14500D01*
G01X30227Y14485D01*
G01X30289Y14472D01*
G01X30350Y14465D01*
G37*
G36*
G01X30769Y14621D02*
G01X30810Y14619D01*
G01X30845Y14624D01*
G01X30876Y14639D01*
G01X30908Y14661D01*
G01X30941Y14692D01*
G01X30982Y14729D01*
G01X31026Y14759D01*
G01X31066Y14780D01*
G01X31098Y14788D01*
G01X31104Y14793D01*
G01X31073Y14808D01*
G01X31010Y14829D01*
G01X30921Y14853D01*
G01X30820Y14884D01*
G01X30726Y14921D01*
G01X30647Y14960D01*
G01X30596Y14995D01*
G01X30544Y15036D01*
G01X30480Y15074D01*
G01X30409Y15108D01*
G01X30337Y15135D01*
G01X30269Y15155D01*
G01X30210Y15164D01*
G01X30166Y15162D01*
G01X30140Y15147D01*
G01X30126Y15131D01*
G01X30109Y15121D01*
G01X30091Y15119D01*
G01X30074Y15125D01*
G01X30043Y15137D01*
G01X29986Y15153D01*
G01X29912Y15170D01*
G01X29828Y15187D01*
G01X29748Y15203D01*
G01X29681Y15220D01*
G01X29628Y15238D01*
G01X29589Y15257D01*
G01X29563Y15276D01*
G01X29549Y15296D01*
G01X29549Y15318D01*
G01X29562Y15341D01*
G01X29577Y15367D01*
G01X29593Y15408D01*
G01X29608Y15458D01*
G01X29620Y15513D01*
G01X29629Y15580D01*
G01X29627Y15626D01*
G01X29610Y15658D01*
G01X29578Y15683D01*
G01X29515Y15714D01*
G01X29479Y15712D01*
G01X29460Y15672D01*
G01X29454Y15588D01*
G01X29452Y15534D01*
G01X29452Y15447D01*
G01X29454Y15426D01*
G01X29453Y15416D01*
G01X29446Y15407D01*
G01X29436Y15401D01*
G01X29422Y15399D01*
G01X29408Y15406D01*
G01X29397Y15426D01*
G01X29389Y15455D01*
G01X29386Y15491D01*
G01X29384Y15526D01*
G01X29376Y15551D01*
G01X29364Y15563D01*
G01X29351Y15562D01*
G01X29329Y15542D01*
G01X29318Y15517D01*
G01X29317Y15485D01*
G01X29325Y15446D01*
G01X29343Y15400D01*
G01X29372Y15346D01*
G01X29410Y15285D01*
G01X29458Y15216D01*
G01X29500Y15161D01*
G01X29539Y15114D01*
G01X29578Y15074D01*
G01X29617Y15040D01*
G01X29661Y15009D01*
G01X29708Y14981D01*
G01X29763Y14954D01*
G01X29826Y14926D01*
G01X29947Y14878D01*
G01X30019Y14857D01*
G01X30058Y14862D01*
G01X30083Y14890D01*
G01X30095Y14913D01*
G01X30107Y14934D01*
G01X30116Y14949D01*
G01X30121Y14957D01*
G01X30141Y14954D01*
G01X30191Y14941D01*
G01X30264Y14918D01*
G01X30350Y14890D01*
G01X30460Y14850D01*
G01X30522Y14819D01*
G01X30544Y14792D01*
G01X30532Y14765D01*
G01X30516Y14738D01*
G01X30519Y14717D01*
G01X30541Y14698D01*
G01X30586Y14678D01*
G01X30660Y14651D01*
G01X30720Y14632D01*
G01X30769Y14621D01*
G37*
G36*
G01X31007Y15066D02*
G01X31044Y15060D01*
G01X31056Y15072D01*
G01X31048Y15104D01*
G01X31037Y15130D01*
G01X31021Y15158D01*
G01X31002Y15182D01*
G01X30982Y15201D01*
G01X30964Y15221D01*
G01X30947Y15248D01*
G01X30933Y15279D01*
G01X30925Y15309D01*
G01X30887Y15376D01*
G01X30822Y15426D01*
G01X30757Y15445D01*
G01X30721Y15416D01*
G01X30715Y15395D01*
G01X30709Y15379D01*
G01X30702Y15367D01*
G01X30696Y15363D01*
G01X30684Y15365D01*
G01X30660Y15373D01*
G01X30628Y15384D01*
G01X30592Y15397D01*
G01X30554Y15410D01*
G01X30521Y15414D01*
G01X30496Y15410D01*
G01X30481Y15399D01*
G01X30469Y15388D01*
G01X30451Y15382D01*
G01X30430Y15381D01*
G01X30408Y15386D01*
G01X30388Y15392D01*
G01X30371Y15394D01*
G01X30360Y15392D01*
G01X30356Y15385D01*
G01X30363Y15375D01*
G01X30386Y15358D01*
G01X30421Y15337D01*
G01X30466Y15311D01*
G01X30520Y15282D01*
G01X30579Y15251D01*
G01X30642Y15220D01*
G01X30706Y15189D01*
G01X30770Y15159D01*
G01X30831Y15132D01*
G01X30886Y15109D01*
G01X30935Y15091D01*
G01X31007Y15066D01*
G37*
G36*
G01X31082Y15415D02*
G01X31151Y15409D01*
G01X31179Y15430D01*
G01X31165Y15473D01*
G01X31109Y15534D01*
G01X31081Y15561D01*
G01X31058Y15591D01*
G01X31043Y15617D01*
G01X31037Y15639D01*
G01X31015Y15682D01*
G01X30964Y15734D01*
G01X30903Y15777D01*
G01X30854Y15796D01*
G01X30843Y15792D01*
G01X30831Y15780D01*
G01X30819Y15763D01*
G01X30809Y15742D01*
G01X30795Y15717D01*
G01X30774Y15706D01*
G01X30742Y15712D01*
G01X30691Y15733D01*
G01X30643Y15753D01*
G01X30611Y15759D01*
G01X30591Y15752D01*
G01X30580Y15732D01*
G01X30570Y15717D01*
G01X30558Y15707D01*
G01X30542Y15705D01*
G01X30526Y15711D01*
G01X30513Y15718D01*
G01X30505Y15719D01*
G01X30503Y15713D01*
G01X30508Y15702D01*
G01X30523Y15688D01*
G01X30552Y15667D01*
G01X30593Y15642D01*
G01X30643Y15614D01*
G01X30699Y15583D01*
G01X30760Y15552D01*
G01X30824Y15521D01*
G01X30886Y15492D01*
G01X30946Y15466D01*
G01X31000Y15443D01*
G01X31046Y15425D01*
G01X31082Y15415D01*
G37*
G36*
G01X30064Y15530D02*
G01X30093Y15519D01*
G01X30104Y15520D01*
G01X30091Y15536D01*
G01X30057Y15562D01*
G01X30007Y15596D01*
G01X29945Y15634D01*
G01X29880Y15677D01*
G01X29833Y15716D01*
G01X29807Y15750D01*
G01X29803Y15776D01*
G01X29807Y15797D01*
G01X29805Y15818D01*
G01X29797Y15835D01*
G01X29784Y15849D01*
G01X29769Y15863D01*
G01X29757Y15883D01*
G01X29748Y15908D01*
G01X29745Y15933D01*
G01X29737Y15961D01*
G01X29716Y15993D01*
G01X29685Y16024D01*
G01X29646Y16051D01*
G01X29592Y16080D01*
G01X29560Y16088D01*
G01X29539Y16077D01*
G01X29523Y16045D01*
G01X29509Y16018D01*
G01X29488Y15991D01*
G01X29464Y15966D01*
G01X29438Y15948D01*
G01X29416Y15935D01*
G01X29403Y15924D01*
G01X29400Y15913D01*
G01X29412Y15898D01*
G01X29439Y15878D01*
G01X29485Y15851D01*
G01X29553Y15814D01*
G01X29644Y15764D01*
G01X29729Y15719D01*
G01X29819Y15669D01*
G01X29902Y15621D01*
G01X29969Y15581D01*
G01X30022Y15551D01*
G01X30064Y15530D01*
G37*
G36*
G01X31489Y15655D02*
G01X31502Y15651D01*
G01X31516Y15655D01*
G01X31529Y15662D01*
G01X31537Y15674D01*
G01X31540Y15688D01*
G01X31539Y15702D01*
G01X31535Y15713D01*
G01X31530Y15721D01*
G01X31524Y15724D01*
G01X31516Y15721D01*
G01X31506Y15713D01*
G01X31496Y15702D01*
G01X31486Y15688D01*
G01X31480Y15674D01*
G01X31481Y15662D01*
G01X31489Y15655D01*
G37*
G36*
G01X31345Y15700D02*
G01X31372Y15698D01*
G01X31387Y15702D01*
G01X31392Y15710D01*
G01X31389Y15718D01*
G01X31380Y15722D01*
G01X31365Y15724D01*
G01X31325Y15751D01*
G01X31286Y15821D01*
G01X31253Y15922D01*
G01X31232Y16039D01*
G01X31220Y16155D01*
G01X31456Y16066D01*
G01X31551Y16031D01*
G01X31635Y16003D01*
G01X31700Y15983D01*
G01X31735Y15977D01*
G01X31758Y15996D01*
G01X31789Y16050D01*
G01X31825Y16130D01*
G01X31860Y16227D01*
G01X31895Y16326D01*
G01X31929Y16409D01*
G01X31960Y16468D01*
G01X31983Y16495D01*
G01X31994Y16502D01*
G01X31995Y16508D01*
G01X31985Y16513D01*
G01X31966Y16515D01*
G01X31936Y16513D01*
G01X31911Y16503D01*
G01X31887Y16486D01*
G01X31864Y16458D01*
G01X31842Y16418D01*
G01X31821Y16366D01*
G01X31798Y16301D01*
G01X31774Y16220D01*
G01X31733Y16092D01*
G01X31699Y16029D01*
G01X31660Y16022D01*
G01X31602Y16057D01*
G01X31572Y16088D01*
G01X31564Y16130D01*
G01X31580Y16203D01*
G01X31621Y16326D01*
G01X31650Y16414D01*
G01X31671Y16489D01*
G01X31682Y16544D01*
G01X31681Y16568D01*
G01X31647Y16583D01*
G01X31571Y16608D01*
G01X31462Y16640D01*
G01X31333Y16676D01*
G01X31005Y16764D01*
G01X30948Y16569D01*
G01X30924Y16493D01*
G01X30901Y16431D01*
G01X30880Y16389D01*
G01X30866Y16373D01*
G01X30803Y16397D01*
G01X30716Y16450D01*
G01X30640Y16511D01*
G01X30607Y16554D01*
G01X30611Y16579D01*
G01X30622Y16619D01*
G01X30640Y16669D01*
G01X30660Y16722D01*
G01X30681Y16773D01*
G01X30698Y16817D01*
G01X30710Y16848D01*
G01X30714Y16863D01*
G01X30675Y16882D01*
G01X30584Y16911D01*
G01X30486Y16938D01*
G01X30422Y16950D01*
G01X30411Y16941D01*
G01X30399Y16913D01*
G01X30387Y16873D01*
G01X30376Y16824D01*
G01X30365Y16777D01*
G01X30350Y16741D01*
G01X30332Y16717D01*
G01X30307Y16704D01*
G01X30276Y16702D01*
G01X30237Y16710D01*
G01X30188Y16728D01*
G01X30129Y16757D01*
G01X30019Y16817D01*
G01X29962Y16866D01*
G01X29947Y16918D01*
G01X29962Y16994D01*
G01X29978Y17071D01*
G01X29976Y17127D01*
G01X29958Y17155D01*
G01X29925Y17149D01*
G01X29911Y17133D01*
G01X29896Y17104D01*
G01X29882Y17066D01*
G01X29871Y17023D01*
G01X29857Y16978D01*
G01X29838Y16944D01*
G01X29815Y16923D01*
G01X29790Y16914D01*
G01X29789Y16909D01*
G01X29809Y16894D01*
G01X29847Y16869D01*
G01X29902Y16837D01*
G01X29973Y16797D01*
G01X30055Y16752D01*
G01X30149Y16702D01*
G01X30252Y16649D01*
G01X30324Y16612D01*
G01X30396Y16575D01*
G01X30467Y16537D01*
G01X30536Y16501D01*
G01X30603Y16465D01*
G01X30666Y16431D01*
G01X30726Y16398D01*
G01X30780Y16368D01*
G01X30828Y16341D01*
G01X30871Y16316D01*
G01X30905Y16296D01*
G01X30932Y16279D01*
G01X31013Y16225D01*
G01X31050Y16191D01*
G01X31048Y16174D01*
G01X31010Y16164D01*
G01X30979Y16155D01*
G01X30953Y16140D01*
G01X30936Y16121D01*
G01X30930Y16100D01*
G01X30918Y16066D01*
G01X30887Y16051D01*
G01X30842Y16057D01*
G01X30787Y16083D01*
G01X30762Y16095D01*
G01X30741Y16098D01*
G01X30723Y16091D01*
G01X30709Y16076D01*
G01X30692Y16058D01*
G01X30669Y16053D01*
G01X30636Y16059D01*
G01X30591Y16077D01*
G01X30539Y16100D01*
G01X30508Y16110D01*
G01X30498Y16108D01*
G01X30508Y16096D01*
G01X30537Y16075D01*
G01X30583Y16045D01*
G01X30646Y16007D01*
G01X30723Y15962D01*
G01X30790Y15926D01*
G01X30861Y15891D01*
G01X30932Y15856D01*
G01X31004Y15823D01*
G01X31074Y15793D01*
G01X31141Y15766D01*
G01X31203Y15742D01*
G01X31259Y15724D01*
G01X31307Y15709D01*
G01X31345Y15700D01*
G37*
G36*
G01X30044Y15949D02*
G01X30060Y15944D01*
G01X30067Y15944D01*
G01X30064Y15950D01*
G01X30051Y15962D01*
G01X30027Y15980D01*
G01X29993Y16004D01*
G01X29958Y16031D01*
G01X29931Y16060D01*
G01X29916Y16087D01*
G01X29914Y16108D01*
G01X29917Y16126D01*
G01X29913Y16145D01*
G01X29904Y16161D01*
G01X29891Y16174D01*
G01X29876Y16187D01*
G01X29864Y16207D01*
G01X29856Y16230D01*
G01X29853Y16254D01*
G01X29842Y16286D01*
G01X29814Y16330D01*
G01X29771Y16381D01*
G01X29719Y16432D01*
G01X29644Y16500D01*
G01X29616Y16532D01*
G01X29632Y16535D01*
G01X29688Y16517D01*
G01X29745Y16492D01*
G01X29828Y16453D01*
G01X29922Y16404D01*
G01X30019Y16351D01*
G01X30101Y16306D01*
G01X30167Y16273D01*
G01X30214Y16252D01*
G01X30242Y16243D01*
G01X30248Y16246D01*
G01X30231Y16262D01*
G01X30189Y16291D01*
G01X30120Y16334D01*
G01X30072Y16366D01*
G01X30037Y16398D01*
G01X30017Y16427D01*
G01X30015Y16447D01*
G01X30021Y16466D01*
G01X30020Y16488D01*
G01X30012Y16512D01*
G01X29997Y16534D01*
G01X29982Y16558D01*
G01X29972Y16586D01*
G01X29966Y16615D01*
G01X29967Y16641D01*
G01X29963Y16669D01*
G01X29944Y16701D01*
G01X29913Y16734D01*
G01X29871Y16765D01*
G01X29811Y16799D01*
G01X29778Y16811D01*
G01X29761Y16802D01*
G01X29753Y16770D01*
G01X29741Y16742D01*
G01X29718Y16714D01*
G01X29686Y16687D01*
G01X29649Y16665D01*
G01X29600Y16638D01*
G01X29574Y16605D01*
G01X29569Y16553D01*
G01X29578Y16467D01*
G01X29586Y16385D01*
G01X29582Y16333D01*
G01X29563Y16301D01*
G01X29526Y16278D01*
G01X29508Y16268D01*
G01X29499Y16256D01*
G01X29502Y16242D01*
G01X29518Y16225D01*
G01X29549Y16202D01*
G01X29597Y16174D01*
G01X29662Y16138D01*
G01X29746Y16093D01*
G01X29818Y16056D01*
G01X29882Y16023D01*
G01X29936Y15996D01*
G01X29981Y15975D01*
G01X30017Y15959D01*
G01X30044Y15949D01*
G37*
G36*
G01X32935Y16736D02*
G01X32990Y16736D01*
G01X33038Y16738D01*
G01X33080Y16741D01*
G01X33119Y16747D01*
G01X33156Y16756D01*
G01X33193Y16768D01*
G01X33232Y16783D01*
G01X33276Y16801D01*
G01X33324Y16822D01*
G01X33380Y16849D01*
G01X33431Y16875D01*
G01X33478Y16901D01*
G01X33520Y16928D01*
G01X33559Y16956D01*
G01X33595Y16985D01*
G01X33628Y17018D01*
G01X33659Y17053D01*
G01X33687Y17090D01*
G01X33713Y17132D01*
G01X33739Y17178D01*
G01X33764Y17228D01*
G01X33788Y17283D01*
G01X33812Y17344D01*
G01X33836Y17411D01*
G01X33861Y17484D01*
G01X33888Y17564D01*
G01X33911Y17630D01*
G01X33931Y17681D01*
G01X33948Y17719D01*
G01X33960Y17742D01*
G01X33969Y17751D01*
G01X33975Y17746D01*
G01X33977Y17727D01*
G01X33972Y17669D01*
G01X33958Y17592D01*
G01X33936Y17505D01*
G01X33910Y17420D01*
G01X33842Y17221D01*
G01X33929Y17329D01*
G01X33939Y17344D01*
G01X33953Y17363D01*
G01X33968Y17389D01*
G01X33986Y17420D01*
G01X34007Y17456D01*
G01X34029Y17498D01*
G01X34054Y17543D01*
G01X34080Y17592D01*
G01X34109Y17645D01*
G01X34138Y17702D01*
G01X34169Y17761D01*
G01X34201Y17824D01*
G01X34234Y17888D01*
G01X34268Y17955D01*
G01X34303Y18023D01*
G01X34338Y18093D01*
G01X34373Y18164D01*
G01X34408Y18236D01*
G01X34479Y18380D01*
G01X34514Y18452D01*
G01X34549Y18523D01*
G01X34583Y18593D01*
G01X34615Y18661D01*
G01X34647Y18728D01*
G01X34678Y18794D01*
G01X34707Y18856D01*
G01X34735Y18917D01*
G01X34761Y18974D01*
G01X34785Y19028D01*
G01X34807Y19078D01*
G01X34827Y19125D01*
G01X34854Y19187D01*
G01X34878Y19245D01*
G01X34899Y19299D01*
G01X34918Y19350D01*
G01X34936Y19399D01*
G01X34952Y19447D01*
G01X34966Y19495D01*
G01X34980Y19543D01*
G01X34992Y19593D01*
G01X35004Y19646D01*
G01X35015Y19703D01*
G01X35027Y19764D01*
G01X35038Y19830D01*
G01X35049Y19903D01*
G01X35062Y19983D01*
G01X35075Y20071D01*
G01X35093Y20188D01*
G01X35109Y20284D01*
G01X35126Y20364D01*
G01X35145Y20432D01*
G01X35166Y20491D01*
G01X35192Y20547D01*
G01X35223Y20602D01*
G01X35261Y20662D01*
G01X35306Y20732D01*
G01X35344Y20798D01*
G01X35377Y20861D01*
G01X35405Y20922D01*
G01X35426Y20982D01*
G01X35444Y21041D01*
G01X35455Y21101D01*
G01X35463Y21162D01*
G01X35466Y21225D01*
G01X35464Y21292D01*
G01X35458Y21362D01*
G01X35449Y21438D01*
G01X35444Y21477D01*
G01X35440Y21522D01*
G01X35435Y21574D01*
G01X35431Y21630D01*
G01X35427Y21690D01*
G01X35424Y21753D01*
G01X35422Y21818D01*
G01X35420Y21884D01*
G01X35418Y21951D01*
G01X35417Y22018D01*
G01X35417Y22083D01*
G01X35417Y22147D01*
G01X35419Y22287D01*
G01X35420Y22404D01*
G01X35421Y22498D01*
G01X35421Y22572D01*
G01X35419Y22628D01*
G01X35415Y22669D01*
G01X35410Y22696D01*
G01X35402Y22713D01*
G01X35392Y22721D01*
G01X35379Y22722D01*
G01X35363Y22719D01*
G01X35344Y22714D01*
G01X35303Y22708D01*
G01X35269Y22714D01*
G01X35239Y22733D01*
G01X35215Y22765D01*
G01X35194Y22810D01*
G01X35176Y22870D01*
G01X35163Y22946D01*
G01X35152Y23037D01*
G01X35138Y23183D01*
G01X35126Y23320D01*
G01X35114Y23447D01*
G01X35103Y23566D01*
G01X35092Y23675D01*
G01X35082Y23777D01*
G01X35073Y23870D01*
G01X35064Y23956D01*
G01X35056Y24035D01*
G01X35047Y24106D01*
G01X35039Y24171D01*
G01X35032Y24229D01*
G01X35024Y24281D01*
G01X35016Y24328D01*
G01X35008Y24369D01*
G01X35000Y24405D01*
G01X34992Y24437D01*
G01X34982Y24464D01*
G01X34973Y24487D01*
G01X34964Y24506D01*
G01X34953Y24522D01*
G01X34943Y24535D01*
G01X34931Y24545D01*
G01X34918Y24553D01*
G01X34905Y24558D01*
G01X34891Y24562D01*
G01X34875Y24564D01*
G01X34859Y24565D01*
G01X34822Y24565D01*
G01X34802Y24565D01*
G01X34780Y24565D01*
G01X34752Y24564D01*
G01X34718Y24561D01*
G01X34676Y24557D01*
G01X34629Y24551D01*
G01X34578Y24543D01*
G01X34522Y24534D01*
G01X34462Y24524D01*
G01X34400Y24513D01*
G01X34336Y24500D01*
G01X34272Y24487D01*
G01X34206Y24473D01*
G01X34142Y24459D01*
G01X34089Y24447D01*
G01X34033Y24435D01*
G01X33976Y24422D01*
G01X33916Y24409D01*
G01X33854Y24396D01*
G01X33790Y24383D01*
G01X33725Y24370D01*
G01X33659Y24356D01*
G01X33592Y24342D01*
G01X33524Y24329D01*
G01X33456Y24315D01*
G01X33389Y24302D01*
G01X33321Y24289D01*
G01X33254Y24276D01*
G01X33187Y24263D01*
G01X33122Y24251D01*
G01X33057Y24239D01*
G01X32994Y24227D01*
G01X32933Y24216D01*
G01X32874Y24205D01*
G01X32817Y24196D01*
G01X32763Y24186D01*
G01X32712Y24177D01*
G01X32664Y24169D01*
G01X32619Y24162D01*
G01X32578Y24155D01*
G01X32540Y24150D01*
G01X32507Y24145D01*
G01X32468Y24141D01*
G01X32426Y24139D01*
G01X32383Y24138D01*
G01X32338Y24139D01*
G01X32291Y24141D01*
G01X32242Y24145D01*
G01X32191Y24151D01*
G01X32139Y24158D01*
G01X32085Y24167D01*
G01X32029Y24178D01*
G01X31973Y24190D01*
G01X31914Y24204D01*
G01X31853Y24219D01*
G01X31792Y24236D01*
G01X31728Y24254D01*
G01X31664Y24275D01*
G01X31598Y24296D01*
G01X31531Y24319D01*
G01X31462Y24344D01*
G01X31392Y24370D01*
G01X31319Y24398D01*
G01X31249Y24424D01*
G01X31180Y24448D01*
G01X31113Y24470D01*
G01X31048Y24491D01*
G01X30984Y24511D01*
G01X30922Y24528D01*
G01X30862Y24544D01*
G01X30801Y24559D01*
G01X30742Y24571D01*
G01X30682Y24584D01*
G01X30623Y24594D01*
G01X30564Y24603D01*
G01X30505Y24611D01*
G01X30445Y24617D01*
G01X30385Y24623D01*
G01X30324Y24627D01*
G01X30262Y24630D01*
G01X30198Y24632D01*
G01X30133Y24633D01*
G01X29821Y24636D01*
G01X29788Y24519D01*
G01X29782Y24495D01*
G01X29774Y24465D01*
G01X29765Y24428D01*
G01X29754Y24385D01*
G01X29742Y24337D01*
G01X29729Y24283D01*
G01X29715Y24225D01*
G01X29700Y24163D01*
G01X29684Y24097D01*
G01X29668Y24028D01*
G01X29651Y23956D01*
G01X29634Y23882D01*
G01X29616Y23807D01*
G01X29598Y23730D01*
G01X29580Y23652D01*
G01X29562Y23574D01*
G01X29544Y23497D01*
G01X29526Y23419D01*
G01X29509Y23343D01*
G01X29491Y23269D01*
G01X29475Y23197D01*
G01X29459Y23127D01*
G01X29444Y23060D01*
G01X29430Y22997D01*
G01X29405Y22883D01*
G01X29394Y22833D01*
G01X29384Y22789D01*
G01X29362Y22691D01*
G01X29344Y22611D01*
G01X29326Y22549D01*
G01X29309Y22501D01*
G01X29292Y22465D01*
G01X29275Y22441D01*
G01X29255Y22425D01*
G01X29233Y22414D01*
G01X29195Y22408D01*
G01X29160Y22414D01*
G01X29127Y22435D01*
G01X29094Y22470D01*
G01X29061Y22503D01*
G01X29028Y22524D01*
G01X28994Y22532D01*
G01X28960Y22527D01*
G01X28938Y22518D01*
G01X28921Y22501D01*
G01X28908Y22474D01*
G01X28898Y22434D01*
G01X28889Y22374D01*
G01X28882Y22292D01*
G01X28875Y22184D01*
G01X28868Y22046D01*
G01X28863Y21933D01*
G01X28858Y21831D01*
G01X28854Y21739D01*
G01X28851Y21656D01*
G01X28849Y21580D01*
G01X28848Y21511D01*
G01X28848Y21449D01*
G01X28849Y21393D01*
G01X28851Y21341D01*
G01X28855Y21293D01*
G01X28859Y21249D01*
G01X28866Y21206D01*
G01X28874Y21166D01*
G01X28883Y21126D01*
G01X28895Y21086D01*
G01X28907Y21045D01*
G01X28922Y21002D01*
G01X28938Y20957D01*
G01X28957Y20909D01*
G01X28977Y20856D01*
G01X29014Y20762D01*
G01X29045Y20688D01*
G01X29071Y20633D01*
G01X29092Y20595D01*
G01X29109Y20572D01*
G01X29124Y20563D01*
G01X29137Y20566D01*
G01X29151Y20580D01*
G01X29179Y20606D01*
G01X29215Y20622D01*
G01X29257Y20628D01*
G01X29301Y20625D01*
G01X29344Y20614D01*
G01X29384Y20595D01*
G01X29416Y20568D01*
G01X29439Y20534D01*
G01X29457Y20502D01*
G01X29482Y20473D01*
G01X29510Y20451D01*
G01X29538Y20438D01*
G01X29568Y20423D01*
G01X29588Y20392D01*
G01X29599Y20340D01*
G01X29602Y20264D01*
G01X29603Y20223D01*
G01X29606Y20167D01*
G01X29611Y20099D01*
G01X29618Y20020D01*
G01X29626Y19934D01*
G01X29635Y19843D01*
G01X29645Y19750D01*
G01X29656Y19656D01*
G01X29667Y19572D01*
G01X29677Y19496D01*
G01X29688Y19427D01*
G01X29698Y19364D01*
G01X29709Y19307D01*
G01X29721Y19254D01*
G01X29734Y19205D01*
G01X29747Y19159D01*
G01X29763Y19116D01*
G01X29779Y19073D01*
G01X29797Y19031D01*
G01X29817Y18990D01*
G01X29832Y18959D01*
G01X29850Y18927D01*
G01X29869Y18893D01*
G01X29891Y18856D01*
G01X29915Y18819D01*
G01X29940Y18780D01*
G01X29967Y18740D01*
G01X29996Y18697D01*
G01X30027Y18653D01*
G01X30060Y18608D01*
G01X30095Y18561D01*
G01X30132Y18513D01*
G01X30170Y18464D01*
G01X30209Y18413D01*
G01X30251Y18361D01*
G01X30294Y18307D01*
G01X30339Y18252D01*
G01X30386Y18196D01*
G01X30434Y18139D01*
G01X30483Y18080D01*
G01X30534Y18021D01*
G01X30587Y17960D01*
G01X30641Y17898D01*
G01X30697Y17835D01*
G01X30754Y17772D01*
G01X30812Y17707D01*
G01X30872Y17641D01*
G01X30933Y17575D01*
G01X31139Y17351D01*
G01X31125Y17556D01*
G01X31110Y17763D01*
G01X31159Y17529D01*
G01X31174Y17459D01*
G01X31190Y17402D01*
G01X31206Y17354D01*
G01X31226Y17312D01*
G01X31250Y17275D01*
G01X31281Y17238D01*
G01X31318Y17200D01*
G01X31364Y17159D01*
G01X31403Y17126D01*
G01X31442Y17095D01*
G01X31482Y17066D01*
G01X31523Y17038D01*
G01X31565Y17012D01*
G01X31607Y16987D01*
G01X31651Y16964D01*
G01X31697Y16942D01*
G01X31743Y16921D01*
G01X31792Y16902D01*
G01X31842Y16883D01*
G01X31894Y16867D01*
G01X31948Y16851D01*
G01X32004Y16836D01*
G01X32062Y16823D01*
G01X32123Y16811D01*
G01X32186Y16800D01*
G01X32252Y16789D01*
G01X32320Y16780D01*
G01X32392Y16771D01*
G01X32466Y16764D01*
G01X32544Y16757D01*
G01X32624Y16751D01*
G01X32709Y16746D01*
G01X32796Y16741D01*
G01X32871Y16738D01*
G01X32935Y16736D01*
G37*
G36*
G01X31324Y16897D02*
G01X31450Y16870D01*
G01X31288Y16996D01*
G01X31263Y17016D01*
G01X31234Y17040D01*
G01X31204Y17067D01*
G01X31170Y17098D01*
G01X31135Y17131D01*
G01X31097Y17167D01*
G01X31058Y17206D01*
G01X31016Y17247D01*
G01X30973Y17290D01*
G01X30929Y17334D01*
G01X30884Y17381D01*
G01X30838Y17429D01*
G01X30791Y17478D01*
G01X30744Y17529D01*
G01X30697Y17580D01*
G01X30649Y17631D01*
G01X30602Y17683D01*
G01X30555Y17735D01*
G01X30508Y17787D01*
G01X30463Y17839D01*
G01X30418Y17890D01*
G01X30374Y17941D01*
G01X30332Y17990D01*
G01X30292Y18039D01*
G01X30252Y18086D01*
G01X30215Y18131D01*
G01X30180Y18175D01*
G01X30099Y18279D01*
G01X30054Y18337D01*
G01X30012Y18390D01*
G01X29976Y18435D01*
G01X29945Y18473D01*
G01X29921Y18501D01*
G01X29906Y18518D01*
G01X29900Y18523D01*
G01X29896Y18515D01*
G01X29890Y18491D01*
G01X29880Y18454D01*
G01X29868Y18405D01*
G01X29853Y18347D01*
G01X29837Y18280D01*
G01X29820Y18207D01*
G01X29801Y18128D01*
G01X29783Y18047D01*
G01X29765Y17967D01*
G01X29750Y17889D01*
G01X29736Y17816D01*
G01X29725Y17750D01*
G01X29716Y17693D01*
G01X29711Y17646D01*
G01X29709Y17613D01*
G01X29710Y17573D01*
G01X29715Y17540D01*
G01X29728Y17512D01*
G01X29750Y17486D01*
G01X29786Y17459D01*
G01X29838Y17429D01*
G01X29911Y17393D01*
G01X30006Y17347D01*
G01X30043Y17330D01*
G01X30084Y17312D01*
G01X30130Y17292D01*
G01X30179Y17272D01*
G01X30232Y17251D01*
G01X30288Y17229D01*
G01X30346Y17207D01*
G01X30407Y17185D01*
G01X30469Y17162D01*
G01X30532Y17139D01*
G01X30597Y17117D01*
G01X30662Y17095D01*
G01X30791Y17051D01*
G01X30855Y17031D01*
G01X30917Y17010D01*
G01X30978Y16992D01*
G01X31037Y16973D01*
G01X31093Y16957D01*
G01X31147Y16941D01*
G01X31197Y16928D01*
G01X31244Y16915D01*
G01X31286Y16905D01*
G01X31324Y16897D01*
G37*

%LPD*%
G36*
G01X33504Y18275D02*
G01X33491Y18262D01*
G01X33433Y18277D01*
G01X33335Y18322D01*
G01X33312Y18332D01*
G01X33286Y18342D01*
G01X33257Y18353D01*
G01X33224Y18362D01*
G01X33189Y18371D01*
G01X33150Y18380D01*
G01X33108Y18389D01*
G01X33063Y18397D01*
G01X33015Y18404D01*
G01X32964Y18411D01*
G01X32909Y18419D01*
G01X32851Y18425D01*
G01X32790Y18431D01*
G01X32726Y18437D01*
G01X32659Y18442D01*
G01X32589Y18447D01*
G01X32516Y18452D01*
G01X32440Y18456D01*
G01X32360Y18460D01*
G01X32278Y18463D01*
G01X32192Y18466D01*
G01X32103Y18469D01*
G01X32012Y18471D01*
G01X31917Y18473D01*
G01X31814Y18475D01*
G01X31730Y18476D01*
G01X31663Y18478D01*
G01X31613Y18480D01*
G01X31581Y18481D01*
G01X31566Y18482D01*
G01X31567Y18483D01*
G01X31583Y18485D01*
G01X31616Y18486D01*
G01X31664Y18488D01*
G01X31727Y18491D01*
G01X31805Y18493D01*
G01X32160Y18505D01*
G01X31913Y18626D01*
G01X31845Y18660D01*
G01X31784Y18691D01*
G01X31729Y18721D01*
G01X31681Y18749D01*
G01X31640Y18773D01*
G01X31606Y18795D01*
G01X31580Y18814D01*
G01X31562Y18830D01*
G01X31551Y18842D01*
G01X31549Y18850D01*
G01X31555Y18855D01*
G01X31570Y18855D01*
G01X31593Y18851D01*
G01X31626Y18843D01*
G01X31668Y18830D01*
G01X31720Y18811D01*
G01X31754Y18801D01*
G01X31804Y18790D01*
G01X31866Y18779D01*
G01X31940Y18767D01*
G01X32022Y18755D01*
G01X32110Y18745D01*
G01X32201Y18735D01*
G01X32294Y18725D01*
G01X32372Y18719D01*
G01X32445Y18714D01*
G01X32513Y18710D01*
G01X32576Y18707D01*
G01X32634Y18705D01*
G01X32689Y18705D01*
G01X32742Y18707D01*
G01X32792Y18709D01*
G01X32841Y18714D01*
G01X32888Y18719D01*
G01X32936Y18727D01*
G01X32984Y18736D01*
G01X33032Y18747D01*
G01X33082Y18759D01*
G01X33135Y18773D01*
G01X33191Y18789D01*
G01X33262Y18810D01*
G01X33318Y18822D01*
G01X33359Y18826D01*
G01X33388Y18821D01*
G01X33406Y18805D01*
G01X33414Y18778D01*
G01X33416Y18738D01*
G01X33413Y18686D01*
G01X33399Y18545D01*
G01X33178Y18518D01*
G01X32958Y18492D01*
G01X33185Y18427D01*
G01X33277Y18398D01*
G01X33360Y18368D01*
G01X33425Y18341D01*
G01X33463Y18318D01*
G01X33504Y18275D01*
G37*

%LPD*%
G36*
G01X32760Y18294D02*
G01X32721Y18288D01*
G01X32684Y18293D01*
G01X32622Y18304D01*
G01X32542Y18320D01*
G01X32455Y18339D01*
G01X32386Y18357D01*
G01X32347Y18370D01*
G01X32335Y18380D01*
G01X32346Y18386D01*
G01X32380Y18388D01*
G01X32434Y18384D01*
G01X32504Y18374D01*
G01X32590Y18360D01*
G01X32681Y18336D01*
G01X32742Y18312D01*
G01X32760Y18294D01*
G37*

%LPD*%
G36*
G01X31420Y18641D02*
G01X31410Y18638D01*
G01X31397Y18664D01*
G01X31385Y18725D01*
G01X31387Y18790D01*
G01X31403Y18845D01*
G01X31428Y18879D01*
G01X31436Y18872D01*
G01X31440Y18845D01*
G01X31441Y18800D01*
G01X31437Y18743D01*
G01X31428Y18676D01*
G01X31420Y18641D01*
G37*

%LPD*%
G36*
G01X29979Y18912D02*
G01X29978Y18899D01*
G01X29959Y18912D01*
G01X29935Y18949D01*
G01X29907Y19003D01*
G01X29878Y19070D01*
G01X29850Y19143D01*
G01X29825Y19218D01*
G01X29805Y19289D01*
G01X29794Y19350D01*
G01X29786Y19416D01*
G01X29784Y19465D01*
G01X29785Y19496D01*
G01X29790Y19509D01*
G01X29798Y19504D01*
G01X29807Y19479D01*
G01X29819Y19435D01*
G01X29830Y19372D01*
G01X29845Y19304D01*
G01X29867Y19223D01*
G01X29894Y19140D01*
G01X29923Y19065D01*
G01X29950Y19001D01*
G01X29968Y18948D01*
G01X29979Y18912D01*
G37*

%LPD*%
G36*
G01X32469Y19336D02*
G01X32401Y19334D01*
G01X32345Y19339D01*
G01X32286Y19350D01*
G01X32231Y19366D01*
G01X32186Y19386D01*
G01X32137Y19416D01*
G01X32126Y19432D01*
G01X32159Y19438D01*
G01X32242Y19439D01*
G01X32304Y19436D01*
G01X32365Y19424D01*
G01X32419Y19408D01*
G01X32457Y19387D01*
G01X32493Y19358D01*
G01X32498Y19342D01*
G01X32469Y19336D01*
G37*

%LPD*%
G36*
G01X33230Y19459D02*
G01X33183Y19443D01*
G01X33172Y19460D01*
G01X33208Y19513D01*
G01X33238Y19541D01*
G01X33271Y19563D01*
G01X33303Y19578D01*
G01X33331Y19583D01*
G01X33354Y19579D01*
G01X33357Y19567D01*
G01X33341Y19545D01*
G01X33303Y19511D01*
G01X33230Y19459D01*
G37*

%LPD*%
G36*
G01X32848Y20088D02*
G01X32846Y20087D01*
G01X32844Y20103D01*
G01X32841Y20137D01*
G01X32839Y20182D01*
G01X32837Y20232D01*
G01X32836Y20285D01*
G01X32836Y20339D01*
G01X32836Y20393D01*
G01X32837Y20444D01*
G01X32839Y20491D01*
G01X32841Y20533D01*
G01X32844Y20563D01*
G01X32846Y20575D01*
G01X32848Y20570D01*
G01X32850Y20550D01*
G01X32852Y20514D01*
G01X32853Y20464D01*
G01X32854Y20400D01*
G01X32854Y20325D01*
G01X32854Y20249D01*
G01X32853Y20187D01*
G01X32852Y20139D01*
G01X32850Y20106D01*
G01X32848Y20088D01*
G37*

%LPD*%
G36*
G01X33430Y20095D02*
G01X33426Y20090D01*
G01X33416Y20095D01*
G01X33403Y20111D01*
G01X33386Y20134D01*
G01X33370Y20162D01*
G01X33357Y20190D01*
G01X33348Y20213D01*
G01X33346Y20229D01*
G01X33350Y20234D01*
G01X33360Y20229D01*
G01X33374Y20213D01*
G01X33390Y20190D01*
G01X33406Y20162D01*
G01X33419Y20134D01*
G01X33428Y20111D01*
G01X33430Y20095D01*
G37*

%LPD*%
G36*
G01X29368Y20750D02*
G01X29351Y20741D01*
G01X29332Y20748D01*
G01X29307Y20772D01*
G01X29288Y20794D01*
G01X29281Y20806D01*
G01X29287Y20806D01*
G01X29306Y20797D01*
G01X29324Y20790D01*
G01X29338Y20793D01*
G01X29347Y20805D01*
G01X29351Y20825D01*
G01X29353Y20848D01*
G01X29361Y20870D01*
G01X29373Y20889D01*
G01X29386Y20902D01*
G01X29400Y20907D01*
G01X29412Y20904D01*
G01X29419Y20894D01*
G01X29422Y20877D01*
G01X29419Y20854D01*
G01X29411Y20828D01*
G01X29401Y20801D01*
G01X29387Y20776D01*
G01X29368Y20750D01*
G37*

%LPD*%
G36*
G01X29193Y20903D02*
G01X29189Y20895D01*
G01X29175Y20899D01*
G01X29158Y20919D01*
G01X29138Y20957D01*
G01X29119Y21006D01*
G01X29100Y21063D01*
G01X29085Y21123D01*
G01X29073Y21182D01*
G01X29067Y21233D01*
G01X29067Y21274D01*
G01X29067Y21303D01*
G01X29064Y21337D01*
G01X29056Y21372D01*
G01X29045Y21404D01*
G01X29035Y21439D01*
G01X29040Y21471D01*
G01X29059Y21503D01*
G01X29093Y21536D01*
G01X29125Y21566D01*
G01X29148Y21598D01*
G01X29162Y21633D01*
G01X29167Y21674D01*
G01X29163Y21723D01*
G01X29151Y21781D01*
G01X29130Y21849D01*
G01X29100Y21929D01*
G01X29059Y22039D01*
G01X29043Y22097D01*
G01X29054Y22105D01*
G01X29090Y22065D01*
G01X29119Y22022D01*
G01X29144Y21973D01*
G01X29164Y21920D01*
G01X29181Y21864D01*
G01X29192Y21807D01*
G01X29199Y21751D01*
G01X29201Y21696D01*
G01X29198Y21645D01*
G01X29191Y21599D01*
G01X29177Y21559D01*
G01X29159Y21528D01*
G01X29135Y21506D01*
G01X29088Y21466D01*
G01X29066Y21428D01*
G01X29072Y21400D01*
G01X29108Y21389D01*
G01X29128Y21379D01*
G01X29139Y21347D01*
G01X29144Y21292D01*
G01X29141Y21212D01*
G01X29139Y21137D01*
G01X29145Y21064D01*
G01X29156Y21000D01*
G01X29171Y20956D01*
G01X29187Y20923D01*
G01X29193Y20903D01*
G37*

%LPD*%
G36*
G01X29274Y21054D02*
G01X29268Y21042D01*
G01X29262Y21043D01*
G01X29254Y21058D01*
G01X29249Y21077D01*
G01X29247Y21097D01*
G01X29250Y21115D01*
G01X29257Y21127D01*
G01X29265Y21130D01*
G01X29271Y21122D01*
G01X29275Y21104D01*
G01X29276Y21079D01*
G01X29274Y21054D01*
G37*

%LPD*%
G36*
G01X31338Y21343D02*
G01X31281Y21343D01*
G01X31227Y21345D01*
G01X31173Y21349D01*
G01X31123Y21356D01*
G01X31073Y21364D01*
G01X31027Y21375D01*
G01X30983Y21388D01*
G01X30920Y21413D01*
G01X30849Y21448D01*
G01X30775Y21490D01*
G01X30702Y21536D01*
G01X30637Y21581D01*
G01X30584Y21623D01*
G01X30548Y21659D01*
G01X30535Y21683D01*
G01X30550Y21706D01*
G01X30589Y21736D01*
G01X30650Y21770D01*
G01X30725Y21807D01*
G01X30809Y21843D01*
G01X30898Y21877D01*
G01X30985Y21905D01*
G01X31066Y21926D01*
G01X31148Y21943D01*
G01X31217Y21954D01*
G01X31278Y21960D01*
G01X31335Y21961D01*
G01X31393Y21956D01*
G01X31456Y21946D01*
G01X31528Y21930D01*
G01X31611Y21909D01*
G01X31670Y21891D01*
G01X31733Y21866D01*
G01X31798Y21837D01*
G01X31863Y21804D01*
G01X31926Y21768D01*
G01X31986Y21732D01*
G01X32041Y21696D01*
G01X32087Y21661D01*
G01X32124Y21629D01*
G01X32149Y21601D01*
G01X32161Y21578D01*
G01X32157Y21562D01*
G01X32124Y21542D01*
G01X32057Y21512D01*
G01X31966Y21476D01*
G01X31862Y21438D01*
G01X31805Y21419D01*
G01X31747Y21403D01*
G01X31689Y21388D01*
G01X31630Y21376D01*
G01X31571Y21365D01*
G01X31512Y21356D01*
G01X31453Y21350D01*
G01X31395Y21346D01*
G01X31338Y21343D01*
G37*

%LPC*%
G36*
G01X31513Y21426D02*
G01X31549Y21413D01*
G01X31624Y21424D01*
G01X31703Y21444D01*
G01X31782Y21468D01*
G01X31858Y21495D01*
G01X31926Y21522D01*
G01X31984Y21549D01*
G01X32027Y21574D01*
G01X32053Y21595D01*
G01X32057Y21611D01*
G01X32028Y21641D01*
G01X31976Y21678D01*
G01X31909Y21719D01*
G01X31832Y21760D01*
G01X31753Y21797D01*
G01X31678Y21829D01*
G01X31614Y21850D01*
G01X31569Y21858D01*
G01X31514Y21856D01*
G01X31490Y21842D01*
G01X31494Y21808D01*
G01X31519Y21741D01*
G01X31537Y21688D01*
G01X31546Y21636D01*
G01X31546Y21590D01*
G01X31538Y21551D01*
G01X31510Y21470D01*
G01X31513Y21426D01*
G37*
G36*
G01X30983Y21448D02*
G01X31023Y21441D01*
G01X31044Y21460D01*
G01X31053Y21517D01*
G01X31055Y21624D01*
G01X31055Y21701D01*
G01X31052Y21764D01*
G01X31048Y21806D01*
G01X31044Y21822D01*
G01X31026Y21816D01*
G01X30984Y21799D01*
G01X30925Y21775D01*
G01X30855Y21745D01*
G01X30787Y21713D01*
G01X30730Y21683D01*
G01X30692Y21657D01*
G01X30679Y21640D01*
G01X30712Y21600D01*
G01X30792Y21543D01*
G01X30893Y21486D01*
G01X30983Y21448D01*
G37*

%LPD*%
G36*
G01X33965Y21358D02*
G01X33887Y21355D01*
G01X33809Y21356D01*
G01X33732Y21360D01*
G01X33657Y21368D01*
G01X33585Y21378D01*
G01X33516Y21391D01*
G01X33453Y21408D01*
G01X33396Y21428D01*
G01X33347Y21450D01*
G01X33287Y21479D01*
G01X33236Y21500D01*
G01X33198Y21511D01*
G01X33179Y21509D01*
G01X33173Y21507D01*
G01X33170Y21516D01*
G01X33172Y21534D01*
G01X33177Y21560D01*
G01X33189Y21581D01*
G01X33211Y21606D01*
G01X33244Y21633D01*
G01X33285Y21662D01*
G01X33333Y21692D01*
G01X33388Y21723D01*
G01X33448Y21754D01*
G01X33512Y21783D01*
G01X33579Y21811D01*
G01X33647Y21837D01*
G01X33715Y21861D01*
G01X33783Y21881D01*
G01X33835Y21893D01*
G01X33888Y21904D01*
G01X33942Y21913D01*
G01X33996Y21919D01*
G01X34051Y21923D01*
G01X34106Y21925D01*
G01X34159Y21924D01*
G01X34212Y21922D01*
G01X34264Y21917D01*
G01X34313Y21910D01*
G01X34361Y21900D01*
G01X34406Y21889D01*
G01X34471Y21866D01*
G01X34540Y21835D01*
G01X34607Y21800D01*
G01X34669Y21762D01*
G01X34722Y21724D01*
G01X34761Y21690D01*
G01X34784Y21660D01*
G01X34786Y21638D01*
G01X34771Y21623D01*
G01X34745Y21604D01*
G01X34708Y21582D01*
G01X34663Y21559D01*
G01X34612Y21535D01*
G01X34555Y21510D01*
G01X34494Y21486D01*
G01X34430Y21462D01*
G01X34367Y21440D01*
G01X34304Y21419D01*
G01X34243Y21402D01*
G01X34186Y21388D01*
G01X34116Y21374D01*
G01X34042Y21364D01*
G01X33965Y21358D01*
G37*

%LPC*%
G36*
G01X33648Y21408D02*
G01X33695Y21400D01*
G01X33719Y21403D01*
G01X33720Y21415D01*
G01X33715Y21440D01*
G01X33704Y21473D01*
G01X33689Y21511D01*
G01X33670Y21560D01*
G01X33664Y21605D01*
G01X33669Y21648D01*
G01X33687Y21696D01*
G01X33702Y21733D01*
G01X33708Y21760D01*
G01X33703Y21776D01*
G01X33685Y21781D01*
G01X33655Y21774D01*
G01X33608Y21757D01*
G01X33544Y21729D01*
G01X33462Y21689D01*
G01X33368Y21640D01*
G01X33314Y21602D01*
G01X33294Y21572D01*
G01X33304Y21545D01*
G01X33332Y21524D01*
G01X33382Y21499D01*
G01X33446Y21472D01*
G01X33516Y21447D01*
G01X33586Y21424D01*
G01X33648Y21408D01*
G37*
G36*
G01X34181Y21452D02*
G01X34209Y21447D01*
G01X34265Y21460D01*
G01X34317Y21478D01*
G01X34387Y21504D01*
G01X34464Y21535D01*
G01X34540Y21568D01*
G01X34633Y21611D01*
G01X34677Y21640D01*
G01X34679Y21662D01*
G01X34646Y21686D01*
G01X34602Y21708D01*
G01X34548Y21730D01*
G01X34487Y21753D01*
G01X34424Y21773D01*
G01X34360Y21791D01*
G01X34299Y21805D01*
G01X34246Y21816D01*
G01X34203Y21820D01*
G01X34161Y21819D01*
G01X34142Y21809D01*
G01X34143Y21786D01*
G01X34163Y21745D01*
G01X34177Y21706D01*
G01X34186Y21656D01*
G01X34188Y21602D01*
G01X34184Y21550D01*
G01X34176Y21484D01*
G01X34181Y21452D01*
G37*

%LPD*%
G36*
G01X32155Y21885D02*
G01X32122Y21871D01*
G01X32062Y21876D01*
G01X31969Y21899D01*
G01X31837Y21943D01*
G01X31797Y21956D01*
G01X31751Y21971D01*
G01X31702Y21984D01*
G01X31649Y21998D01*
G01X31595Y22012D01*
G01X31538Y22024D01*
G01X31481Y22037D01*
G01X31424Y22048D01*
G01X31367Y22059D01*
G01X31312Y22068D01*
G01X31259Y22076D01*
G01X31209Y22083D01*
G01X31110Y22095D01*
G01X31031Y22106D01*
G01X30970Y22117D01*
G01X30924Y22128D01*
G01X30892Y22140D01*
G01X30872Y22153D01*
G01X30861Y22168D01*
G01X30858Y22186D01*
G01X30863Y22222D01*
G01X30879Y22250D01*
G01X30908Y22269D01*
G01X30953Y22280D01*
G01X31017Y22284D01*
G01X31102Y22280D01*
G01X31209Y22269D01*
G01X31343Y22252D01*
G01X31399Y22243D01*
G01X31461Y22231D01*
G01X31525Y22216D01*
G01X31593Y22200D01*
G01X31660Y22182D01*
G01X31728Y22163D01*
G01X31795Y22143D01*
G01X31860Y22122D01*
G01X31921Y22102D01*
G01X31979Y22081D01*
G01X32030Y22060D01*
G01X32077Y22041D01*
G01X32115Y22022D01*
G01X32145Y22005D01*
G01X32166Y21990D01*
G01X32176Y21977D01*
G01X32180Y21954D01*
G01X32178Y21929D01*
G01X32169Y21905D01*
G01X32155Y21885D01*
G37*

%LPD*%
G36*
G01X33446Y21881D02*
G01X33402Y21877D01*
G01X33370Y21883D01*
G01X33349Y21897D01*
G01X33338Y21920D01*
G01X33334Y21952D01*
G01X33339Y21972D01*
G01X33351Y21991D01*
G01X33371Y22010D01*
G01X33399Y22030D01*
G01X33433Y22049D01*
G01X33474Y22069D01*
G01X33520Y22087D01*
G01X33572Y22106D01*
G01X33628Y22124D01*
G01X33689Y22142D01*
G01X33754Y22159D01*
G01X33821Y22175D01*
G01X33892Y22190D01*
G01X33965Y22205D01*
G01X34041Y22218D01*
G01X34117Y22231D01*
G01X34195Y22242D01*
G01X34272Y22252D01*
G01X34350Y22261D01*
G01X34427Y22268D01*
G01X34503Y22274D01*
G01X34578Y22277D01*
G01X34651Y22280D01*
G01X34721Y22280D01*
G01X34788Y22278D01*
G01X34852Y22275D01*
G01X34912Y22269D01*
G01X34967Y22262D01*
G01X35037Y22246D01*
G01X35081Y22227D01*
G01X35104Y22201D01*
G01X35111Y22165D01*
G01X35109Y22142D01*
G01X35103Y22125D01*
G01X35088Y22113D01*
G01X35061Y22105D01*
G01X35019Y22101D01*
G01X34959Y22100D01*
G01X34877Y22101D01*
G01X34770Y22105D01*
G01X34695Y22106D01*
G01X34622Y22107D01*
G01X34550Y22106D01*
G01X34478Y22103D01*
G01X34408Y22099D01*
G01X34339Y22092D01*
G01X34270Y22085D01*
G01X34202Y22076D01*
G01X34135Y22065D01*
G01X34067Y22053D01*
G01X34000Y22039D01*
G01X33933Y22024D01*
G01X33867Y22006D01*
G01X33800Y21987D01*
G01X33733Y21966D01*
G01X33576Y21914D01*
G01X33504Y21893D01*
G01X33446Y21881D01*
G37*

%LPD*%
G36*
G01X30393Y22047D02*
G01X30336Y22047D01*
G01X30291Y22050D01*
G01X30255Y22058D01*
G01X30231Y22070D01*
G01X30216Y22087D01*
G01X30212Y22108D01*
G01X30217Y22130D01*
G01X30234Y22150D01*
G01X30262Y22169D01*
G01X30301Y22186D01*
G01X30350Y22202D01*
G01X30411Y22216D01*
G01X30484Y22229D01*
G01X30567Y22239D01*
G01X30696Y22252D01*
G01X30761Y22250D01*
G01X30783Y22228D01*
G01X30780Y22179D01*
G01X30767Y22132D01*
G01X30732Y22102D01*
G01X30662Y22081D01*
G01X30542Y22062D01*
G01X30462Y22053D01*
G01X30393Y22047D01*
G37*

%LPD*%
G36*
G01X32552Y22694D02*
G01X32509Y22692D01*
G01X32466Y22694D01*
G01X32428Y22698D01*
G01X32409Y22705D01*
G01X32419Y22710D01*
G01X32453Y22713D01*
G01X32509Y22714D01*
G01X32565Y22713D01*
G01X32599Y22710D01*
G01X32608Y22705D01*
G01X32590Y22698D01*
G01X32552Y22694D01*
G37*

%LPD*%
G36*
G01X32163Y22876D02*
G01X32078Y22873D01*
G01X32011Y22875D01*
G01X31948Y22881D01*
G01X31896Y22892D01*
G01X31863Y22905D01*
G01X31842Y22921D01*
G01X31843Y22931D01*
G01X31868Y22936D01*
G01X31917Y22936D01*
G01X31967Y22932D01*
G01X32024Y22925D01*
G01X32082Y22915D01*
G01X32132Y22905D01*
G01X32186Y22889D01*
G01X32197Y22881D01*
G01X32163Y22876D01*
G37*

%LPD*%
G54D12*
G01X5346Y2776D02*
G01X5346Y454D01*
G01X14437Y454D01*
G01X14417Y2776D01*
G01X5346Y2776D01*
G01X6626Y6505D02*
G01X9346Y6505D01*
G01X9346Y11865D01*
G01X6596Y11865D01*
G01X6596Y6505D01*
G01X6576Y8285D02*
G01X9346Y8285D01*
G01X9346Y10205D01*
G01X6586Y10205D01*
G54D13*
G01X35416Y23235D02*
G01X41906Y23235D01*
G01X42936Y22205D01*
G01X42936Y21385D01*
G01X43346Y20975D01*
G01X55866Y20975D01*
G01X56756Y21865D01*
G01X56756Y22915D01*
G01X57106Y23265D01*
G01X57976Y23265D01*
G01X58526Y23815D01*
G01X58526Y25685D01*
G01X57976Y26235D01*
G01X35456Y26235D01*
G01X34856Y25635D01*
G54D10*
G01X59309Y-241D02*
G01X59461Y-241D01*
G01X59461Y-241D02*
G01X59766Y-241D01*
G01X59766Y-241D02*
G01X59766Y1028D01*
G01X59766Y2806D02*
G01X59766Y3416D01*
G01X58166Y4762D02*
G01X57759Y4762D01*
G01X54254Y4762D02*
G01X53848Y4762D01*
G01X52247Y3416D02*
G01X52247Y2806D01*
G01X52247Y1028D02*
G01X52247Y-241D01*
G01X52247Y-241D02*
G01X52552Y-241D01*
G01X52552Y-241D02*
G01X52705Y-241D01*
G01X58953Y-622D02*
G01X53060Y-622D01*
G01X58953Y-825D02*
G01X53060Y-825D01*
G01X59105Y-444D02*
G01X59105Y-469D01*
G01X59105Y-469D02*
G01X59105Y-673D01*
G01X52908Y-444D02*
G01X52908Y-469D01*
G01X52908Y-469D02*
G01X52908Y-673D01*
G01X59766Y-241D02*
G01X60020Y-673D01*
G01X60020Y-673D02*
G01X59766Y-825D01*
G01X59766Y-825D02*
G01X59486Y-368D01*
G01X52247Y-241D02*
G01X51993Y-673D01*
G01X51993Y-673D02*
G01X52247Y-825D01*
G01X52247Y-825D02*
G01X52527Y-393D01*
G54D12*
G01X59763Y13141D02*
G01X59763Y13665D01*
G01X49964Y13665D01*
G01X49964Y10642D01*
G01X59763Y10642D01*
G01X59763Y13141D01*
G54D10*
G01X15418Y28636D02*
G01X18617Y28636D01*
G01X18617Y29936D02*
G01X18617Y28636D01*
G01X18617Y29936D02*
G01X15418Y29936D01*
G01X15418Y28636D02*
G01X15418Y29936D01*
G01X9750Y16430D02*
G01X9750Y22330D01*
G01X15649Y22330D01*
G01X15649Y16430D01*
G01X9750Y16430D01*
G54D12*
G01X45028Y2781D02*
G01X43928Y2781D01*
G01X43928Y1181D01*
G01X45028Y1181D01*
G01X45827Y2781D02*
G01X46928Y2781D01*
G01X46928Y1781D01*
G01X46928Y1181D01*
G01X45827Y1181D01*
G01X45028Y4559D02*
G01X43928Y4559D01*
G01X43928Y2959D01*
G01X45028Y2959D01*
G01X45827Y4559D02*
G01X46928Y4559D01*
G01X46928Y3559D01*
G01X46928Y2959D01*
G01X45827Y2959D01*
G01X45836Y4725D02*
G01X46936Y4725D01*
G01X46936Y6325D01*
G01X45836Y6325D01*
G01X45036Y4725D02*
G01X43936Y4725D01*
G01X43936Y5725D01*
G01X43936Y6325D01*
G01X45036Y6325D01*
G01X33890Y4686D02*
G01X32790Y4686D01*
G01X32790Y3086D01*
G01X33890Y3086D01*
G01X34690Y4686D02*
G01X35790Y4686D01*
G01X35790Y3686D01*
G01X35790Y3086D01*
G01X34690Y3086D01*
G01X33890Y6464D02*
G01X32790Y6464D01*
G01X32790Y4864D01*
G01X33890Y4864D01*
G01X34690Y6464D02*
G01X35790Y6464D01*
G01X35790Y5464D01*
G01X35790Y4864D01*
G01X34690Y4864D01*
G01X34689Y1308D02*
G01X35789Y1308D01*
G01X35789Y2908D01*
G01X34689Y2908D01*
G01X33889Y1308D02*
G01X32789Y1308D01*
G01X32789Y2308D01*
G01X32789Y2908D01*
G01X33889Y2908D01*
G54D10*
G01X22987Y558D02*
G01X23368Y558D01*
G01X23368Y558D02*
G01X24765Y558D01*
G01X22987Y1879D02*
G01X23368Y1879D01*
G01X23368Y1879D02*
G01X24765Y1879D01*
G01X24376Y618D02*
G01X24376Y1839D01*
G54D12*
G01X45865Y10071D02*
G01X46965Y10071D01*
G01X46965Y11671D01*
G01X45865Y11671D01*
G01X45065Y10071D02*
G01X43965Y10071D01*
G01X43965Y11071D01*
G01X43965Y11671D01*
G01X45065Y11671D01*
G01X45865Y8293D02*
G01X46965Y8293D01*
G01X46965Y9893D01*
G01X45865Y9893D01*
G01X45065Y8293D02*
G01X43965Y8293D01*
G01X43965Y9293D01*
G01X43965Y9893D01*
G01X45065Y9893D01*
G01X53485Y18072D02*
G01X54585Y18072D01*
G01X54585Y19672D01*
G01X53485Y19672D01*
G01X52685Y18072D02*
G01X51585Y18072D01*
G01X51585Y19072D01*
G01X51585Y19672D01*
G01X52685Y19672D01*
G01X51834Y26962D02*
G01X52934Y26962D01*
G01X52934Y28562D01*
G01X51834Y28562D01*
G01X51034Y26962D02*
G01X49934Y26962D01*
G01X49934Y27962D01*
G01X49934Y28562D01*
G01X51034Y28562D01*
G01X55861Y19672D02*
G01X54761Y19672D01*
G01X54761Y18072D01*
G01X55861Y18072D01*
G01X56661Y19672D02*
G01X57761Y19672D01*
G01X57761Y18672D01*
G01X57761Y18072D01*
G01X56661Y18072D01*
G01X54210Y28562D02*
G01X53110Y28562D01*
G01X53110Y26962D01*
G01X54210Y26962D01*
G01X55010Y28562D02*
G01X56110Y28562D01*
G01X56110Y27562D01*
G01X56110Y26962D01*
G01X55010Y26962D01*
G01X45066Y13322D02*
G01X43966Y13322D01*
G01X43966Y11722D01*
G01X45066Y11722D01*
G01X45866Y13322D02*
G01X46966Y13322D01*
G01X46966Y12322D01*
G01X46966Y11722D01*
G01X45866Y11722D01*
G01X45955Y18148D02*
G01X44855Y18148D01*
G01X44855Y16548D01*
G01X45955Y16548D01*
G01X46755Y18148D02*
G01X47855Y18148D01*
G01X47855Y17148D01*
G01X47855Y16548D01*
G01X46755Y16548D01*
G01X25000Y23482D02*
G01X23900Y23482D01*
G01X23900Y21882D01*
G01X25000Y21882D01*
G01X25800Y23482D02*
G01X26900Y23482D01*
G01X26900Y22482D01*
G01X26900Y21882D01*
G01X25800Y21882D01*
G01X15328Y32315D02*
G01X15328Y31215D01*
G01X16929Y31215D01*
G01X16929Y32315D01*
G01X15328Y33115D02*
G01X15328Y34215D01*
G01X16328Y34215D01*
G01X16929Y34215D01*
G01X16929Y33115D01*
G01X17106Y32315D02*
G01X17106Y31215D01*
G01X18707Y31215D01*
G01X18707Y32315D01*
G01X17106Y33115D02*
G01X17106Y34215D01*
G01X18106Y34215D01*
G01X18707Y34215D01*
G01X18707Y33115D01*
G01X14359Y8303D02*
G01X13259Y8303D01*
G01X13259Y6703D01*
G01X14359Y6703D01*
G01X15159Y8303D02*
G01X16259Y8303D01*
G01X16259Y7303D01*
G01X16259Y6703D01*
G01X15159Y6703D01*
G01X1993Y17456D02*
G01X1993Y16356D01*
G01X3594Y16356D01*
G01X3594Y17456D01*
G01X1993Y18256D02*
G01X1993Y19356D01*
G01X2993Y19356D01*
G01X3594Y19356D01*
G01X3594Y18256D01*
G54D10*
G01X22275Y2616D02*
G01X22275Y7442D01*
G01X25425Y7442D01*
G01X25425Y2616D01*
G01X25425Y2616D02*
G01X24485Y2616D01*
G01X23215Y2616D02*
G01X22275Y2616D01*
G54D12*
G01X33255Y30848D02*
G01X32155Y30848D01*
G01X32155Y29248D01*
G01X33255Y29248D01*
G01X34055Y30848D02*
G01X35155Y30848D01*
G01X35155Y29848D01*
G01X35155Y29248D01*
G01X34055Y29248D01*
G01X33255Y34277D02*
G01X32155Y34277D01*
G01X32155Y32677D01*
G01X33255Y32677D01*
G01X34055Y34277D02*
G01X35155Y34277D01*
G01X35155Y33277D01*
G01X35155Y32677D01*
G01X34055Y32677D01*
G01X33255Y32499D02*
G01X32155Y32499D01*
G01X32155Y30899D01*
G01X33255Y30899D01*
G01X34055Y32499D02*
G01X35155Y32499D01*
G01X35155Y31499D01*
G01X35155Y30899D01*
G01X34055Y30899D01*
G54D10*
G01X25019Y26847D02*
G01X25400Y26847D01*
G01X25400Y26847D02*
G01X26797Y26847D01*
G01X25019Y28168D02*
G01X25400Y28168D01*
G01X25400Y28168D02*
G01X26797Y28168D01*
G01X26408Y26907D02*
G01X26408Y28128D01*
G01X24434Y29413D02*
G01X24434Y34239D01*
G01X27584Y34239D01*
G01X27584Y29413D01*
G01X27584Y29413D02*
G01X26644Y29413D01*
G01X25374Y29413D02*
G01X24434Y29413D01*
G54D12*
G01X33890Y11036D02*
G01X32790Y11036D01*
G01X32790Y9436D01*
G01X33890Y9436D01*
G01X34690Y11036D02*
G01X35790Y11036D01*
G01X35790Y10036D01*
G01X35790Y9436D01*
G01X34690Y9436D01*
G01X33890Y14592D02*
G01X32790Y14592D01*
G01X32790Y12992D01*
G01X33890Y12992D01*
G01X34690Y14592D02*
G01X35790Y14592D01*
G01X35790Y13592D01*
G01X35790Y12992D01*
G01X34690Y12992D01*
G01X33890Y12814D02*
G01X32790Y12814D01*
G01X32790Y11214D01*
G01X33890Y11214D01*
G01X34690Y12814D02*
G01X35790Y12814D01*
G01X35790Y11814D01*
G01X35790Y11214D01*
G01X34690Y11214D01*
G54D10*
G01X22987Y8813D02*
G01X23368Y8813D01*
G01X23368Y8813D02*
G01X24765Y8813D01*
G01X22987Y10134D02*
G01X23368Y10134D01*
G01X23368Y10134D02*
G01X24765Y10134D01*
G01X24376Y8873D02*
G01X24376Y10094D01*
G01X22275Y10871D02*
G01X22275Y15697D01*
G01X25425Y15697D01*
G01X25425Y10871D01*
G01X25425Y10871D02*
G01X24485Y10871D01*
G01X23215Y10871D02*
G01X22275Y10871D01*
G01X12954Y27762D02*
G01X12954Y32842D01*
G01X9144Y32842D01*
G01X7874Y31572D01*
G01X7874Y27762D01*
G01X7874Y27762D02*
G01X12954Y27762D01*
G54D12*
G01X3594Y21430D02*
G01X3594Y22531D01*
G01X1993Y22531D01*
G01X1993Y21430D01*
G01X3594Y20631D02*
G01X3594Y19531D01*
G01X2594Y19531D01*
G01X1993Y19531D01*
G01X1993Y20631D01*
G54D42*
G01X18749Y8183D02*
G01X18749Y13183D01*
G01X16548Y13183D01*
G01X16548Y8183D01*
G01X18749Y8183D01*
G54D45*
G01X10441Y2965D02*
G01X9296Y2965D01*
G01X10441Y2965D02*
G01X10441Y3456D01*
G01X10386Y3619D01*
G01X10332Y3674D01*
G01X10223Y3728D01*
G01X10114Y3728D01*
G01X10005Y3674D01*
G01X9950Y3619D01*
G01X9896Y3456D01*
G01X9896Y2965D01*
G01X9896Y3347D02*
G01X9296Y3728D01*
G01X10441Y4088D02*
G01X9296Y4852D01*
G01X10441Y4852D02*
G01X9296Y4088D01*
G01X12441Y3347D02*
G01X11296Y3347D01*
G01X12441Y2965D02*
G01X12441Y3728D01*
G01X12441Y4088D02*
G01X11296Y4852D01*
G01X12441Y4852D02*
G01X11296Y4088D01*
G01X14322Y2954D02*
G01X13176Y2954D01*
G01X14322Y2954D02*
G01X14322Y3336D01*
G01X14267Y3499D01*
G01X14158Y3608D01*
G01X14049Y3663D01*
G01X13886Y3718D01*
G01X13613Y3718D01*
G01X13449Y3663D01*
G01X13340Y3608D01*
G01X13231Y3499D01*
G01X13176Y3336D01*
G01X13176Y2954D01*
G01X14322Y4459D02*
G01X13176Y4459D01*
G01X14322Y4077D02*
G01X14322Y4841D01*
G01X14322Y5201D02*
G01X13176Y5201D01*
G01X14322Y5201D02*
G01X14322Y5692D01*
G01X14267Y5856D01*
G01X14213Y5910D01*
G01X14104Y5965D01*
G01X13995Y5965D01*
G01X13886Y5910D01*
G01X13831Y5856D01*
G01X13776Y5692D01*
G01X13776Y5201D01*
G01X13776Y5583D02*
G01X13176Y5965D01*
G01X8581Y2955D02*
G01X7436Y3391D01*
G01X8581Y3828D02*
G01X7436Y3391D01*
G01X8036Y4842D02*
G01X8145Y4733D01*
G01X8199Y4624D01*
G01X8199Y4460D01*
G01X8145Y4351D01*
G01X8036Y4242D01*
G01X7872Y4188D01*
G01X7763Y4188D01*
G01X7599Y4242D01*
G01X7490Y4351D01*
G01X7436Y4460D01*
G01X7436Y4624D01*
G01X7490Y4733D01*
G01X7599Y4842D01*
G01X8036Y5857D02*
G01X8145Y5748D01*
G01X8199Y5638D01*
G01X8199Y5475D01*
G01X8145Y5366D01*
G01X8036Y5257D01*
G01X7872Y5202D01*
G01X7763Y5202D01*
G01X7599Y5257D01*
G01X7490Y5366D01*
G01X7436Y5475D01*
G01X7436Y5638D01*
G01X7490Y5748D01*
G01X7599Y5857D01*
G01X6418Y3773D02*
G01X6527Y3718D01*
G01X6636Y3609D01*
G01X6691Y3500D01*
G01X6691Y3282D01*
G01X6636Y3173D01*
G01X6527Y3064D01*
G01X6418Y3009D01*
G01X6255Y2955D01*
G01X5982Y2955D01*
G01X5818Y3009D01*
G01X5709Y3064D01*
G01X5600Y3173D01*
G01X5546Y3282D01*
G01X5546Y3500D01*
G01X5600Y3609D01*
G01X5709Y3718D01*
G01X5818Y3773D01*
G01X5982Y3773D01*
G01X5982Y3500D02*
G01X5982Y3773D01*
G01X6691Y4133D02*
G01X5546Y4133D01*
G01X6691Y4133D02*
G01X5546Y4897D01*
G01X6691Y4897D02*
G01X5546Y4897D01*
G01X6691Y5257D02*
G01X5546Y5257D01*
G01X6691Y5257D02*
G01X6691Y5638D01*
G01X6636Y5802D01*
G01X6527Y5911D01*
G01X6418Y5966D01*
G01X6255Y6020D01*
G01X5982Y6020D01*
G01X5818Y5966D01*
G01X5709Y5911D01*
G01X5600Y5802D01*
G01X5546Y5638D01*
G01X5546Y5257D01*
G01X6418Y11665D02*
G01X5982Y10519D01*
G01X5546Y11665D02*
G01X5982Y10519D01*
G01X4531Y11119D02*
G01X4640Y11228D01*
G01X4749Y11283D01*
G01X4913Y11283D01*
G01X5022Y11228D01*
G01X5131Y11119D01*
G01X5186Y10956D01*
G01X5186Y10847D01*
G01X5131Y10683D01*
G01X5022Y10574D01*
G01X4913Y10519D01*
G01X4749Y10519D01*
G01X4640Y10574D01*
G01X4531Y10683D01*
G01X3517Y11119D02*
G01X3626Y11228D01*
G01X3735Y11283D01*
G01X3898Y11283D01*
G01X4007Y11228D01*
G01X4117Y11119D01*
G01X4171Y10956D01*
G01X4171Y10847D01*
G01X4117Y10683D01*
G01X4007Y10574D01*
G01X3898Y10519D01*
G01X3735Y10519D01*
G01X3626Y10574D01*
G01X3517Y10683D01*
G01X6306Y9799D02*
G01X6306Y8654D01*
G01X6306Y9799D02*
G01X5816Y9799D01*
G01X5652Y9745D01*
G01X5597Y9690D01*
G01X5543Y9581D01*
G01X5543Y9417D01*
G01X5597Y9308D01*
G01X5652Y9254D01*
G01X5816Y9199D01*
G01X6306Y9199D01*
G01X5183Y9799D02*
G01X4910Y8654D01*
G01X4637Y9799D02*
G01X4910Y8654D01*
G01X4637Y9799D02*
G01X4365Y8654D01*
G01X4092Y9799D02*
G01X4365Y8654D01*
G01X3732Y9799D02*
G01X3732Y8654D01*
G01X3732Y9799D02*
G01X3296Y8654D01*
G01X2859Y9799D02*
G01X3296Y8654D01*
G01X2859Y9799D02*
G01X2859Y8654D01*
G01X5574Y7742D02*
G01X5628Y7851D01*
G01X5737Y7960D01*
G01X5847Y8015D01*
G01X6065Y8015D01*
G01X6174Y7960D01*
G01X6283Y7851D01*
G01X6337Y7742D01*
G01X6392Y7578D01*
G01X6392Y7306D01*
G01X6337Y7142D01*
G01X6283Y7033D01*
G01X6174Y6924D01*
G01X6065Y6869D01*
G01X5847Y6869D01*
G01X5737Y6924D01*
G01X5628Y7033D01*
G01X5574Y7142D01*
G01X5574Y7306D01*
G01X5847Y7306D02*
G01X5574Y7306D01*
G01X5214Y8015D02*
G01X5214Y6869D01*
G01X5214Y8015D02*
G01X4450Y6869D01*
G01X4450Y8015D02*
G01X4450Y6869D01*
G01X4090Y8015D02*
G01X4090Y6869D01*
G01X4090Y8015D02*
G01X3708Y8015D01*
G01X3545Y7960D01*
G01X3436Y7851D01*
G01X3381Y7742D01*
G01X3326Y7578D01*
G01X3326Y7306D01*
G01X3381Y7142D01*
G01X3436Y7033D01*
G01X3545Y6924D01*
G01X3708Y6869D01*
G01X4090Y6869D01*
G01X56715Y12562D02*
G01X56770Y12671D01*
G01X56879Y12780D01*
G01X56988Y12835D01*
G01X57206Y12835D01*
G01X57315Y12780D01*
G01X57425Y12671D01*
G01X57479Y12562D01*
G01X57534Y12398D01*
G01X57534Y12126D01*
G01X57479Y11962D01*
G01X57425Y11853D01*
G01X57315Y11744D01*
G01X57206Y11689D01*
G01X56988Y11689D01*
G01X56879Y11744D01*
G01X56770Y11853D01*
G01X56715Y11962D01*
G01X56355Y12835D02*
G01X56355Y11689D01*
G01X55592Y12835D02*
G01X55592Y11689D01*
G01X56355Y12289D02*
G01X55592Y12289D01*
G01X55123Y12835D02*
G01X54523Y12835D01*
G01X54850Y12398D01*
G01X54686Y12398D01*
G01X54577Y12344D01*
G01X54523Y12289D01*
G01X54468Y12126D01*
G01X54468Y12017D01*
G01X54523Y11853D01*
G01X54632Y11744D01*
G01X54795Y11689D01*
G01X54959Y11689D01*
G01X55123Y11744D01*
G01X55177Y11798D01*
G01X55232Y11907D01*
G01X53563Y12835D02*
G01X54108Y12071D01*
G01X53290Y12071D01*
G01X53563Y12835D02*
G01X53563Y11689D01*
G01X52603Y12835D02*
G01X52766Y12780D01*
G01X52875Y12617D01*
G01X52930Y12344D01*
G01X52930Y12180D01*
G01X52875Y11907D01*
G01X52766Y11744D01*
G01X52603Y11689D01*
G01X52494Y11689D01*
G01X52330Y11744D01*
G01X52221Y11907D01*
G01X52166Y12180D01*
G01X52166Y12344D01*
G01X52221Y12617D01*
G01X52330Y12780D01*
G01X52494Y12835D01*
G01X52603Y12835D01*
G01X57617Y7915D02*
G01X57617Y7097D01*
G01X57563Y6933D01*
G01X57454Y6824D01*
G01X57290Y6769D01*
G01X57181Y6769D01*
G01X57017Y6824D01*
G01X56908Y6933D01*
G01X56854Y7097D01*
G01X56854Y7915D01*
G01X55730Y7751D02*
G01X55839Y7860D01*
G01X56003Y7915D01*
G01X56221Y7915D01*
G01X56385Y7860D01*
G01X56494Y7751D01*
G01X56494Y7642D01*
G01X56439Y7533D01*
G01X56385Y7478D01*
G01X56275Y7424D01*
G01X55948Y7315D01*
G01X55839Y7260D01*
G01X55785Y7206D01*
G01X55730Y7097D01*
G01X55730Y6933D01*
G01X55839Y6824D01*
G01X56003Y6769D01*
G01X56221Y6769D01*
G01X56385Y6824D01*
G01X56494Y6933D01*
G01X55370Y7915D02*
G01X55370Y6769D01*
G01X55370Y7915D02*
G01X54879Y7915D01*
G01X54715Y7860D01*
G01X54661Y7806D01*
G01X54606Y7697D01*
G01X54606Y7588D01*
G01X54661Y7478D01*
G01X54715Y7424D01*
G01X54879Y7369D01*
G01X55370Y7369D02*
G01X54879Y7369D01*
G01X54715Y7315D01*
G01X54661Y7260D01*
G01X54606Y7151D01*
G01X54606Y6988D01*
G01X54661Y6878D01*
G01X54715Y6824D01*
G01X54879Y6769D01*
G01X55370Y6769D01*
G01X14632Y19935D02*
G01X14032Y19935D01*
G01X14359Y19498D01*
G01X14196Y19498D01*
G01X14086Y19444D01*
G01X14032Y19389D01*
G01X13977Y19226D01*
G01X13977Y19117D01*
G01X14032Y18953D01*
G01X14141Y18844D01*
G01X14305Y18789D01*
G01X14468Y18789D01*
G01X14632Y18844D01*
G01X14686Y18898D01*
G01X14741Y19007D01*
G01X13563Y19662D02*
G01X13563Y19717D01*
G01X13508Y19826D01*
G01X13454Y19880D01*
G01X13345Y19935D01*
G01X13126Y19935D01*
G01X13017Y19880D01*
G01X12963Y19826D01*
G01X12908Y19717D01*
G01X12908Y19607D01*
G01X12963Y19498D01*
G01X13072Y19335D01*
G01X13617Y18789D01*
G01X12854Y18789D01*
G01X12221Y19935D02*
G01X12385Y19880D01*
G01X12439Y19771D01*
G01X12439Y19662D01*
G01X12385Y19553D01*
G01X12276Y19498D01*
G01X12057Y19444D01*
G01X11894Y19389D01*
G01X11785Y19280D01*
G01X11730Y19171D01*
G01X11730Y19007D01*
G01X11785Y18898D01*
G01X11839Y18844D01*
G01X12003Y18789D01*
G01X12221Y18789D01*
G01X12385Y18844D01*
G01X12439Y18898D01*
G01X12494Y19007D01*
G01X12494Y19171D01*
G01X12439Y19280D01*
G01X12330Y19389D01*
G01X12166Y19444D01*
G01X11948Y19498D01*
G01X11839Y19553D01*
G01X11785Y19662D01*
G01X11785Y19771D01*
G01X11839Y19880D01*
G01X12003Y19935D01*
G01X12221Y19935D01*
G01X11370Y19935D02*
G01X11370Y18789D01*
G01X11370Y19935D02*
G01X10879Y19935D01*
G01X10716Y19880D01*
G01X10661Y19826D01*
G01X10606Y19717D01*
G01X10606Y19553D01*
G01X10661Y19444D01*
G01X10716Y19389D01*
G01X10879Y19335D01*
G01X11370Y19335D01*
G54D46*
G01X57792Y25755D02*
G01X57792Y23846D01*
G01X57792Y25755D02*
G01X56610Y25755D01*
G01X57792Y24846D02*
G01X57065Y24846D01*
G01X57792Y23846D02*
G01X56610Y23846D01*
G01X56010Y25755D02*
G01X56010Y23846D01*
G01X56010Y23846D02*
G01X54919Y23846D01*
G01X54319Y25755D02*
G01X54319Y23846D01*
G01X54319Y25755D02*
G01X53137Y25755D01*
G01X54319Y24846D02*
G01X53592Y24846D01*
G01X54319Y23846D02*
G01X53137Y23846D01*
G01X51174Y25300D02*
G01X51265Y25482D01*
G01X51446Y25664D01*
G01X51628Y25755D01*
G01X51992Y25755D01*
G01X52174Y25664D01*
G01X52356Y25482D01*
G01X52446Y25300D01*
G01X52537Y25027D01*
G01X52537Y24573D01*
G01X52446Y24300D01*
G01X52356Y24118D01*
G01X52174Y23937D01*
G01X51992Y23846D01*
G01X51628Y23846D01*
G01X51446Y23937D01*
G01X51265Y24118D01*
G01X51174Y24300D01*
G01X49937Y25755D02*
G01X49937Y23846D01*
G01X50574Y25755D02*
G01X49301Y25755D01*
G01X48701Y25755D02*
G01X48701Y23846D01*
G01X48701Y25755D02*
G01X47883Y25755D01*
G01X47610Y25664D01*
G01X47519Y25573D01*
G01X47428Y25391D01*
G01X47428Y25209D01*
G01X47519Y25027D01*
G01X47610Y24937D01*
G01X47883Y24846D01*
G01X48701Y24846D01*
G01X48065Y24846D02*
G01X47428Y23846D01*
G01X46283Y25755D02*
G01X46465Y25664D01*
G01X46646Y25482D01*
G01X46737Y25300D01*
G01X46828Y25027D01*
G01X46828Y24573D01*
G01X46737Y24300D01*
G01X46646Y24118D01*
G01X46465Y23937D01*
G01X46283Y23846D01*
G01X45919Y23846D01*
G01X45737Y23937D01*
G01X45556Y24118D01*
G01X45465Y24300D01*
G01X45374Y24573D01*
G01X45374Y25027D01*
G01X45465Y25300D01*
G01X45556Y25482D01*
G01X45737Y25664D01*
G01X45919Y25755D01*
G01X46283Y25755D01*
G01X44774Y25755D02*
G01X44774Y23846D01*
G01X44774Y25755D02*
G01X43501Y23846D01*
G01X43501Y25755D02*
G01X43501Y23846D01*
G01X42356Y25755D02*
G01X42537Y25664D01*
G01X42719Y25482D01*
G01X42810Y25300D01*
G01X42901Y25027D01*
G01X42901Y24573D01*
G01X42810Y24300D01*
G01X42719Y24118D01*
G01X42537Y23937D01*
G01X42356Y23846D01*
G01X41992Y23846D01*
G01X41810Y23937D01*
G01X41628Y24118D01*
G01X41537Y24300D01*
G01X41446Y24573D01*
G01X41446Y25027D01*
G01X41537Y25300D01*
G01X41628Y25482D01*
G01X41810Y25664D01*
G01X41992Y25755D01*
G01X42356Y25755D01*
G01X40301Y25755D02*
G01X40483Y25664D01*
G01X40665Y25482D01*
G01X40756Y25300D01*
G01X40846Y25027D01*
G01X40846Y24573D01*
G01X40756Y24300D01*
G01X40665Y24118D01*
G01X40483Y23937D01*
G01X40301Y23846D01*
G01X39937Y23846D01*
G01X39756Y23937D01*
G01X39574Y24118D01*
G01X39483Y24300D01*
G01X39392Y24573D01*
G01X39392Y25027D01*
G01X39483Y25300D01*
G01X39574Y25482D01*
G01X39756Y25664D01*
G01X39937Y25755D01*
G01X40301Y25755D01*
G01X38792Y25755D02*
G01X38792Y23846D01*
G01X38792Y25755D02*
G01X37974Y25755D01*
G01X37701Y25664D01*
G01X37610Y25573D01*
G01X37519Y25391D01*
G01X37519Y25209D01*
G01X37610Y25027D01*
G01X37701Y24937D01*
G01X37974Y24846D01*
G01X38792Y24846D02*
G01X37974Y24846D01*
G01X37701Y24755D01*
G01X37610Y24664D01*
G01X37519Y24482D01*
G01X37519Y24209D01*
G01X37610Y24027D01*
G01X37701Y23937D01*
G01X37974Y23846D01*
G01X38792Y23846D01*
G01X35646Y25482D02*
G01X35828Y25664D01*
G01X36101Y25755D01*
G01X36465Y25755D01*
G01X36737Y25664D01*
G01X36919Y25482D01*
G01X36919Y25300D01*
G01X36828Y25118D01*
G01X36737Y25027D01*
G01X36556Y24937D01*
G01X36010Y24755D01*
G01X35828Y24664D01*
G01X35737Y24573D01*
G01X35646Y24391D01*
G01X35646Y24118D01*
G01X35828Y23937D01*
G01X36101Y23846D01*
G01X36465Y23846D01*
G01X36737Y23937D01*
G01X36919Y24118D01*
G54D14*
G01X55858Y23525D02*
G01X55858Y21616D01*
G01X55858Y23525D02*
G01X54676Y23525D01*
G01X55858Y22616D02*
G01X55131Y22616D01*
G01X55858Y21616D02*
G01X54676Y21616D01*
G01X52804Y23252D02*
G01X52985Y23434D01*
G01X53258Y23525D01*
G01X53622Y23525D01*
G01X53895Y23434D01*
G01X54076Y23252D01*
G01X54076Y23070D01*
G01X53985Y22888D01*
G01X53895Y22798D01*
G01X53713Y22707D01*
G01X53167Y22525D01*
G01X52985Y22434D01*
G01X52895Y22343D01*
G01X52804Y22161D01*
G01X52804Y21888D01*
G01X52985Y21707D01*
G01X53258Y21616D01*
G01X53622Y21616D01*
G01X53895Y21707D01*
G01X54076Y21888D01*
G01X50840Y23070D02*
G01X50931Y23252D01*
G01X51113Y23434D01*
G01X51295Y23525D01*
G01X51658Y23525D01*
G01X51840Y23434D01*
G01X52022Y23252D01*
G01X52113Y23070D01*
G01X52204Y22798D01*
G01X52204Y22343D01*
G01X52113Y22070D01*
G01X52022Y21888D01*
G01X51840Y21707D01*
G01X51658Y21616D01*
G01X51295Y21616D01*
G01X51113Y21707D01*
G01X50931Y21888D01*
G01X50840Y22070D01*
G01X48840Y23525D02*
G01X48113Y21616D01*
G01X47385Y23525D02*
G01X48113Y21616D01*
G01X46785Y23161D02*
G01X46604Y23252D01*
G01X46331Y23525D01*
G01X46331Y21616D01*
G01X45640Y22070D02*
G01X45731Y21979D01*
G01X45640Y21888D01*
G01X45549Y21979D01*
G01X45640Y22070D01*
G01X44404Y23525D02*
G01X44676Y23434D01*
G01X44858Y23161D01*
G01X44949Y22707D01*
G01X44949Y22434D01*
G01X44858Y21979D01*
G01X44676Y21707D01*
G01X44404Y21616D01*
G01X44222Y21616D01*
G01X43949Y21707D01*
G01X43767Y21979D01*
G01X43676Y22434D01*
G01X43676Y22707D01*
G01X43767Y23161D01*
G01X43949Y23434D01*
G01X44222Y23525D01*
G01X44404Y23525D01*
G54D43*
G01X20775Y29775D02*
G01X20048Y28683D01*
G01X20048Y29775D02*
G01X20775Y28683D01*
G01X19652Y29513D02*
G01X19652Y29566D01*
G01X19601Y29671D01*
G01X19548Y29721D01*
G01X19444Y29775D01*
G01X19238Y29775D01*
G01X19134Y29721D01*
G01X19081Y29671D01*
G01X19030Y29566D01*
G01X19030Y29462D01*
G01X19081Y29358D01*
G01X19185Y29203D01*
G01X19705Y28683D01*
G01X18976Y28683D01*
G01X49487Y2465D02*
G01X49487Y1375D01*
G01X49487Y2465D02*
G01X49019Y2465D01*
G01X48864Y2414D01*
G01X48811Y2363D01*
G01X48760Y2259D01*
G01X48760Y2155D01*
G01X48811Y2051D01*
G01X48864Y1997D01*
G01X49019Y1947D01*
G01X49487Y1947D01*
G01X49124Y1947D02*
G01X48760Y1375D01*
G01X48417Y2259D02*
G01X48313Y2310D01*
G01X48156Y2465D01*
G01X48156Y1375D01*
G01X47554Y2465D02*
G01X47709Y2414D01*
G01X47762Y2310D01*
G01X47762Y2206D01*
G01X47709Y2102D01*
G01X47607Y2051D01*
G01X47399Y1997D01*
G01X47241Y1947D01*
G01X47137Y1843D01*
G01X47086Y1738D01*
G01X47086Y1583D01*
G01X47137Y1479D01*
G01X47191Y1426D01*
G01X47346Y1375D01*
G01X47554Y1375D01*
G01X47709Y1426D01*
G01X47762Y1479D01*
G01X47813Y1583D01*
G01X47813Y1738D01*
G01X47762Y1843D01*
G01X47658Y1947D01*
G01X47503Y1997D01*
G01X47295Y2051D01*
G01X47191Y2102D01*
G01X47137Y2206D01*
G01X47137Y2310D01*
G01X47191Y2414D01*
G01X47346Y2465D01*
G01X47554Y2465D01*
G01X49466Y4394D02*
G01X49466Y3304D01*
G01X49466Y4394D02*
G01X48999Y4394D01*
G01X48844Y4343D01*
G01X48790Y4292D01*
G01X48740Y4188D01*
G01X48740Y4084D01*
G01X48790Y3980D01*
G01X48844Y3926D01*
G01X48999Y3876D01*
G01X49466Y3876D01*
G01X49103Y3876D02*
G01X48740Y3304D01*
G01X48397Y4188D02*
G01X48293Y4239D01*
G01X48135Y4394D01*
G01X48135Y3304D01*
G01X47117Y4031D02*
G01X47170Y3876D01*
G01X47274Y3771D01*
G01X47429Y3721D01*
G01X47482Y3721D01*
G01X47637Y3771D01*
G01X47741Y3876D01*
G01X47792Y4031D01*
G01X47792Y4084D01*
G01X47741Y4239D01*
G01X47637Y4343D01*
G01X47482Y4394D01*
G01X47429Y4394D01*
G01X47274Y4343D01*
G01X47170Y4239D01*
G01X47117Y4031D01*
G01X47117Y3771D01*
G01X47170Y3512D01*
G01X47274Y3355D01*
G01X47429Y3304D01*
G01X47533Y3304D01*
G01X47688Y3355D01*
G01X47741Y3459D01*
G01X48206Y5676D02*
G01X48259Y5780D01*
G01X48363Y5884D01*
G01X48465Y5935D01*
G01X48673Y5935D01*
G01X48777Y5884D01*
G01X48881Y5780D01*
G01X48935Y5676D01*
G01X48985Y5521D01*
G01X48985Y5262D01*
G01X48935Y5104D01*
G01X48881Y5000D01*
G01X48777Y4896D01*
G01X48673Y4845D01*
G01X48465Y4845D01*
G01X48363Y4896D01*
G01X48259Y5000D01*
G01X48206Y5104D01*
G01X47136Y5935D02*
G01X47654Y4845D01*
G01X47863Y5935D02*
G01X47136Y5935D01*
G01X37866Y4521D02*
G01X37866Y3431D01*
G01X37866Y4521D02*
G01X37399Y4521D01*
G01X37244Y4470D01*
G01X37190Y4419D01*
G01X37139Y4315D01*
G01X37139Y4211D01*
G01X37190Y4107D01*
G01X37244Y4053D01*
G01X37399Y4003D01*
G01X37866Y4003D01*
G01X37503Y4003D02*
G01X37139Y3431D01*
G01X36535Y4521D02*
G01X36692Y4470D01*
G01X36743Y4366D01*
G01X36743Y4262D01*
G01X36692Y4158D01*
G01X36588Y4107D01*
G01X36380Y4053D01*
G01X36225Y4003D01*
G01X36121Y3898D01*
G01X36068Y3794D01*
G01X36068Y3639D01*
G01X36121Y3535D01*
G01X36172Y3482D01*
G01X36329Y3431D01*
G01X36535Y3431D01*
G01X36692Y3482D01*
G01X36743Y3535D01*
G01X36797Y3639D01*
G01X36797Y3794D01*
G01X36743Y3898D01*
G01X36639Y4003D01*
G01X36484Y4053D01*
G01X36276Y4107D01*
G01X36172Y4158D01*
G01X36121Y4262D01*
G01X36121Y4366D01*
G01X36172Y4470D01*
G01X36329Y4521D01*
G01X36535Y4521D01*
G01X37813Y6299D02*
G01X37813Y5209D01*
G01X37813Y6299D02*
G01X37345Y6299D01*
G01X37190Y6248D01*
G01X37137Y6197D01*
G01X37086Y6093D01*
G01X37086Y5989D01*
G01X37137Y5885D01*
G01X37190Y5831D01*
G01X37345Y5781D01*
G01X37813Y5781D01*
G01X37449Y5781D02*
G01X37086Y5209D01*
G01X36068Y5936D02*
G01X36118Y5781D01*
G01X36222Y5676D01*
G01X36377Y5626D01*
G01X36431Y5626D01*
G01X36586Y5676D01*
G01X36690Y5781D01*
G01X36743Y5936D01*
G01X36743Y5989D01*
G01X36690Y6144D01*
G01X36586Y6248D01*
G01X36431Y6299D01*
G01X36377Y6299D01*
G01X36222Y6248D01*
G01X36118Y6144D01*
G01X36068Y5936D01*
G01X36068Y5676D01*
G01X36118Y5417D01*
G01X36222Y5260D01*
G01X36377Y5209D01*
G01X36482Y5209D01*
G01X36639Y5260D01*
G01X36690Y5364D01*
G01X37739Y2357D02*
G01X37792Y2461D01*
G01X37896Y2565D01*
G01X37998Y2616D01*
G01X38206Y2616D01*
G01X38310Y2565D01*
G01X38414Y2461D01*
G01X38468Y2357D01*
G01X38519Y2202D01*
G01X38519Y1943D01*
G01X38468Y1785D01*
G01X38414Y1681D01*
G01X38310Y1577D01*
G01X38206Y1526D01*
G01X37998Y1526D01*
G01X37896Y1577D01*
G01X37792Y1681D01*
G01X37739Y1785D01*
G01X37396Y2410D02*
G01X37292Y2461D01*
G01X37137Y2616D01*
G01X37137Y1526D01*
G01X36690Y2616D02*
G01X36118Y2616D01*
G01X36431Y2202D01*
G01X36273Y2202D01*
G01X36169Y2148D01*
G01X36118Y2098D01*
G01X36067Y1943D01*
G01X36067Y1838D01*
G01X36118Y1681D01*
G01X36222Y1577D01*
G01X36377Y1526D01*
G01X36535Y1526D01*
G01X36690Y1577D01*
G01X36741Y1630D01*
G01X36794Y1734D01*
G01X27706Y1727D02*
G01X27706Y637D01*
G01X27706Y1727D02*
G01X27343Y1727D01*
G01X27185Y1676D01*
G01X27084Y1572D01*
G01X27030Y1468D01*
G01X26979Y1313D01*
G01X26979Y1054D01*
G01X27030Y896D01*
G01X27084Y792D01*
G01X27185Y688D01*
G01X27343Y637D01*
G01X27706Y637D01*
G01X26583Y1468D02*
G01X26583Y1521D01*
G01X26532Y1625D01*
G01X26479Y1676D01*
G01X26375Y1727D01*
G01X26169Y1727D01*
G01X26065Y1676D01*
G01X26012Y1625D01*
G01X25961Y1521D01*
G01X25961Y1417D01*
G01X26012Y1313D01*
G01X26116Y1155D01*
G01X26637Y637D01*
G01X25908Y637D01*
G01X43677Y11445D02*
G01X43677Y10355D01*
G01X43677Y11445D02*
G01X43209Y11445D01*
G01X43054Y11394D01*
G01X43001Y11343D01*
G01X42950Y11239D01*
G01X42950Y11135D01*
G01X43001Y11031D01*
G01X43054Y10977D01*
G01X43209Y10927D01*
G01X43677Y10927D01*
G01X43314Y10927D02*
G01X42950Y10355D01*
G01X42607Y11239D02*
G01X42503Y11290D01*
G01X42346Y11445D01*
G01X42346Y10355D01*
G01X41952Y11186D02*
G01X41952Y11239D01*
G01X41899Y11343D01*
G01X41848Y11394D01*
G01X41744Y11445D01*
G01X41536Y11445D01*
G01X41431Y11394D01*
G01X41381Y11343D01*
G01X41327Y11239D01*
G01X41327Y11135D01*
G01X41381Y11031D01*
G01X41485Y10873D01*
G01X42003Y10355D01*
G01X41276Y10355D01*
G01X43675Y9601D02*
G01X43675Y8511D01*
G01X43675Y9601D02*
G01X43207Y9601D01*
G01X43053Y9550D01*
G01X42999Y9499D01*
G01X42948Y9395D01*
G01X42948Y9291D01*
G01X42999Y9187D01*
G01X43053Y9133D01*
G01X43207Y9083D01*
G01X43675Y9083D01*
G01X43312Y9083D02*
G01X42948Y8511D01*
G01X42605Y9395D02*
G01X42501Y9446D01*
G01X42344Y9601D01*
G01X42344Y8511D01*
G01X41897Y9601D02*
G01X41325Y9601D01*
G01X41638Y9187D01*
G01X41483Y9187D01*
G01X41379Y9133D01*
G01X41325Y9083D01*
G01X41275Y8928D01*
G01X41275Y8823D01*
G01X41325Y8666D01*
G01X41429Y8562D01*
G01X41587Y8511D01*
G01X41742Y8511D01*
G01X41897Y8562D01*
G01X41950Y8615D01*
G01X42001Y8719D01*
G01X51247Y19375D02*
G01X51247Y18285D01*
G01X51247Y19375D02*
G01X50780Y19375D01*
G01X50625Y19324D01*
G01X50572Y19273D01*
G01X50521Y19169D01*
G01X50521Y19065D01*
G01X50572Y18961D01*
G01X50625Y18907D01*
G01X50780Y18857D01*
G01X51247Y18857D01*
G01X50884Y18857D02*
G01X50521Y18285D01*
G01X50178Y19169D02*
G01X50074Y19220D01*
G01X49916Y19375D01*
G01X49916Y18285D01*
G01X49055Y19375D02*
G01X49574Y18648D01*
G01X48796Y18648D01*
G01X49055Y19375D02*
G01X49055Y18285D01*
G01X49644Y28270D02*
G01X49644Y27180D01*
G01X49644Y28270D02*
G01X49176Y28270D01*
G01X49022Y28219D01*
G01X48968Y28168D01*
G01X48917Y28064D01*
G01X48917Y27960D01*
G01X48968Y27856D01*
G01X49022Y27802D01*
G01X49176Y27752D01*
G01X49644Y27752D01*
G01X49281Y27752D02*
G01X48917Y27180D01*
G01X48574Y28064D02*
G01X48470Y28115D01*
G01X48313Y28270D01*
G01X48313Y27180D01*
G01X47348Y28270D02*
G01X47866Y28270D01*
G01X47919Y27802D01*
G01X47866Y27856D01*
G01X47711Y27906D01*
G01X47556Y27906D01*
G01X47398Y27856D01*
G01X47294Y27752D01*
G01X47244Y27597D01*
G01X47244Y27492D01*
G01X47294Y27335D01*
G01X47398Y27231D01*
G01X47556Y27180D01*
G01X47711Y27180D01*
G01X47866Y27231D01*
G01X47919Y27284D01*
G01X47970Y27388D01*
G01X60316Y19395D02*
G01X60316Y18305D01*
G01X60316Y19395D02*
G01X59849Y19395D01*
G01X59694Y19344D01*
G01X59640Y19293D01*
G01X59589Y19189D01*
G01X59589Y19085D01*
G01X59640Y18981D01*
G01X59694Y18927D01*
G01X59849Y18877D01*
G01X60316Y18877D01*
G01X59953Y18877D02*
G01X59589Y18305D01*
G01X59247Y19189D02*
G01X59142Y19240D01*
G01X58985Y19395D01*
G01X58985Y18305D01*
G01X58020Y19240D02*
G01X58071Y19344D01*
G01X58228Y19395D01*
G01X58332Y19395D01*
G01X58487Y19344D01*
G01X58591Y19189D01*
G01X58642Y18927D01*
G01X58642Y18668D01*
G01X58591Y18460D01*
G01X58487Y18356D01*
G01X58332Y18305D01*
G01X58279Y18305D01*
G01X58124Y18356D01*
G01X58020Y18460D01*
G01X57966Y18618D01*
G01X57966Y18668D01*
G01X58020Y18823D01*
G01X58124Y18927D01*
G01X58279Y18981D01*
G01X58332Y18981D01*
G01X58487Y18927D01*
G01X58591Y18823D01*
G01X58642Y18668D01*
G01X58788Y28270D02*
G01X58788Y27180D01*
G01X58788Y28270D02*
G01X58320Y28270D01*
G01X58165Y28219D01*
G01X58112Y28168D01*
G01X58061Y28064D01*
G01X58061Y27960D01*
G01X58112Y27856D01*
G01X58165Y27802D01*
G01X58320Y27752D01*
G01X58788Y27752D01*
G01X58425Y27752D02*
G01X58061Y27180D01*
G01X57718Y28064D02*
G01X57614Y28115D01*
G01X57457Y28270D01*
G01X57457Y27180D01*
G01X56387Y28270D02*
G01X56908Y27180D01*
G01X57114Y28270D02*
G01X56387Y28270D01*
G01X43724Y13095D02*
G01X43724Y12005D01*
G01X43724Y13095D02*
G01X43257Y13095D01*
G01X43102Y13044D01*
G01X43048Y12993D01*
G01X42998Y12889D01*
G01X42998Y12785D01*
G01X43048Y12681D01*
G01X43102Y12627D01*
G01X43257Y12577D01*
G01X43724Y12577D01*
G01X43361Y12577D02*
G01X42998Y12005D01*
G01X42601Y12836D02*
G01X42601Y12889D01*
G01X42551Y12993D01*
G01X42497Y13044D01*
G01X42393Y13095D01*
G01X42187Y13095D01*
G01X42083Y13044D01*
G01X42030Y12993D01*
G01X41979Y12889D01*
G01X41979Y12785D01*
G01X42030Y12681D01*
G01X42134Y12523D01*
G01X42655Y12005D01*
G01X41926Y12005D01*
G01X41273Y13095D02*
G01X41428Y13044D01*
G01X41532Y12889D01*
G01X41583Y12627D01*
G01X41583Y12473D01*
G01X41532Y12213D01*
G01X41428Y12056D01*
G01X41273Y12005D01*
G01X41169Y12005D01*
G01X41011Y12056D01*
G01X40907Y12213D01*
G01X40856Y12473D01*
G01X40856Y12627D01*
G01X40907Y12889D01*
G01X41011Y13044D01*
G01X41169Y13095D01*
G01X41273Y13095D01*
G01X44564Y17983D02*
G01X44564Y16893D01*
G01X44564Y17983D02*
G01X44096Y17983D01*
G01X43941Y17932D01*
G01X43888Y17881D01*
G01X43837Y17777D01*
G01X43837Y17673D01*
G01X43888Y17569D01*
G01X43941Y17515D01*
G01X44096Y17465D01*
G01X44564Y17465D01*
G01X44201Y17465D02*
G01X43837Y16893D01*
G01X43441Y17724D02*
G01X43441Y17777D01*
G01X43390Y17881D01*
G01X43337Y17932D01*
G01X43233Y17983D01*
G01X43027Y17983D01*
G01X42923Y17932D01*
G01X42870Y17881D01*
G01X42819Y17777D01*
G01X42819Y17673D01*
G01X42870Y17569D01*
G01X42974Y17411D01*
G01X43494Y16893D01*
G01X42765Y16893D01*
G01X42423Y17777D02*
G01X42318Y17828D01*
G01X42163Y17983D01*
G01X42163Y16893D01*
G01X26754Y24845D02*
G01X26754Y23755D01*
G01X26754Y24845D02*
G01X26287Y24845D01*
G01X26132Y24794D01*
G01X26078Y24743D01*
G01X26028Y24639D01*
G01X26028Y24535D01*
G01X26078Y24431D01*
G01X26132Y24377D01*
G01X26287Y24327D01*
G01X26754Y24327D01*
G01X26391Y24327D02*
G01X26028Y23755D01*
G01X25631Y24586D02*
G01X25631Y24639D01*
G01X25581Y24743D01*
G01X25527Y24794D01*
G01X25423Y24845D01*
G01X25217Y24845D01*
G01X25113Y24794D01*
G01X25060Y24743D01*
G01X25009Y24639D01*
G01X25009Y24535D01*
G01X25060Y24431D01*
G01X25164Y24273D01*
G01X25685Y23755D01*
G01X24956Y23755D01*
G01X24562Y24586D02*
G01X24562Y24639D01*
G01X24509Y24743D01*
G01X24458Y24794D01*
G01X24354Y24845D01*
G01X24146Y24845D01*
G01X24041Y24794D01*
G01X23991Y24743D01*
G01X23937Y24639D01*
G01X23937Y24535D01*
G01X23991Y24431D01*
G01X24095Y24273D01*
G01X24613Y23755D01*
G01X23886Y23755D01*
G01X14196Y33025D02*
G01X14091Y33078D01*
G01X13987Y33182D01*
G01X13936Y33284D01*
G01X13936Y33492D01*
G01X13987Y33596D01*
G01X14091Y33701D01*
G01X14196Y33754D01*
G01X14350Y33805D01*
G01X14610Y33805D01*
G01X14767Y33754D01*
G01X14871Y33701D01*
G01X14975Y33596D01*
G01X15026Y33492D01*
G01X15026Y33284D01*
G01X14975Y33182D01*
G01X14871Y33078D01*
G01X14767Y33025D01*
G01X14142Y32682D02*
G01X14091Y32578D01*
G01X13936Y32423D01*
G01X15026Y32423D01*
G01X13936Y31354D02*
G01X15026Y31872D01*
G01X13936Y32080D02*
G01X13936Y31354D01*
G01X19235Y32809D02*
G01X19131Y32862D01*
G01X19027Y32966D01*
G01X18976Y33068D01*
G01X18976Y33276D01*
G01X19027Y33380D01*
G01X19131Y33484D01*
G01X19235Y33538D01*
G01X19390Y33588D01*
G01X19649Y33588D01*
G01X19806Y33538D01*
G01X19911Y33484D01*
G01X20015Y33380D01*
G01X20066Y33276D01*
G01X20066Y33068D01*
G01X20015Y32966D01*
G01X19911Y32862D01*
G01X19806Y32809D01*
G01X19182Y32466D02*
G01X19131Y32362D01*
G01X18976Y32207D01*
G01X20066Y32207D01*
G01X12126Y7826D02*
G01X12179Y7930D01*
G01X12283Y8034D01*
G01X12385Y8085D01*
G01X12593Y8085D01*
G01X12697Y8034D01*
G01X12801Y7930D01*
G01X12855Y7826D01*
G01X12906Y7671D01*
G01X12906Y7412D01*
G01X12855Y7254D01*
G01X12801Y7150D01*
G01X12697Y7046D01*
G01X12593Y6995D01*
G01X12385Y6995D01*
G01X12283Y7046D01*
G01X12179Y7150D01*
G01X12126Y7254D01*
G01X11732Y7826D02*
G01X11732Y7879D01*
G01X11679Y7983D01*
G01X11628Y8034D01*
G01X11524Y8085D01*
G01X11316Y8085D01*
G01X11211Y8034D01*
G01X11161Y7983D01*
G01X11107Y7879D01*
G01X11107Y7775D01*
G01X11161Y7671D01*
G01X11265Y7513D01*
G01X11783Y6995D01*
G01X11056Y6995D01*
G01X2545Y15298D02*
G01X2440Y15351D01*
G01X2336Y15455D01*
G01X2285Y15557D01*
G01X2285Y15765D01*
G01X2336Y15869D01*
G01X2440Y15974D01*
G01X2545Y16027D01*
G01X2699Y16078D01*
G01X2959Y16078D01*
G01X3116Y16027D01*
G01X3220Y15974D01*
G01X3324Y15869D01*
G01X3375Y15765D01*
G01X3375Y15557D01*
G01X3324Y15455D01*
G01X3220Y15351D01*
G01X3116Y15298D01*
G01X2440Y14333D02*
G01X2336Y14384D01*
G01X2285Y14541D01*
G01X2285Y14643D01*
G01X2336Y14800D01*
G01X2491Y14904D01*
G01X2753Y14955D01*
G01X3012Y14955D01*
G01X3220Y14904D01*
G01X3324Y14800D01*
G01X3375Y14643D01*
G01X3375Y14592D01*
G01X3324Y14437D01*
G01X3220Y14333D01*
G01X3063Y14279D01*
G01X3012Y14279D01*
G01X2857Y14333D01*
G01X2753Y14437D01*
G01X2699Y14592D01*
G01X2699Y14643D01*
G01X2753Y14800D01*
G01X2857Y14904D01*
G01X3012Y14955D01*
G01X24675Y5585D02*
G01X24675Y4808D01*
G01X24624Y4650D01*
G01X24520Y4546D01*
G01X24362Y4495D01*
G01X24258Y4495D01*
G01X24103Y4546D01*
G01X23999Y4650D01*
G01X23948Y4808D01*
G01X23948Y5585D01*
G01X22876Y5585D02*
G01X23397Y4495D01*
G01X23605Y5585D02*
G01X22876Y5585D01*
G01X37071Y30585D02*
G01X37071Y29495D01*
G01X37071Y30585D02*
G01X36604Y30585D01*
G01X36449Y30534D01*
G01X36396Y30483D01*
G01X36345Y30379D01*
G01X36345Y30275D01*
G01X36396Y30171D01*
G01X36449Y30117D01*
G01X36604Y30067D01*
G01X37071Y30067D01*
G01X36708Y30067D02*
G01X36345Y29495D01*
G01X35377Y30430D02*
G01X35431Y30534D01*
G01X35586Y30585D01*
G01X35690Y30585D01*
G01X35845Y30534D01*
G01X35949Y30379D01*
G01X36002Y30117D01*
G01X36002Y29858D01*
G01X35949Y29650D01*
G01X35845Y29546D01*
G01X35690Y29495D01*
G01X35636Y29495D01*
G01X35481Y29546D01*
G01X35377Y29650D01*
G01X35326Y29808D01*
G01X35326Y29858D01*
G01X35377Y30013D01*
G01X35481Y30117D01*
G01X35636Y30171D01*
G01X35690Y30171D01*
G01X35845Y30117D01*
G01X35949Y30013D01*
G01X36002Y29858D01*
G01X37104Y33985D02*
G01X37104Y32895D01*
G01X37104Y33985D02*
G01X36637Y33985D01*
G01X36482Y33934D01*
G01X36428Y33883D01*
G01X36377Y33779D01*
G01X36377Y33675D01*
G01X36428Y33571D01*
G01X36482Y33517D01*
G01X36637Y33467D01*
G01X37104Y33467D01*
G01X36741Y33467D02*
G01X36377Y32895D01*
G01X35306Y33985D02*
G01X35826Y32895D01*
G01X36035Y33985D02*
G01X35306Y33985D01*
G01X36426Y31976D02*
G01X36479Y32080D01*
G01X36583Y32184D01*
G01X36685Y32235D01*
G01X36893Y32235D01*
G01X36997Y32184D01*
G01X37101Y32080D01*
G01X37155Y31976D01*
G01X37205Y31821D01*
G01X37205Y31562D01*
G01X37155Y31404D01*
G01X37101Y31300D01*
G01X36997Y31196D01*
G01X36893Y31145D01*
G01X36685Y31145D01*
G01X36583Y31196D01*
G01X36479Y31300D01*
G01X36426Y31404D01*
G01X35979Y32235D02*
G01X35407Y32235D01*
G01X35720Y31821D01*
G01X35565Y31821D01*
G01X35461Y31767D01*
G01X35407Y31717D01*
G01X35356Y31562D01*
G01X35356Y31458D01*
G01X35407Y31300D01*
G01X35511Y31196D01*
G01X35669Y31145D01*
G01X35824Y31145D01*
G01X35979Y31196D01*
G01X36032Y31249D01*
G01X36083Y31353D01*
G01X29397Y28016D02*
G01X29397Y26926D01*
G01X29397Y28016D02*
G01X29034Y28016D01*
G01X28877Y27965D01*
G01X28775Y27861D01*
G01X28722Y27757D01*
G01X28671Y27602D01*
G01X28671Y27343D01*
G01X28722Y27185D01*
G01X28775Y27081D01*
G01X28877Y26977D01*
G01X29034Y26926D01*
G01X29397Y26926D01*
G01X28328Y27810D02*
G01X28224Y27861D01*
G01X28066Y28016D01*
G01X28066Y26926D01*
G01X26627Y32475D02*
G01X26627Y31697D01*
G01X26577Y31540D01*
G01X26472Y31436D01*
G01X26315Y31385D01*
G01X26211Y31385D01*
G01X26056Y31436D01*
G01X25952Y31540D01*
G01X25901Y31697D01*
G01X25901Y32475D01*
G01X25558Y32269D02*
G01X25454Y32320D01*
G01X25296Y32475D01*
G01X25296Y31385D01*
G01X38497Y10665D02*
G01X38497Y9575D01*
G01X38497Y10665D02*
G01X38029Y10665D01*
G01X37874Y10614D01*
G01X37821Y10563D01*
G01X37770Y10459D01*
G01X37770Y10355D01*
G01X37821Y10251D01*
G01X37874Y10197D01*
G01X38029Y10147D01*
G01X38497Y10147D01*
G01X38133Y10147D02*
G01X37770Y9575D01*
G01X37427Y10459D02*
G01X37323Y10510D01*
G01X37166Y10665D01*
G01X37166Y9575D01*
G01X36513Y10665D02*
G01X36668Y10614D01*
G01X36772Y10459D01*
G01X36823Y10197D01*
G01X36823Y10043D01*
G01X36772Y9783D01*
G01X36668Y9626D01*
G01X36513Y9575D01*
G01X36409Y9575D01*
G01X36251Y9626D01*
G01X36147Y9783D01*
G01X36096Y10043D01*
G01X36096Y10197D01*
G01X36147Y10459D01*
G01X36251Y10614D01*
G01X36409Y10665D01*
G01X36513Y10665D01*
G01X38129Y14335D02*
G01X38129Y13245D01*
G01X38129Y14335D02*
G01X37662Y14335D01*
G01X37507Y14284D01*
G01X37454Y14233D01*
G01X37403Y14129D01*
G01X37403Y14025D01*
G01X37454Y13921D01*
G01X37507Y13867D01*
G01X37662Y13817D01*
G01X38129Y13817D01*
G01X37766Y13817D02*
G01X37403Y13245D01*
G01X37060Y14129D02*
G01X36956Y14180D01*
G01X36798Y14335D01*
G01X36798Y13245D01*
G01X36455Y14129D02*
G01X36351Y14180D01*
G01X36196Y14335D01*
G01X36196Y13245D01*
G01X37370Y12176D02*
G01X37424Y12280D01*
G01X37528Y12384D01*
G01X37629Y12435D01*
G01X37838Y12435D01*
G01X37942Y12384D01*
G01X38046Y12280D01*
G01X38099Y12176D01*
G01X38150Y12021D01*
G01X38150Y11762D01*
G01X38099Y11604D01*
G01X38046Y11500D01*
G01X37942Y11396D01*
G01X37838Y11345D01*
G01X37629Y11345D01*
G01X37528Y11396D01*
G01X37424Y11500D01*
G01X37370Y11604D01*
G01X37028Y12229D02*
G01X36923Y12280D01*
G01X36768Y12435D01*
G01X36768Y11345D01*
G01X36426Y12229D02*
G01X36321Y12280D01*
G01X36166Y12435D01*
G01X36166Y11345D01*
G01X27575Y9915D02*
G01X27575Y8825D01*
G01X27575Y9915D02*
G01X27212Y9915D01*
G01X27054Y9864D01*
G01X26952Y9760D01*
G01X26899Y9656D01*
G01X26848Y9501D01*
G01X26848Y9242D01*
G01X26899Y9084D01*
G01X26952Y8980D01*
G01X27054Y8876D01*
G01X27212Y8825D01*
G01X27575Y8825D01*
G01X26401Y9915D02*
G01X25830Y9915D01*
G01X26140Y9501D01*
G01X25985Y9501D01*
G01X25881Y9447D01*
G01X25830Y9397D01*
G01X25776Y9242D01*
G01X25776Y9138D01*
G01X25830Y8980D01*
G01X25934Y8876D01*
G01X26089Y8825D01*
G01X26244Y8825D01*
G01X26401Y8876D01*
G01X26452Y8929D01*
G01X26505Y9033D01*
G01X24607Y13921D02*
G01X24607Y13144D01*
G01X24557Y12987D01*
G01X24452Y12882D01*
G01X24295Y12832D01*
G01X24191Y12832D01*
G01X24036Y12882D01*
G01X23932Y12987D01*
G01X23881Y13144D01*
G01X23881Y13921D01*
G01X23017Y13921D02*
G01X23538Y13195D01*
G01X22758Y13195D01*
G01X23017Y13921D02*
G01X23017Y12832D01*
G54D47*
G01X9716Y32235D02*
G01X11169Y32235D01*
G01X9716Y32235D02*
G01X9716Y31612D01*
G01X9785Y31404D01*
G01X9854Y31333D01*
G01X9993Y31264D01*
G01X10130Y31264D01*
G01X10270Y31333D01*
G01X10339Y31404D01*
G01X10407Y31612D01*
G01X10407Y32235D02*
G01X10407Y31612D01*
G01X10478Y31404D01*
G01X10547Y31333D01*
G01X10687Y31264D01*
G01X10892Y31264D01*
G01X11032Y31333D01*
G01X11101Y31404D01*
G01X11169Y31612D01*
G01X11169Y32235D01*
G01X9716Y30807D02*
G01X10755Y30807D01*
G01X10964Y30739D01*
G01X11101Y30599D01*
G01X11169Y30393D01*
G01X11169Y30254D01*
G01X11101Y30045D01*
G01X10964Y29908D01*
G01X10755Y29837D01*
G01X9716Y29837D01*
G01X9716Y28412D02*
G01X11169Y29380D01*
G01X9716Y29380D02*
G01X9716Y28412D01*
G01X11169Y29380D02*
G01X11169Y28412D01*
G54D43*
G01X2286Y24205D02*
G01X3376Y24205D01*
G01X2286Y24205D02*
G01X2286Y23737D01*
G01X2337Y23582D01*
G01X2388Y23529D01*
G01X2492Y23478D01*
G01X2596Y23478D01*
G01X2700Y23529D01*
G01X2754Y23582D01*
G01X2805Y23737D01*
G01X2805Y24205D01*
G01X2805Y23841D02*
G01X3376Y23478D01*
G01X2492Y23135D02*
G01X2441Y23031D01*
G01X2286Y22874D01*
G01X3376Y22874D01*
G01X15258Y11445D02*
G01X15154Y11498D01*
G01X15050Y11602D01*
G01X14996Y11704D01*
G01X14996Y11912D01*
G01X15050Y12017D01*
G01X15154Y12121D01*
G01X15258Y12174D01*
G01X15413Y12225D01*
G01X15672Y12225D01*
G01X15830Y12174D01*
G01X15934Y12121D01*
G01X16038Y12017D01*
G01X16089Y11912D01*
G01X16089Y11704D01*
G01X16038Y11602D01*
G01X15934Y11498D01*
G01X15830Y11445D01*
G01X15258Y11051D02*
G01X15205Y11051D01*
G01X15101Y10998D01*
G01X15050Y10947D01*
G01X14996Y10843D01*
G01X14996Y10635D01*
G01X15050Y10531D01*
G01X15101Y10480D01*
G01X15205Y10426D01*
G01X15309Y10426D01*
G01X15413Y10480D01*
G01X15568Y10584D01*
G01X16089Y11102D01*
G01X16089Y10376D01*
G01X15205Y10033D02*
G01X15154Y9929D01*
G01X14996Y9774D01*
G01X16089Y9774D01*
G54D10*
G75*
G01X59307Y-232D02*
G03X59107Y-432I0J-200D01*
G01*
G75*
G01X59107Y-472D02*
G02X58957Y-622I-150J0D01*
G01*
G75*
G01X59107Y-682D02*
G02X58957Y-832I-150J0D01*
G01*
G75*
G01X53057Y-832D02*
G02X52907Y-682I0J150D01*
G01*
G75*
G01X53057Y-622D02*
G02X52907Y-472I0J150D01*
G01*
G75*
G01X52907Y-432D02*
G03X52707Y-232I-200J0D01*
G01*
G75*
G01X59490Y-371D02*
G02X59457Y-232I242J132D01*
G01*
G75*
G01X52517Y-382D02*
G03X52557Y-232I-260J150D01*
G01*
G54D14*
G75*
G01X60020Y10211D02*
G02X60018Y10211I-1J-150D01*
G01*
G75*
G01X8999Y23531D02*
G02X9002Y23531I1J150D01*
G01*
G54D13*
G75*
G01X10500Y21379D02*
G02X10503Y21379I2J200D01*
G01*
G54D10*
G75*
G01X24486Y2616D02*
G03X23216Y2616I-635J0D01*
G01*
G75*
G01X26645Y29413D02*
G03X25375Y29413I-635J0D01*
G01*
G75*
G01X24486Y10871D02*
G03X23216Y10871I-635J0D01*
G01*
G75*
G01X21882Y2388D02*
G03X21882Y2388I-190J0D01*
G01*
G75*
G01X24041Y29185D02*
G03X24041Y29185I-190J0D01*
G01*
G75*
G01X21882Y10643D02*
G03X21882Y10643I-190J0D01*
G01*
M00*
M02*
