G04 Layer: BottomSolderMaskLayer*
G04 EasyEDA v5.9.41, Fri, 08 Feb 2019 23:39:09 GMT*
G04 113b46e1fbc2432c9b03807f1b5d6b43*
G04 Gerber Generator version 0.2*
G04 Scale: 100 percent, Rotated: No, Reflected: No *
G04 Dimensions in millimeters *
G04 leading zeros omitted , absolute positions ,3 integer and 3 decimal *
%FSLAX33Y33*%
%MOMM*%
G90*
G71D02*

%ADD48C,0.803199*%
%ADD49R,4.203192X7.203211*%
%ADD52R,1.303198X1.203198*%
%ADD53R,1.203198X1.303198*%
%ADD54R,1.803400X1.803400*%
%ADD58C,0.653212*%
%ADD59C,0.903199*%
%ADD60R,1.803400X1.602740*%
%ADD61R,1.653540X1.503680*%
%ADD62R,2.103120X2.103120*%
%ADD63R,0.601980X1.551940*%
%ADD64R,0.703199X2.703195*%
%ADD65R,0.703199X1.803197*%
%ADD66R,1.003198X1.203198*%
%ADD67R,2.743200X1.727200*%
%ADD68R,2.203196X1.203198*%
%ADD69R,1.203198X2.203196*%

%LPD*%
G54D48*
G01X59309Y10172D02*
G01X59309Y8572D01*
G01X58039Y10172D02*
G01X58039Y8572D01*
G01X56769Y10172D02*
G01X56769Y8572D01*
G01X55499Y10172D02*
G01X55499Y8572D01*
G01X54229Y10172D02*
G01X54229Y8572D01*
G01X52959Y10172D02*
G01X52959Y8572D01*
G01X51689Y10172D02*
G01X51689Y8572D01*
G01X50419Y10172D02*
G01X50419Y8572D01*
G01X59309Y15709D02*
G01X59309Y14109D01*
G01X58039Y15709D02*
G01X58039Y14109D01*
G01X56769Y15709D02*
G01X56769Y14109D01*
G01X55499Y15709D02*
G01X55499Y14109D01*
G01X54229Y15709D02*
G01X54229Y14109D01*
G01X52959Y15709D02*
G01X52959Y14109D01*
G01X51689Y15709D02*
G01X51689Y14109D01*
G01X50419Y15709D02*
G01X50419Y14109D01*
G54D58*
G01X8931Y22174D02*
G01X7731Y22174D01*
G01X8931Y21374D02*
G01X7731Y21374D01*
G01X8931Y20574D02*
G01X7731Y20574D01*
G01X8931Y19773D02*
G01X7731Y19773D01*
G01X8931Y18976D02*
G01X7731Y18976D01*
G01X8931Y18176D02*
G01X7731Y18176D01*
G01X8931Y17376D02*
G01X7731Y17376D01*
G01X8931Y16576D02*
G01X7731Y16576D01*
G01X9906Y15611D02*
G01X9906Y14411D01*
G01X10706Y15611D02*
G01X10706Y14411D01*
G01X11506Y15611D02*
G01X11506Y14411D01*
G01X12306Y15611D02*
G01X12306Y14411D01*
G01X13103Y15611D02*
G01X13103Y14411D01*
G01X13903Y15611D02*
G01X13903Y14411D01*
G01X14704Y15611D02*
G01X14704Y14411D01*
G01X15504Y15611D02*
G01X15504Y14411D01*
G01X17694Y16586D02*
G01X16494Y16586D01*
G01X17694Y17386D02*
G01X16494Y17386D01*
G01X17694Y18186D02*
G01X16494Y18186D01*
G01X17694Y18986D02*
G01X16494Y18986D01*
G01X17694Y19784D02*
G01X16494Y19784D01*
G01X17694Y20584D02*
G01X16494Y20584D01*
G01X17694Y21384D02*
G01X16494Y21384D01*
G01X17694Y22184D02*
G01X16494Y22184D01*
G01X15494Y24348D02*
G01X15494Y23149D01*
G01X14693Y24348D02*
G01X14693Y23149D01*
G01X13893Y24348D02*
G01X13893Y23149D01*
G01X13093Y24348D02*
G01X13093Y23149D01*
G01X12296Y24348D02*
G01X12296Y23149D01*
G01X11496Y24348D02*
G01X11496Y23149D01*
G01X10695Y24348D02*
G01X10695Y23149D01*
G01X9895Y24348D02*
G01X9895Y23149D01*
G54D59*
G01X21603Y3124D02*
G01X20103Y3124D01*
G01X21603Y4394D02*
G01X20103Y4394D01*
G01X21603Y5664D02*
G01X20103Y5664D01*
G01X21603Y6934D02*
G01X20103Y6934D01*
G01X27648Y3124D02*
G01X26148Y3124D01*
G01X27648Y4394D02*
G01X26148Y4394D01*
G01X27648Y5664D02*
G01X26148Y5664D01*
G01X27648Y6934D02*
G01X26148Y6934D01*
G01X23762Y29921D02*
G01X22262Y29921D01*
G01X23762Y31191D02*
G01X22262Y31191D01*
G01X23762Y32461D02*
G01X22262Y32461D01*
G01X23762Y33731D02*
G01X22262Y33731D01*
G01X29807Y29921D02*
G01X28307Y29921D01*
G01X29807Y31191D02*
G01X28307Y31191D01*
G01X29807Y32461D02*
G01X28307Y32461D01*
G01X29807Y33731D02*
G01X28307Y33731D01*
G01X21603Y11379D02*
G01X20103Y11379D01*
G01X21603Y12649D02*
G01X20103Y12649D01*
G01X21603Y13919D02*
G01X20103Y13919D01*
G01X21603Y15189D02*
G01X20103Y15189D01*
G01X27648Y11379D02*
G01X26148Y11379D01*
G01X27648Y12649D02*
G01X26148Y12649D01*
G01X27648Y13919D02*
G01X26148Y13919D01*
G01X27648Y15189D02*
G01X26148Y15189D01*
G54D60*
G01X59207Y4356D03*
G01X52806Y4356D03*
G54D61*
G01X59436Y1917D03*
G01X52578Y1917D03*
G54D62*
G01X57200Y1917D03*
G01X54813Y1917D03*
G54D63*
G01X57302Y4584D03*
G01X54711Y4584D03*
G01X56667Y4584D03*
G01X55346Y4584D03*
G01X56007Y4584D03*
G54D64*
G01X15819Y29286D03*
G54D65*
G01X17018Y29286D03*
G54D64*
G01X18216Y29286D03*
G54D53*
G01X46127Y1981D03*
G01X44728Y1981D03*
G01X46127Y3759D03*
G01X44728Y3759D03*
G01X44736Y5525D03*
G01X46137Y5525D03*
G01X34990Y3886D03*
G01X33590Y3886D03*
G01X34990Y5664D03*
G01X33590Y5664D03*
G01X33589Y2108D03*
G01X34990Y2108D03*
G54D66*
G01X22606Y1218D03*
G01X25146Y1218D03*
G54D53*
G01X44765Y10871D03*
G01X46166Y10871D03*
G01X44765Y9093D03*
G01X46166Y9093D03*
G01X52385Y18872D03*
G01X53786Y18872D03*
G01X50734Y27762D03*
G01X52135Y27762D03*
G01X56961Y18872D03*
G01X55561Y18872D03*
G01X55310Y27762D03*
G01X53910Y27762D03*
G01X46166Y12522D03*
G01X44766Y12522D03*
G01X47055Y17348D03*
G01X45655Y17348D03*
G01X26100Y22682D03*
G01X24700Y22682D03*
G54D52*
G01X16129Y33415D03*
G01X16129Y32015D03*
G01X17907Y33415D03*
G01X17907Y32015D03*
G54D53*
G01X15458Y7503D03*
G01X14059Y7503D03*
G54D52*
G01X2794Y18556D03*
G01X2794Y17156D03*
G54D53*
G01X34355Y30048D03*
G01X32955Y30048D03*
G01X34355Y33477D03*
G01X32955Y33477D03*
G01X34355Y31699D03*
G01X32955Y31699D03*
G54D66*
G01X24638Y27507D03*
G01X27178Y27507D03*
G54D53*
G01X34990Y10236D03*
G01X33590Y10236D03*
G01X34990Y13792D03*
G01X33590Y13792D03*
G01X34990Y12014D03*
G01X33590Y12014D03*
G54D66*
G01X22606Y9473D03*
G01X25146Y9473D03*
G54D67*
G01X7874Y28778D03*
G01X12954Y28778D03*
G54D52*
G01X2794Y20331D03*
G01X2794Y21730D03*
G54D54*
G01X17648Y9283D03*
G01X17648Y12082D03*
G54D68*
G01X8001Y7315D03*
G01X7996Y9245D03*
G01X8001Y11125D03*
G54D49*
G01X2413Y31191D03*
G54D69*
G01X6096Y1600D03*
G01X13716Y1600D03*
G01X11811Y1600D03*
G01X9906Y1600D03*
G01X8001Y1600D03*
G54D49*
G01X2413Y3886D03*
M00*
M02*
