G04 Layer: TopSilkLayer*
G04 EasyEDA v5.9.41, Fri, 08 Feb 2019 23:39:09 GMT*
G04 113b46e1fbc2432c9b03807f1b5d6b43*
G04 Gerber Generator version 0.2*
G04 Scale: 100 percent, Rotated: No, Reflected: No *
G04 Dimensions in millimeters *
G04 leading zeros omitted , absolute positions ,3 integer and 3 decimal *
%FSLAX33Y33*%
%MOMM*%
G90*
G71D02*

%ADD10C,0.254000*%
%ADD12C,0.200000*%
%ADD13C,0.399999*%
%ADD14C,0.299999*%
%ADD42C,0.228600*%
%ADD43C,0.152400*%
%ADD44C,0.119990*%

%LPD*%
G54D10*
G01X7543Y11607D02*
G01X7543Y15468D01*
G01X12420Y11582D02*
G01X12420Y15468D01*
G01X7543Y11582D02*
G01X12420Y11582D01*
G01X7543Y15468D02*
G01X12420Y15468D01*
G54D12*
G01X10248Y26637D02*
G01X10248Y27738D01*
G01X11849Y27738D01*
G01X11849Y26637D01*
G01X10248Y25838D02*
G01X10248Y24738D01*
G01X11248Y24738D01*
G01X11849Y24738D01*
G01X11849Y25838D01*
G01X7384Y20307D02*
G01X8484Y20307D01*
G01X8484Y18707D01*
G01X7384Y18707D01*
G01X6584Y20307D02*
G01X5484Y20307D01*
G01X5484Y19307D01*
G01X5484Y18707D01*
G01X6584Y18707D01*
G54D42*
G01X6180Y17178D02*
G01X6180Y12178D01*
G01X3979Y12178D01*
G01X3979Y17178D01*
G01X6180Y17178D01*
G54D12*
G01X9379Y5626D02*
G01X8279Y5626D01*
G01X8279Y7226D01*
G01X9379Y7226D01*
G01X10179Y5626D02*
G01X11279Y5626D01*
G01X11279Y6626D01*
G01X11279Y7226D01*
G01X10179Y7226D01*
G01X10432Y22085D02*
G01X11532Y22085D01*
G01X11532Y20485D01*
G01X10432Y20485D01*
G01X9632Y22085D02*
G01X8532Y22085D01*
G01X8532Y21085D01*
G01X8532Y20485D01*
G01X9632Y20485D01*
G01X7384Y22085D02*
G01X8484Y22085D01*
G01X8484Y20485D01*
G01X7384Y20485D01*
G01X6584Y22085D02*
G01X5484Y22085D01*
G01X5484Y21085D01*
G01X5484Y20485D01*
G01X6584Y20485D01*
G01X7384Y23863D02*
G01X8484Y23863D01*
G01X8484Y22263D01*
G01X7384Y22263D01*
G01X6584Y23863D02*
G01X5484Y23863D01*
G01X5484Y22863D01*
G01X5484Y22263D01*
G01X6584Y22263D01*
G01X7384Y25641D02*
G01X8484Y25641D01*
G01X8484Y24041D01*
G01X7384Y24041D01*
G01X6584Y25641D02*
G01X5484Y25641D01*
G01X5484Y24641D01*
G01X5484Y24041D01*
G01X6584Y24041D01*
G54D10*
G01X23765Y7952D02*
G01X16366Y7952D01*
G01X16366Y7952D02*
G01X16366Y14552D01*
G01X23765Y14552D02*
G01X23765Y7952D01*
G01X16366Y14552D02*
G01X23765Y14552D01*
G54D42*
G01X14774Y27211D02*
G01X19774Y27211D01*
G01X19774Y25011D01*
G01X14774Y25011D01*
G01X14774Y27211D01*
G54D10*
G01X36558Y34514D02*
G01X36558Y26564D01*
G01X43705Y26564D01*
G01X43705Y34514D01*
G01X36558Y34514D01*
G01X37532Y26564D02*
G01X37532Y25264D01*
G01X38031Y25264D01*
G01X38031Y26564D01*
G01X42254Y26568D02*
G01X42254Y25268D01*
G01X42754Y25268D01*
G01X42754Y26568D01*
G01X36685Y19782D02*
G01X36685Y11832D01*
G01X43832Y11832D01*
G01X43832Y19782D01*
G01X36685Y19782D01*
G01X37659Y11832D02*
G01X37659Y10532D01*
G01X38158Y10532D01*
G01X38158Y11832D01*
G01X42381Y11836D02*
G01X42381Y10536D01*
G01X42881Y10536D01*
G01X42881Y11836D01*
G54D42*
G01X20235Y24925D02*
G01X25235Y24925D01*
G01X25235Y22725D01*
G01X20235Y22725D01*
G01X20235Y24925D01*
G54D10*
G01X28176Y34387D02*
G01X28176Y26437D01*
G01X35323Y26437D01*
G01X35323Y34387D01*
G01X28176Y34387D01*
G01X29150Y26437D02*
G01X29150Y25137D01*
G01X29649Y25137D01*
G01X29649Y26437D01*
G01X33872Y26441D02*
G01X33872Y25141D01*
G01X34372Y25141D01*
G01X34372Y26441D01*
G01X28176Y19782D02*
G01X28176Y11832D01*
G01X35323Y11832D01*
G01X35323Y19782D01*
G01X28176Y19782D01*
G01X29150Y11832D02*
G01X29150Y10532D01*
G01X29649Y10532D01*
G01X29649Y11832D01*
G01X33872Y11836D02*
G01X33872Y10536D01*
G01X34372Y10536D01*
G01X34372Y11836D01*
G54D42*
G01X20236Y27205D02*
G01X25236Y27205D01*
G01X25236Y25005D01*
G01X20236Y25005D01*
G01X20236Y27205D01*
G54D10*
G01X45067Y34387D02*
G01X45067Y26437D01*
G01X52214Y26437D01*
G01X52214Y34387D01*
G01X45067Y34387D01*
G01X46041Y26437D02*
G01X46041Y25137D01*
G01X46540Y25137D01*
G01X46540Y26437D01*
G01X50763Y26441D02*
G01X50763Y25141D01*
G01X51263Y25141D01*
G01X51263Y26441D01*
G01X45194Y19782D02*
G01X45194Y11832D01*
G01X52341Y11832D01*
G01X52341Y19782D01*
G01X45194Y19782D01*
G01X46168Y11832D02*
G01X46168Y10532D01*
G01X46667Y10532D01*
G01X46667Y11832D01*
G01X50890Y11836D02*
G01X50890Y10536D01*
G01X51390Y10536D01*
G01X51390Y11836D01*
G54D42*
G01X20246Y22595D02*
G01X25246Y22595D01*
G01X25246Y20395D01*
G01X20246Y20395D01*
G01X20246Y22595D01*
G01X14774Y24925D02*
G01X19774Y24925D01*
G01X19774Y22725D01*
G01X14774Y22725D01*
G01X14774Y24925D01*
G01X14774Y22639D02*
G01X19774Y22639D01*
G01X19774Y20439D01*
G01X14774Y20439D01*
G01X14774Y22639D01*
G01X14774Y20226D02*
G01X19774Y20226D01*
G01X19774Y18026D01*
G01X14774Y18026D01*
G01X14774Y20226D01*
G01X14774Y17940D02*
G01X19774Y17940D01*
G01X19774Y15740D01*
G01X14774Y15740D01*
G01X14774Y17940D01*
G54D43*
G01X12696Y12626D02*
G01X13474Y12626D01*
G01X13631Y12677D01*
G01X13735Y12781D01*
G01X13786Y12939D01*
G01X13786Y13043D01*
G01X13735Y13198D01*
G01X13631Y13302D01*
G01X13474Y13353D01*
G01X12696Y13353D01*
G01X12956Y13749D02*
G01X12902Y13749D01*
G01X12798Y13800D01*
G01X12747Y13853D01*
G01X12696Y13957D01*
G01X12696Y14163D01*
G01X12747Y14267D01*
G01X12798Y14321D01*
G01X12902Y14371D01*
G01X13006Y14371D01*
G01X13110Y14321D01*
G01X13268Y14216D01*
G01X13786Y13696D01*
G01X13786Y14425D01*
G01X8236Y27735D02*
G01X8236Y26645D01*
G01X8236Y27735D02*
G01X8704Y27735D01*
G01X8859Y27684D01*
G01X8912Y27633D01*
G01X8963Y27529D01*
G01X8963Y27425D01*
G01X8912Y27321D01*
G01X8859Y27267D01*
G01X8704Y27217D01*
G01X8236Y27217D01*
G01X8600Y27217D02*
G01X8963Y26645D01*
G01X9359Y27476D02*
G01X9359Y27529D01*
G01X9410Y27633D01*
G01X9463Y27684D01*
G01X9567Y27735D01*
G01X9773Y27735D01*
G01X9877Y27684D01*
G01X9931Y27633D01*
G01X9981Y27529D01*
G01X9981Y27425D01*
G01X9931Y27321D01*
G01X9827Y27163D01*
G01X9306Y26645D01*
G01X10035Y26645D01*
G01X4208Y19756D02*
G01X4155Y19860D01*
G01X4051Y19964D01*
G01X3949Y20015D01*
G01X3741Y20015D01*
G01X3637Y19964D01*
G01X3533Y19860D01*
G01X3479Y19756D01*
G01X3428Y19601D01*
G01X3428Y19342D01*
G01X3479Y19184D01*
G01X3533Y19080D01*
G01X3637Y18976D01*
G01X3741Y18925D01*
G01X3949Y18925D01*
G01X4051Y18976D01*
G01X4155Y19080D01*
G01X4208Y19184D01*
G01X5069Y20015D02*
G01X4551Y19288D01*
G01X5331Y19288D01*
G01X5069Y20015D02*
G01X5069Y18925D01*
G01X4970Y11625D02*
G01X4917Y11729D01*
G01X4813Y11833D01*
G01X4711Y11887D01*
G01X4503Y11887D01*
G01X4399Y11833D01*
G01X4295Y11729D01*
G01X4241Y11625D01*
G01X4191Y11470D01*
G01X4191Y11211D01*
G01X4241Y11054D01*
G01X4295Y10949D01*
G01X4399Y10845D01*
G01X4503Y10795D01*
G01X4711Y10795D01*
G01X4813Y10845D01*
G01X4917Y10949D01*
G01X4970Y11054D01*
G01X5936Y11887D02*
G01X5417Y11887D01*
G01X5364Y11417D01*
G01X5417Y11470D01*
G01X5572Y11521D01*
G01X5727Y11521D01*
G01X5885Y11470D01*
G01X5989Y11366D01*
G01X6040Y11211D01*
G01X6040Y11107D01*
G01X5989Y10949D01*
G01X5885Y10845D01*
G01X5727Y10795D01*
G01X5572Y10795D01*
G01X5417Y10845D01*
G01X5364Y10899D01*
G01X5313Y11003D01*
G01X12336Y6675D02*
G01X12283Y6779D01*
G01X12179Y6883D01*
G01X12077Y6934D01*
G01X11869Y6934D01*
G01X11765Y6883D01*
G01X11661Y6779D01*
G01X11607Y6675D01*
G01X11557Y6520D01*
G01X11557Y6261D01*
G01X11607Y6103D01*
G01X11661Y5999D01*
G01X11765Y5895D01*
G01X11869Y5844D01*
G01X12077Y5844D01*
G01X12179Y5895D01*
G01X12283Y5999D01*
G01X12336Y6103D01*
G01X12938Y6934D02*
G01X12783Y6883D01*
G01X12730Y6779D01*
G01X12730Y6675D01*
G01X12783Y6570D01*
G01X12887Y6520D01*
G01X13093Y6466D01*
G01X13251Y6416D01*
G01X13355Y6311D01*
G01X13406Y6207D01*
G01X13406Y6052D01*
G01X13355Y5948D01*
G01X13302Y5895D01*
G01X13147Y5844D01*
G01X12938Y5844D01*
G01X12783Y5895D01*
G01X12730Y5948D01*
G01X12679Y6052D01*
G01X12679Y6207D01*
G01X12730Y6311D01*
G01X12834Y6416D01*
G01X12992Y6466D01*
G01X13197Y6520D01*
G01X13302Y6570D01*
G01X13355Y6675D01*
G01X13355Y6779D01*
G01X13302Y6883D01*
G01X13147Y6934D01*
G01X12938Y6934D01*
G01X9926Y23036D02*
G01X9873Y23140D01*
G01X9769Y23244D01*
G01X9667Y23295D01*
G01X9459Y23295D01*
G01X9355Y23244D01*
G01X9251Y23140D01*
G01X9197Y23036D01*
G01X9146Y22881D01*
G01X9146Y22622D01*
G01X9197Y22464D01*
G01X9251Y22360D01*
G01X9355Y22256D01*
G01X9459Y22205D01*
G01X9667Y22205D01*
G01X9769Y22256D01*
G01X9873Y22360D01*
G01X9926Y22464D01*
G01X10945Y22932D02*
G01X10891Y22777D01*
G01X10787Y22672D01*
G01X10632Y22622D01*
G01X10582Y22622D01*
G01X10424Y22672D01*
G01X10320Y22777D01*
G01X10269Y22932D01*
G01X10269Y22985D01*
G01X10320Y23140D01*
G01X10424Y23244D01*
G01X10582Y23295D01*
G01X10632Y23295D01*
G01X10787Y23244D01*
G01X10891Y23140D01*
G01X10945Y22932D01*
G01X10945Y22672D01*
G01X10891Y22413D01*
G01X10787Y22256D01*
G01X10632Y22205D01*
G01X10528Y22205D01*
G01X10373Y22256D01*
G01X10320Y22360D01*
G01X3428Y21920D02*
G01X3428Y20830D01*
G01X3428Y21920D02*
G01X3896Y21920D01*
G01X4051Y21869D01*
G01X4104Y21818D01*
G01X4155Y21714D01*
G01X4155Y21610D01*
G01X4104Y21506D01*
G01X4051Y21452D01*
G01X3896Y21402D01*
G01X3428Y21402D01*
G01X3792Y21402D02*
G01X4155Y20830D01*
G01X4602Y21920D02*
G01X5173Y21920D01*
G01X4864Y21506D01*
G01X5019Y21506D01*
G01X5123Y21452D01*
G01X5173Y21402D01*
G01X5227Y21247D01*
G01X5227Y21142D01*
G01X5173Y20985D01*
G01X5069Y20881D01*
G01X4914Y20830D01*
G01X4759Y20830D01*
G01X4602Y20881D01*
G01X4551Y20934D01*
G01X4498Y21038D01*
G01X3428Y23571D02*
G01X3428Y22481D01*
G01X3428Y23571D02*
G01X3896Y23571D01*
G01X4051Y23520D01*
G01X4104Y23469D01*
G01X4155Y23365D01*
G01X4155Y23261D01*
G01X4104Y23157D01*
G01X4051Y23103D01*
G01X3896Y23053D01*
G01X3428Y23053D01*
G01X3792Y23053D02*
G01X4155Y22481D01*
G01X5019Y23571D02*
G01X4498Y22844D01*
G01X5278Y22844D01*
G01X5019Y23571D02*
G01X5019Y22481D01*
G01X3428Y25349D02*
G01X3428Y24259D01*
G01X3428Y25349D02*
G01X3896Y25349D01*
G01X4051Y25298D01*
G01X4104Y25247D01*
G01X4155Y25143D01*
G01X4155Y25039D01*
G01X4104Y24935D01*
G01X4051Y24881D01*
G01X3896Y24831D01*
G01X3428Y24831D01*
G01X3792Y24831D02*
G01X4155Y24259D01*
G01X5123Y25349D02*
G01X4602Y25349D01*
G01X4551Y24881D01*
G01X4602Y24935D01*
G01X4759Y24986D01*
G01X4914Y24986D01*
G01X5069Y24935D01*
G01X5173Y24831D01*
G01X5227Y24676D01*
G01X5227Y24571D01*
G01X5173Y24414D01*
G01X5069Y24310D01*
G01X4914Y24259D01*
G01X4759Y24259D01*
G01X4602Y24310D01*
G01X4551Y24363D01*
G01X4498Y24467D01*
G01X19246Y9355D02*
G01X19246Y8263D01*
G01X19246Y8263D02*
G01X19869Y8263D01*
G01X20316Y9355D02*
G01X20887Y9355D01*
G01X20577Y8938D01*
G01X20732Y8938D01*
G01X20837Y8887D01*
G01X20887Y8834D01*
G01X20941Y8679D01*
G01X20941Y8575D01*
G01X20887Y8420D01*
G01X20783Y8316D01*
G01X20628Y8263D01*
G01X20473Y8263D01*
G01X20316Y8316D01*
G01X20265Y8367D01*
G01X20212Y8471D01*
G01X12971Y26474D02*
G01X12918Y26578D01*
G01X12814Y26682D01*
G01X12712Y26735D01*
G01X12504Y26735D01*
G01X12400Y26682D01*
G01X12296Y26578D01*
G01X12242Y26474D01*
G01X12192Y26319D01*
G01X12192Y26060D01*
G01X12242Y25902D01*
G01X12296Y25798D01*
G01X12400Y25694D01*
G01X12504Y25643D01*
G01X12712Y25643D01*
G01X12814Y25694D01*
G01X12918Y25798D01*
G01X12971Y25902D01*
G01X13314Y26527D02*
G01X13418Y26578D01*
G01X13573Y26735D01*
G01X13573Y25643D01*
G01X13970Y26474D02*
G01X13970Y26527D01*
G01X14020Y26631D01*
G01X14071Y26682D01*
G01X14175Y26735D01*
G01X14384Y26735D01*
G01X14488Y26682D01*
G01X14541Y26631D01*
G01X14592Y26527D01*
G01X14592Y26423D01*
G01X14541Y26319D01*
G01X14437Y26164D01*
G01X13916Y25643D01*
G01X14643Y25643D01*
G01X40099Y25955D02*
G01X39995Y25901D01*
G01X39891Y25797D01*
G01X39837Y25693D01*
G01X39786Y25538D01*
G01X39786Y25279D01*
G01X39837Y25122D01*
G01X39891Y25020D01*
G01X39995Y24916D01*
G01X40099Y24863D01*
G01X40307Y24863D01*
G01X40409Y24916D01*
G01X40513Y25020D01*
G01X40566Y25122D01*
G01X40617Y25279D01*
G01X40617Y25538D01*
G01X40566Y25693D01*
G01X40513Y25797D01*
G01X40409Y25901D01*
G01X40307Y25955D01*
G01X40099Y25955D01*
G01X40254Y25071D02*
G01X40566Y24758D01*
G01X41064Y25955D02*
G01X41636Y25955D01*
G01X41323Y25538D01*
G01X41481Y25538D01*
G01X41585Y25487D01*
G01X41636Y25434D01*
G01X41689Y25279D01*
G01X41689Y25175D01*
G01X41636Y25020D01*
G01X41531Y24916D01*
G01X41376Y24863D01*
G01X41221Y24863D01*
G01X41064Y24916D01*
G01X41013Y24967D01*
G01X40960Y25071D01*
G01X40539Y11395D02*
G01X40435Y11341D01*
G01X40331Y11237D01*
G01X40277Y11133D01*
G01X40226Y10978D01*
G01X40226Y10719D01*
G01X40277Y10562D01*
G01X40331Y10460D01*
G01X40435Y10356D01*
G01X40539Y10303D01*
G01X40747Y10303D01*
G01X40849Y10356D01*
G01X40953Y10460D01*
G01X41006Y10562D01*
G01X41057Y10719D01*
G01X41057Y10978D01*
G01X41006Y11133D01*
G01X40953Y11237D01*
G01X40849Y11341D01*
G01X40747Y11395D01*
G01X40539Y11395D01*
G01X40694Y10511D02*
G01X41006Y10198D01*
G01X41921Y11395D02*
G01X41400Y10666D01*
G01X42180Y10666D01*
G01X41921Y11395D02*
G01X41921Y10303D01*
G01X26235Y24198D02*
G01X26182Y24302D01*
G01X26078Y24406D01*
G01X25976Y24460D01*
G01X25768Y24460D01*
G01X25664Y24406D01*
G01X25560Y24302D01*
G01X25506Y24198D01*
G01X25455Y24043D01*
G01X25455Y23784D01*
G01X25506Y23627D01*
G01X25560Y23522D01*
G01X25664Y23418D01*
G01X25768Y23368D01*
G01X25976Y23368D01*
G01X26078Y23418D01*
G01X26182Y23522D01*
G01X26235Y23627D01*
G01X26578Y24251D02*
G01X26682Y24302D01*
G01X26837Y24460D01*
G01X26837Y23368D01*
G01X27701Y24460D02*
G01X27180Y23731D01*
G01X27960Y23731D01*
G01X27701Y24460D02*
G01X27701Y23368D01*
G01X31839Y25895D02*
G01X31735Y25841D01*
G01X31631Y25737D01*
G01X31577Y25633D01*
G01X31526Y25478D01*
G01X31526Y25219D01*
G01X31577Y25062D01*
G01X31631Y24960D01*
G01X31735Y24856D01*
G01X31839Y24803D01*
G01X32047Y24803D01*
G01X32149Y24856D01*
G01X32253Y24960D01*
G01X32306Y25062D01*
G01X32357Y25219D01*
G01X32357Y25478D01*
G01X32306Y25633D01*
G01X32253Y25737D01*
G01X32149Y25841D01*
G01X32047Y25895D01*
G01X31839Y25895D01*
G01X31994Y25011D02*
G01X32306Y24698D01*
G01X32700Y25686D02*
G01X32804Y25737D01*
G01X32962Y25895D01*
G01X32962Y24803D01*
G01X31699Y11415D02*
G01X31595Y11361D01*
G01X31491Y11257D01*
G01X31437Y11153D01*
G01X31386Y10998D01*
G01X31386Y10739D01*
G01X31437Y10582D01*
G01X31491Y10480D01*
G01X31595Y10376D01*
G01X31699Y10323D01*
G01X31907Y10323D01*
G01X32009Y10376D01*
G01X32113Y10480D01*
G01X32166Y10582D01*
G01X32217Y10739D01*
G01X32217Y10998D01*
G01X32166Y11153D01*
G01X32113Y11257D01*
G01X32009Y11361D01*
G01X31907Y11415D01*
G01X31699Y11415D01*
G01X31854Y10531D02*
G01X32166Y10218D01*
G01X32613Y11153D02*
G01X32613Y11206D01*
G01X32664Y11311D01*
G01X32717Y11361D01*
G01X32822Y11415D01*
G01X33027Y11415D01*
G01X33131Y11361D01*
G01X33185Y11311D01*
G01X33236Y11206D01*
G01X33236Y11102D01*
G01X33185Y10998D01*
G01X33081Y10843D01*
G01X32560Y10323D01*
G01X33289Y10323D01*
G01X26236Y26351D02*
G01X26183Y26455D01*
G01X26079Y26559D01*
G01X25977Y26613D01*
G01X25769Y26613D01*
G01X25665Y26559D01*
G01X25560Y26455D01*
G01X25507Y26351D01*
G01X25456Y26196D01*
G01X25456Y25937D01*
G01X25507Y25780D01*
G01X25560Y25675D01*
G01X25665Y25571D01*
G01X25769Y25521D01*
G01X25977Y25521D01*
G01X26079Y25571D01*
G01X26183Y25675D01*
G01X26236Y25780D01*
G01X26579Y26404D02*
G01X26683Y26455D01*
G01X26838Y26613D01*
G01X26838Y25521D01*
G01X27493Y26613D02*
G01X27336Y26559D01*
G01X27234Y26404D01*
G01X27181Y26143D01*
G01X27181Y25988D01*
G01X27234Y25729D01*
G01X27336Y25571D01*
G01X27493Y25521D01*
G01X27598Y25521D01*
G01X27752Y25571D01*
G01X27857Y25729D01*
G01X27907Y25988D01*
G01X27907Y26143D01*
G01X27857Y26404D01*
G01X27752Y26559D01*
G01X27598Y26613D01*
G01X27493Y26613D01*
G01X48449Y25935D02*
G01X48345Y25881D01*
G01X48241Y25777D01*
G01X48187Y25673D01*
G01X48136Y25518D01*
G01X48136Y25259D01*
G01X48187Y25102D01*
G01X48241Y25000D01*
G01X48345Y24896D01*
G01X48449Y24843D01*
G01X48657Y24843D01*
G01X48759Y24896D01*
G01X48863Y25000D01*
G01X48916Y25102D01*
G01X48967Y25259D01*
G01X48967Y25518D01*
G01X48916Y25673D01*
G01X48863Y25777D01*
G01X48759Y25881D01*
G01X48657Y25935D01*
G01X48449Y25935D01*
G01X48604Y25051D02*
G01X48916Y24738D01*
G01X49935Y25935D02*
G01X49414Y25935D01*
G01X49363Y25467D01*
G01X49414Y25518D01*
G01X49571Y25572D01*
G01X49726Y25572D01*
G01X49881Y25518D01*
G01X49986Y25414D01*
G01X50039Y25259D01*
G01X50039Y25155D01*
G01X49986Y25000D01*
G01X49881Y24896D01*
G01X49726Y24843D01*
G01X49571Y24843D01*
G01X49414Y24896D01*
G01X49363Y24947D01*
G01X49310Y25051D01*
G01X49029Y11485D02*
G01X48925Y11431D01*
G01X48821Y11327D01*
G01X48767Y11223D01*
G01X48716Y11068D01*
G01X48716Y10809D01*
G01X48767Y10652D01*
G01X48821Y10550D01*
G01X48925Y10446D01*
G01X49029Y10393D01*
G01X49237Y10393D01*
G01X49339Y10446D01*
G01X49443Y10550D01*
G01X49496Y10652D01*
G01X49547Y10809D01*
G01X49547Y11068D01*
G01X49496Y11223D01*
G01X49443Y11327D01*
G01X49339Y11431D01*
G01X49237Y11485D01*
G01X49029Y11485D01*
G01X49184Y10601D02*
G01X49496Y10288D01*
G01X50515Y11327D02*
G01X50461Y11431D01*
G01X50306Y11485D01*
G01X50202Y11485D01*
G01X50047Y11431D01*
G01X49943Y11276D01*
G01X49890Y11017D01*
G01X49890Y10756D01*
G01X49943Y10550D01*
G01X50047Y10446D01*
G01X50202Y10393D01*
G01X50253Y10393D01*
G01X50411Y10446D01*
G01X50515Y10550D01*
G01X50566Y10705D01*
G01X50566Y10756D01*
G01X50515Y10913D01*
G01X50411Y11017D01*
G01X50253Y11068D01*
G01X50202Y11068D01*
G01X50047Y11017D01*
G01X49943Y10913D01*
G01X49890Y10756D01*
G01X26190Y21741D02*
G01X26137Y21845D01*
G01X26033Y21949D01*
G01X25931Y22003D01*
G01X25723Y22003D01*
G01X25619Y21949D01*
G01X25515Y21845D01*
G01X25461Y21741D01*
G01X25410Y21586D01*
G01X25410Y21327D01*
G01X25461Y21170D01*
G01X25515Y21066D01*
G01X25619Y20961D01*
G01X25723Y20911D01*
G01X25931Y20911D01*
G01X26033Y20961D01*
G01X26137Y21066D01*
G01X26190Y21170D01*
G01X26533Y21795D02*
G01X26637Y21845D01*
G01X26792Y22003D01*
G01X26792Y20911D01*
G01X27760Y22003D02*
G01X27239Y22003D01*
G01X27188Y21533D01*
G01X27239Y21586D01*
G01X27394Y21637D01*
G01X27552Y21637D01*
G01X27707Y21586D01*
G01X27811Y21482D01*
G01X27862Y21327D01*
G01X27862Y21223D01*
G01X27811Y21066D01*
G01X27707Y20961D01*
G01X27552Y20911D01*
G01X27394Y20911D01*
G01X27239Y20961D01*
G01X27188Y21015D01*
G01X27135Y21119D01*
G01X12971Y24188D02*
G01X12918Y24292D01*
G01X12814Y24396D01*
G01X12712Y24449D01*
G01X12504Y24449D01*
G01X12400Y24396D01*
G01X12296Y24292D01*
G01X12242Y24188D01*
G01X12192Y24033D01*
G01X12192Y23774D01*
G01X12242Y23616D01*
G01X12296Y23512D01*
G01X12400Y23408D01*
G01X12504Y23357D01*
G01X12712Y23357D01*
G01X12814Y23408D01*
G01X12918Y23512D01*
G01X12971Y23616D01*
G01X13314Y24241D02*
G01X13418Y24292D01*
G01X13573Y24449D01*
G01X13573Y23357D01*
G01X14541Y24292D02*
G01X14488Y24396D01*
G01X14333Y24449D01*
G01X14229Y24449D01*
G01X14071Y24396D01*
G01X13970Y24241D01*
G01X13916Y23979D01*
G01X13916Y23720D01*
G01X13970Y23512D01*
G01X14071Y23408D01*
G01X14229Y23357D01*
G01X14279Y23357D01*
G01X14437Y23408D01*
G01X14541Y23512D01*
G01X14592Y23670D01*
G01X14592Y23720D01*
G01X14541Y23878D01*
G01X14437Y23979D01*
G01X14279Y24033D01*
G01X14229Y24033D01*
G01X14071Y23979D01*
G01X13970Y23878D01*
G01X13916Y23720D01*
G01X12971Y21912D02*
G01X12918Y22016D01*
G01X12814Y22120D01*
G01X12712Y22174D01*
G01X12504Y22174D01*
G01X12400Y22120D01*
G01X12296Y22016D01*
G01X12242Y21912D01*
G01X12192Y21757D01*
G01X12192Y21498D01*
G01X12242Y21341D01*
G01X12296Y21236D01*
G01X12400Y21132D01*
G01X12504Y21082D01*
G01X12712Y21082D01*
G01X12814Y21132D01*
G01X12918Y21236D01*
G01X12971Y21341D01*
G01X13314Y21965D02*
G01X13418Y22016D01*
G01X13573Y22174D01*
G01X13573Y21082D01*
G01X14175Y22174D02*
G01X14020Y22120D01*
G01X13970Y22016D01*
G01X13970Y21912D01*
G01X14020Y21808D01*
G01X14124Y21757D01*
G01X14333Y21704D01*
G01X14488Y21653D01*
G01X14592Y21549D01*
G01X14643Y21445D01*
G01X14643Y21290D01*
G01X14592Y21186D01*
G01X14541Y21132D01*
G01X14384Y21082D01*
G01X14175Y21082D01*
G01X14020Y21132D01*
G01X13970Y21186D01*
G01X13916Y21290D01*
G01X13916Y21445D01*
G01X13970Y21549D01*
G01X14071Y21653D01*
G01X14229Y21704D01*
G01X14437Y21757D01*
G01X14541Y21808D01*
G01X14592Y21912D01*
G01X14592Y22016D01*
G01X14541Y22120D01*
G01X14384Y22174D01*
G01X14175Y22174D01*
G01X20718Y19362D02*
G01X20665Y19466D01*
G01X20561Y19570D01*
G01X20459Y19623D01*
G01X20251Y19623D01*
G01X20147Y19570D01*
G01X20043Y19466D01*
G01X19989Y19362D01*
G01X19939Y19207D01*
G01X19939Y18948D01*
G01X19989Y18790D01*
G01X20043Y18686D01*
G01X20147Y18582D01*
G01X20251Y18531D01*
G01X20459Y18531D01*
G01X20561Y18582D01*
G01X20665Y18686D01*
G01X20718Y18790D01*
G01X21061Y19415D02*
G01X21165Y19466D01*
G01X21320Y19623D01*
G01X21320Y18531D01*
G01X22339Y19258D02*
G01X22288Y19103D01*
G01X22184Y18998D01*
G01X22026Y18948D01*
G01X21976Y18948D01*
G01X21818Y18998D01*
G01X21717Y19103D01*
G01X21663Y19258D01*
G01X21663Y19311D01*
G01X21717Y19466D01*
G01X21818Y19570D01*
G01X21976Y19623D01*
G01X22026Y19623D01*
G01X22184Y19570D01*
G01X22288Y19466D01*
G01X22339Y19258D01*
G01X22339Y18998D01*
G01X22288Y18739D01*
G01X22184Y18582D01*
G01X22026Y18531D01*
G01X21922Y18531D01*
G01X21767Y18582D01*
G01X21717Y18686D01*
G01X20718Y17203D02*
G01X20665Y17307D01*
G01X20561Y17411D01*
G01X20459Y17464D01*
G01X20251Y17464D01*
G01X20147Y17411D01*
G01X20043Y17307D01*
G01X19989Y17203D01*
G01X19939Y17048D01*
G01X19939Y16789D01*
G01X19989Y16631D01*
G01X20043Y16527D01*
G01X20147Y16423D01*
G01X20251Y16372D01*
G01X20459Y16372D01*
G01X20561Y16423D01*
G01X20665Y16527D01*
G01X20718Y16631D01*
G01X21112Y17203D02*
G01X21112Y17256D01*
G01X21165Y17360D01*
G01X21216Y17411D01*
G01X21320Y17464D01*
G01X21529Y17464D01*
G01X21633Y17411D01*
G01X21683Y17360D01*
G01X21737Y17256D01*
G01X21737Y17152D01*
G01X21683Y17048D01*
G01X21579Y16893D01*
G01X21061Y16372D01*
G01X21788Y16372D01*
G01X22443Y17464D02*
G01X22288Y17411D01*
G01X22184Y17256D01*
G01X22131Y16994D01*
G01X22131Y16839D01*
G01X22184Y16580D01*
G01X22288Y16423D01*
G01X22443Y16372D01*
G01X22547Y16372D01*
G01X22702Y16423D01*
G01X22806Y16580D01*
G01X22860Y16839D01*
G01X22860Y16994D01*
G01X22806Y17256D01*
G01X22702Y17411D01*
G01X22547Y17464D01*
G01X22443Y17464D01*
G54D44*
G01X5226Y1974D02*
G01X5480Y1082D01*
G01X5734Y1974D02*
G01X5480Y1082D01*
G01X5734Y1974D02*
G01X5988Y1082D01*
G01X6242Y1974D02*
G01X5988Y1082D01*
G01X6664Y1974D02*
G01X6918Y1082D01*
G01X7172Y1974D02*
G01X6918Y1082D01*
G01X7172Y1974D02*
G01X7426Y1082D01*
G01X7683Y1974D02*
G01X7426Y1082D01*
G01X8102Y1974D02*
G01X8356Y1082D01*
G01X8610Y1974D02*
G01X8356Y1082D01*
G01X8610Y1974D02*
G01X8866Y1082D01*
G01X9120Y1974D02*
G01X8866Y1082D01*
G01X9603Y1402D02*
G01X9539Y1339D01*
G01X9603Y1273D01*
G01X9666Y1339D01*
G01X9603Y1402D01*
G01X10151Y1974D02*
G01X10532Y1082D01*
G01X10913Y1974D02*
G01X10532Y1082D01*
G01X10405Y828D01*
G01X10278Y701D01*
G01X10151Y638D01*
G01X10088Y638D01*
G01X11653Y1974D02*
G01X11526Y1910D01*
G01X11399Y1783D01*
G01X11335Y1593D01*
G01X11335Y1466D01*
G01X11399Y1273D01*
G01X11526Y1146D01*
G01X11653Y1082D01*
G01X11843Y1082D01*
G01X11970Y1146D01*
G01X12097Y1273D01*
G01X12161Y1466D01*
G01X12161Y1593D01*
G01X12097Y1783D01*
G01X11970Y1910D01*
G01X11843Y1974D01*
G01X11653Y1974D01*
G01X12582Y1974D02*
G01X12582Y1339D01*
G01X12646Y1146D01*
G01X12773Y1082D01*
G01X12963Y1082D01*
G01X13090Y1146D01*
G01X13281Y1339D01*
G01X13281Y1974D02*
G01X13281Y1082D01*
G01X13893Y2418D02*
G01X13893Y1339D01*
G01X13956Y1146D01*
G01X14083Y1082D01*
G01X14210Y1082D01*
G01X13702Y1974D02*
G01X14147Y1974D01*
G01X14632Y1974D02*
G01X14632Y1339D01*
G01X14696Y1146D01*
G01X14823Y1082D01*
G01X15013Y1082D01*
G01X15140Y1146D01*
G01X15331Y1339D01*
G01X15331Y1974D02*
G01X15331Y1082D01*
G01X15750Y2418D02*
G01X15750Y1082D01*
G01X15750Y1783D02*
G01X15879Y1910D01*
G01X16006Y1974D01*
G01X16197Y1974D01*
G01X16324Y1910D01*
G01X16451Y1783D01*
G01X16514Y1593D01*
G01X16514Y1466D01*
G01X16451Y1273D01*
G01X16324Y1146D01*
G01X16197Y1082D01*
G01X16006Y1082D01*
G01X15879Y1146D01*
G01X15750Y1273D01*
G01X16933Y1593D02*
G01X17698Y1593D01*
G01X17698Y1720D01*
G01X17634Y1847D01*
G01X17571Y1910D01*
G01X17444Y1974D01*
G01X17253Y1974D01*
G01X17126Y1910D01*
G01X16999Y1783D01*
G01X16933Y1593D01*
G01X16933Y1466D01*
G01X16999Y1273D01*
G01X17126Y1146D01*
G01X17253Y1082D01*
G01X17444Y1082D01*
G01X17571Y1146D01*
G01X17698Y1273D01*
G01X18183Y1402D02*
G01X18117Y1339D01*
G01X18183Y1273D01*
G01X18246Y1339D01*
G01X18183Y1402D01*
G01X19430Y1783D02*
G01X19301Y1910D01*
G01X19174Y1974D01*
G01X18983Y1974D01*
G01X18856Y1910D01*
G01X18729Y1783D01*
G01X18666Y1593D01*
G01X18666Y1466D01*
G01X18729Y1273D01*
G01X18856Y1146D01*
G01X18983Y1082D01*
G01X19174Y1082D01*
G01X19301Y1146D01*
G01X19430Y1273D01*
G01X20167Y1974D02*
G01X20040Y1910D01*
G01X19913Y1783D01*
G01X19849Y1593D01*
G01X19849Y1466D01*
G01X19913Y1273D01*
G01X20040Y1146D01*
G01X20167Y1082D01*
G01X20357Y1082D01*
G01X20484Y1146D01*
G01X20614Y1273D01*
G01X20677Y1466D01*
G01X20677Y1593D01*
G01X20614Y1783D01*
G01X20484Y1910D01*
G01X20357Y1974D01*
G01X20167Y1974D01*
G01X21096Y1974D02*
G01X21096Y1082D01*
G01X21096Y1720D02*
G01X21287Y1910D01*
G01X21414Y1974D01*
G01X21604Y1974D01*
G01X21734Y1910D01*
G01X21797Y1720D01*
G01X21797Y1082D01*
G01X21797Y1720D02*
G01X21988Y1910D01*
G01X22115Y1974D01*
G01X22305Y1974D01*
G01X22432Y1910D01*
G01X22496Y1720D01*
G01X22496Y1082D01*
G01X24061Y2675D02*
G01X22918Y638D01*
G01X25244Y1783D02*
G01X25117Y1910D01*
G01X24990Y1974D01*
G01X24800Y1974D01*
G01X24673Y1910D01*
G01X24546Y1783D01*
G01X24482Y1593D01*
G01X24482Y1466D01*
G01X24546Y1273D01*
G01X24673Y1146D01*
G01X24800Y1082D01*
G01X24990Y1082D01*
G01X25117Y1146D01*
G01X25244Y1273D01*
G01X26811Y2675D02*
G01X25666Y638D01*
G01X27230Y2418D02*
G01X27230Y1082D01*
G01X27230Y2418D02*
G01X28058Y2418D01*
G01X27230Y1783D02*
G01X27741Y1783D01*
G01X27230Y1082D02*
G01X28058Y1082D01*
G01X28478Y2418D02*
G01X28478Y1082D01*
G01X28478Y1082D02*
G01X29242Y1082D01*
G01X29661Y2418D02*
G01X29661Y1082D01*
G01X29661Y2418D02*
G01X30489Y2418D01*
G01X29661Y1783D02*
G01X30172Y1783D01*
G01X29661Y1082D02*
G01X30489Y1082D01*
G01X31863Y2101D02*
G01X31800Y2228D01*
G01X31673Y2355D01*
G01X31546Y2418D01*
G01X31292Y2418D01*
G01X31162Y2355D01*
G01X31035Y2228D01*
G01X30972Y2101D01*
G01X30908Y1910D01*
G01X30908Y1593D01*
G01X30972Y1402D01*
G01X31035Y1273D01*
G01X31162Y1146D01*
G01X31292Y1082D01*
G01X31546Y1082D01*
G01X31673Y1146D01*
G01X31800Y1273D01*
G01X31863Y1402D01*
G01X32730Y2418D02*
G01X32730Y1082D01*
G01X32283Y2418D02*
G01X33174Y2418D01*
G01X33596Y2418D02*
G01X33596Y1082D01*
G01X33596Y2418D02*
G01X34167Y2418D01*
G01X34358Y2355D01*
G01X34421Y2291D01*
G01X34485Y2164D01*
G01X34485Y2037D01*
G01X34421Y1910D01*
G01X34358Y1847D01*
G01X34167Y1783D01*
G01X33596Y1783D01*
G01X34040Y1783D02*
G01X34485Y1082D01*
G01X35287Y2418D02*
G01X35160Y2355D01*
G01X35033Y2228D01*
G01X34970Y2101D01*
G01X34906Y1910D01*
G01X34906Y1593D01*
G01X34970Y1402D01*
G01X35033Y1273D01*
G01X35160Y1146D01*
G01X35287Y1082D01*
G01X35541Y1082D01*
G01X35668Y1146D01*
G01X35795Y1273D01*
G01X35859Y1402D01*
G01X35922Y1593D01*
G01X35922Y1910D01*
G01X35859Y2101D01*
G01X35795Y2228D01*
G01X35668Y2355D01*
G01X35541Y2418D01*
G01X35287Y2418D01*
G01X36344Y2418D02*
G01X36344Y1082D01*
G01X36344Y2418D02*
G01X37236Y1082D01*
G01X37236Y2418D02*
G01X37236Y1082D01*
G01X38036Y2418D02*
G01X37909Y2355D01*
G01X37782Y2228D01*
G01X37718Y2101D01*
G01X37655Y1910D01*
G01X37655Y1593D01*
G01X37718Y1402D01*
G01X37782Y1273D01*
G01X37909Y1146D01*
G01X38036Y1082D01*
G01X38290Y1082D01*
G01X38419Y1146D01*
G01X38546Y1273D01*
G01X38610Y1402D01*
G01X38673Y1593D01*
G01X38673Y1910D01*
G01X38610Y2101D01*
G01X38546Y2228D01*
G01X38419Y2355D01*
G01X38290Y2418D01*
G01X38036Y2418D01*
G01X39473Y2418D02*
G01X39346Y2355D01*
G01X39219Y2228D01*
G01X39156Y2101D01*
G01X39092Y1910D01*
G01X39092Y1593D01*
G01X39156Y1402D01*
G01X39219Y1273D01*
G01X39346Y1146D01*
G01X39473Y1082D01*
G01X39730Y1082D01*
G01X39857Y1146D01*
G01X39984Y1273D01*
G01X40047Y1402D01*
G01X40111Y1593D01*
G01X40111Y1910D01*
G01X40047Y2101D01*
G01X39984Y2228D01*
G01X39857Y2355D01*
G01X39730Y2418D01*
G01X39473Y2418D01*
G01X40530Y2418D02*
G01X40530Y1082D01*
G01X40530Y2418D02*
G01X41104Y2418D01*
G01X41294Y2355D01*
G01X41358Y2291D01*
G01X41421Y2164D01*
G01X41421Y2037D01*
G01X41358Y1910D01*
G01X41294Y1847D01*
G01X41104Y1783D01*
G01X40530Y1783D02*
G01X41104Y1783D01*
G01X41294Y1720D01*
G01X41358Y1656D01*
G01X41421Y1529D01*
G01X41421Y1339D01*
G01X41358Y1209D01*
G01X41294Y1146D01*
G01X41104Y1082D01*
G01X40530Y1082D01*
G01X42732Y2228D02*
G01X42605Y2355D01*
G01X42415Y2418D01*
G01X42161Y2418D01*
G01X41970Y2355D01*
G01X41841Y2228D01*
G01X41841Y2101D01*
G01X41907Y1974D01*
G01X41970Y1910D01*
G01X42097Y1847D01*
G01X42478Y1720D01*
G01X42605Y1656D01*
G01X42669Y1593D01*
G01X42732Y1466D01*
G01X42732Y1273D01*
G01X42605Y1146D01*
G01X42415Y1082D01*
G01X42161Y1082D01*
G01X41970Y1146D01*
G01X41841Y1273D01*
G54D12*
G01X6147Y33965D02*
G01X6147Y32245D01*
G01X6147Y33965D02*
G01X7211Y33965D01*
G01X6147Y33147D02*
G01X6802Y33147D01*
G01X6147Y32245D02*
G01X7211Y32245D01*
G01X7752Y33965D02*
G01X7752Y32245D01*
G01X7752Y32245D02*
G01X8732Y32245D01*
G01X9273Y33965D02*
G01X9273Y32245D01*
G01X9273Y33965D02*
G01X10338Y33965D01*
G01X9273Y33147D02*
G01X9929Y33147D01*
G01X9273Y32245D02*
G01X10338Y32245D01*
G01X12103Y33556D02*
G01X12022Y33718D01*
G01X11859Y33881D01*
G01X11694Y33965D01*
G01X11369Y33965D01*
G01X11204Y33881D01*
G01X11041Y33718D01*
G01X10957Y33556D01*
G01X10876Y33309D01*
G01X10876Y32900D01*
G01X10957Y32654D01*
G01X11041Y32492D01*
G01X11204Y32326D01*
G01X11369Y32245D01*
G01X11694Y32245D01*
G01X11859Y32326D01*
G01X12022Y32492D01*
G01X12103Y32654D01*
G01X13218Y33965D02*
G01X13218Y32245D01*
G01X12644Y33965D02*
G01X13789Y33965D01*
G01X14330Y33965D02*
G01X14330Y32245D01*
G01X14330Y33965D02*
G01X15067Y33965D01*
G01X15311Y33881D01*
G01X15392Y33800D01*
G01X15476Y33637D01*
G01X15476Y33472D01*
G01X15392Y33309D01*
G01X15311Y33228D01*
G01X15067Y33147D01*
G01X14330Y33147D01*
G01X14902Y33147D02*
G01X15476Y32245D01*
G01X16505Y33965D02*
G01X16342Y33881D01*
G01X16180Y33718D01*
G01X16096Y33556D01*
G01X16014Y33309D01*
G01X16014Y32900D01*
G01X16096Y32654D01*
G01X16180Y32492D01*
G01X16342Y32326D01*
G01X16505Y32245D01*
G01X16832Y32245D01*
G01X16997Y32326D01*
G01X17160Y32492D01*
G01X17241Y32654D01*
G01X17325Y32900D01*
G01X17325Y33309D01*
G01X17241Y33556D01*
G01X17160Y33718D01*
G01X16997Y33881D01*
G01X16832Y33965D01*
G01X16505Y33965D01*
G01X17864Y33965D02*
G01X17864Y32245D01*
G01X17864Y33965D02*
G01X19009Y32245D01*
G01X19009Y33965D02*
G01X19009Y32245D01*
G01X20040Y33965D02*
G01X19878Y33881D01*
G01X19713Y33718D01*
G01X19631Y33556D01*
G01X19550Y33309D01*
G01X19550Y32900D01*
G01X19631Y32654D01*
G01X19713Y32492D01*
G01X19878Y32326D01*
G01X20040Y32245D01*
G01X20368Y32245D01*
G01X20531Y32326D01*
G01X20696Y32492D01*
G01X20777Y32654D01*
G01X20858Y32900D01*
G01X20858Y33309D01*
G01X20777Y33556D01*
G01X20696Y33718D01*
G01X20531Y33881D01*
G01X20368Y33965D01*
G01X20040Y33965D01*
G01X21889Y33965D02*
G01X21727Y33881D01*
G01X21562Y33718D01*
G01X21480Y33556D01*
G01X21399Y33309D01*
G01X21399Y32900D01*
G01X21480Y32654D01*
G01X21562Y32492D01*
G01X21727Y32326D01*
G01X21889Y32245D01*
G01X22217Y32245D01*
G01X22380Y32326D01*
G01X22545Y32492D01*
G01X22626Y32654D01*
G01X22707Y32900D01*
G01X22707Y33309D01*
G01X22626Y33556D01*
G01X22545Y33718D01*
G01X22380Y33881D01*
G01X22217Y33965D01*
G01X21889Y33965D01*
G01X23248Y33965D02*
G01X23248Y32245D01*
G01X23248Y33965D02*
G01X23985Y33965D01*
G01X24229Y33881D01*
G01X24310Y33800D01*
G01X24394Y33637D01*
G01X24394Y33472D01*
G01X24310Y33309D01*
G01X24229Y33228D01*
G01X23985Y33147D01*
G01X23248Y33147D02*
G01X23985Y33147D01*
G01X24229Y33063D01*
G01X24310Y32982D01*
G01X24394Y32819D01*
G01X24394Y32573D01*
G01X24310Y32410D01*
G01X24229Y32326D01*
G01X23985Y32245D01*
G01X23248Y32245D01*
G01X26078Y33718D02*
G01X25915Y33881D01*
G01X25669Y33965D01*
G01X25341Y33965D01*
G01X25097Y33881D01*
G01X24932Y33718D01*
G01X24932Y33556D01*
G01X25016Y33391D01*
G01X25097Y33309D01*
G01X25260Y33228D01*
G01X25750Y33063D01*
G01X25915Y32982D01*
G01X25997Y32900D01*
G01X26078Y32738D01*
G01X26078Y32492D01*
G01X25915Y32326D01*
G01X25669Y32245D01*
G01X25341Y32245D01*
G01X25097Y32326D01*
G01X24932Y32492D01*
G01X6166Y31815D02*
G01X6166Y30098D01*
G01X6166Y31815D02*
G01X7231Y31815D01*
G01X6166Y30997D02*
G01X6822Y30997D01*
G01X6166Y30098D02*
G01X7231Y30098D01*
G01X8915Y31571D02*
G01X8752Y31733D01*
G01X8506Y31815D01*
G01X8178Y31815D01*
G01X7934Y31733D01*
G01X7769Y31571D01*
G01X7769Y31406D01*
G01X7853Y31243D01*
G01X7934Y31162D01*
G01X8097Y31078D01*
G01X8590Y30916D01*
G01X8752Y30834D01*
G01X8833Y30753D01*
G01X8915Y30588D01*
G01X8915Y30342D01*
G01X8752Y30179D01*
G01X8506Y30098D01*
G01X8178Y30098D01*
G01X7934Y30179D01*
G01X7769Y30342D01*
G01X10683Y31406D02*
G01X10601Y31571D01*
G01X10439Y31733D01*
G01X10274Y31815D01*
G01X9946Y31815D01*
G01X9783Y31733D01*
G01X9618Y31571D01*
G01X9537Y31406D01*
G01X9456Y31162D01*
G01X9456Y30753D01*
G01X9537Y30507D01*
G01X9618Y30342D01*
G01X9783Y30179D01*
G01X9946Y30098D01*
G01X10274Y30098D01*
G01X10439Y30179D01*
G01X10601Y30342D01*
G01X10683Y30507D01*
G01X12483Y31815D02*
G01X13136Y30098D01*
G01X13792Y31815D02*
G01X13136Y30098D01*
G01X14333Y31487D02*
G01X14495Y31571D01*
G01X14742Y31815D01*
G01X14742Y30098D01*
G01X15364Y30507D02*
G01X15280Y30425D01*
G01X15364Y30342D01*
G01X15445Y30425D01*
G01X15364Y30507D01*
G01X16476Y31815D02*
G01X16230Y31733D01*
G01X16067Y31487D01*
G01X15984Y31078D01*
G01X15984Y30834D01*
G01X16067Y30425D01*
G01X16230Y30179D01*
G01X16476Y30098D01*
G01X16639Y30098D01*
G01X16885Y30179D01*
G01X17048Y30425D01*
G01X17129Y30834D01*
G01X17129Y31078D01*
G01X17048Y31487D01*
G01X16885Y31733D01*
G01X16639Y31815D01*
G01X16476Y31815D01*
G01X55122Y32685D02*
G01X54466Y30968D01*
G01X55122Y32685D02*
G01X55777Y30968D01*
G01X54713Y31539D02*
G01X55531Y31539D01*
G01X54466Y18835D02*
G01X54466Y17115D01*
G01X54466Y18835D02*
G01X55203Y18835D01*
G01X55447Y18751D01*
G01X55531Y18670D01*
G01X55612Y18507D01*
G01X55612Y18342D01*
G01X55531Y18179D01*
G01X55447Y18098D01*
G01X55203Y18014D01*
G01X54466Y18014D02*
G01X55203Y18014D01*
G01X55447Y17933D01*
G01X55531Y17852D01*
G01X55612Y17689D01*
G01X55612Y17443D01*
G01X55531Y17280D01*
G01X55447Y17196D01*
G01X55203Y17115D01*
G01X54466Y17115D01*
G01X55673Y3346D02*
G01X55592Y3508D01*
G01X55427Y3674D01*
G01X55264Y3755D01*
G01X54937Y3755D01*
G01X54774Y3674D01*
G01X54609Y3508D01*
G01X54528Y3346D01*
G01X54446Y3099D01*
G01X54446Y2691D01*
G01X54528Y2444D01*
G01X54609Y2282D01*
G01X54774Y2119D01*
G01X54937Y2035D01*
G01X55264Y2035D01*
G01X55427Y2119D01*
G01X55592Y2282D01*
G01X55673Y2444D01*
G54D14*
G75*
G01X7341Y11100D02*
G03X7343Y11100I1J-150D01*
G01*
G54D13*
G75*
G01X37033Y25664D02*
G03X37033Y25662I-200J-1D01*
G01*
G75*
G01X37160Y10932D02*
G03X37160Y10930I-200J-1D01*
G01*
G75*
G01X28651Y25537D02*
G03X28651Y25535I-200J-1D01*
G01*
G75*
G01X28651Y10932D02*
G03X28651Y10930I-200J-1D01*
G01*
G75*
G01X45542Y25537D02*
G03X45542Y25535I-200J-1D01*
G01*
G75*
G01X45669Y10932D02*
G03X45669Y10930I-200J-1D01*
G01*
G36*
G01X55966Y34985D02*
G01X61656Y34985D01*
G01X61656Y-14D01*
G01X55966Y-14D01*
G01X55966Y34985D01*
G37*
G36*
G01X-23Y34965D02*
G01X2306Y34965D01*
G01X2306Y-34D01*
G01X-23Y-34D01*
G01X-23Y34965D01*
G37*
M00*
M02*
