G04 Layer: TopPasteMaskLayer*
G04 EasyEDA v5.9.41, Fri, 08 Feb 2019 23:39:09 GMT*
G04 113b46e1fbc2432c9b03807f1b5d6b43*
G04 Gerber Generator version 0.2*
G04 Scale: 100 percent, Rotated: No, Reflected: No *
G04 Dimensions in millimeters *
G04 leading zeros omitted , absolute positions ,3 integer and 3 decimal *
%FSLAX33Y33*%
%MOMM*%
G90*
G71D02*

%ADD17C,0.599999*%
%ADD21R,3.999992X7.000011*%
%ADD22R,4.999990X3.999992*%
%ADD23R,3.499866X2.499995*%
%ADD24R,1.099998X0.999998*%
%ADD25R,0.999998X1.099998*%
%ADD26R,1.600200X1.600200*%
%ADD27R,2.499995X3.499993*%
%ADD28R,1.199998X2.199996*%
%ADD29R,6.000013X6.499987*%

%LPD*%
G54D17*
G01X11938Y16010D02*
G01X11938Y17009D01*
G01X10668Y16010D02*
G01X10668Y17009D01*
G01X9398Y16010D02*
G01X9398Y17009D01*
G01X8128Y16010D02*
G01X8128Y17009D01*
G01X11938Y10066D02*
G01X11938Y11066D01*
G01X10668Y10066D02*
G01X10668Y11066D01*
G01X9398Y10066D02*
G01X9398Y11066D01*
G01X8128Y10066D02*
G01X8128Y11066D01*
G54D21*
G01X2413Y31191D03*
G01X2413Y3886D03*
G54D22*
G01X58547Y31572D03*
G01X58547Y17965D03*
G01X58547Y2870D03*
G54D23*
G01X10033Y13538D03*
G54D24*
G01X11049Y25538D03*
G01X11049Y26937D03*
G54D25*
G01X6284Y19507D03*
G01X7685Y19507D03*
G54D26*
G01X5080Y16078D03*
G01X5080Y13279D03*
G54D25*
G01X10479Y6426D03*
G01X9079Y6426D03*
G01X9332Y21285D03*
G01X10733Y21285D03*
G01X6284Y21285D03*
G01X7685Y21285D03*
G01X6284Y23063D03*
G01X7685Y23063D03*
G01X6284Y24841D03*
G01X7685Y24841D03*
G54D27*
G01X16365Y11252D03*
G01X23766Y11252D03*
G54D26*
G01X15875Y26111D03*
G01X18674Y26111D03*
G54D28*
G01X42494Y23002D03*
G01X37769Y22997D03*
G54D29*
G01X40132Y30749D03*
G54D28*
G01X42621Y8270D03*
G01X37896Y8265D03*
G54D29*
G01X40259Y16017D03*
G54D26*
G01X21336Y23825D03*
G01X24135Y23825D03*
G54D28*
G01X34112Y22875D03*
G01X29387Y22870D03*
G54D29*
G01X31750Y30622D03*
G54D28*
G01X34112Y8270D03*
G01X29387Y8265D03*
G54D29*
G01X31750Y16017D03*
G54D26*
G01X21336Y26105D03*
G01X24136Y26105D03*
G54D28*
G01X51003Y22875D03*
G01X46278Y22870D03*
G54D29*
G01X48641Y30622D03*
G54D28*
G01X51130Y8270D03*
G01X46405Y8265D03*
G54D29*
G01X48768Y16017D03*
G54D26*
G01X21346Y21495D03*
G01X24146Y21495D03*
G01X15875Y23825D03*
G01X18674Y23825D03*
G01X15875Y21539D03*
G01X18674Y21539D03*
G01X15875Y19126D03*
G01X18674Y19126D03*
G01X15875Y16840D03*
G01X18674Y16840D03*
M00*
M02*
