;Layer: Drill PTH
;EasyEDA v5.9.41, Fri, 08 Feb 2019 23:39:09 GMT
;113b46e1fbc2432c9b03807f1b5d6b43
;Gerber Generator version 0.2
M48
METRIC,LZ,000.000
;Holesize 1 = 0.305 METRIC
T01C0.305
;Holesize 2 = 0.320 METRIC
T02C0.320
;Holesize 3 = 0.501 METRIC
T03C0.501
%
G05
G90
T01
X+019227Y+028295
T02
X+030482Y+023401
X+036121Y+012649
X+018630Y+005090
X+024444Y+005090
X+023870Y+018516
X+020144Y+018516
X+010083Y+028933
X+022169Y+028950
X+004521Y+021910
X+012184Y+025052
X+044564Y+014569
X+014389Y+017553
X+009088Y+026823
X+005796Y+026855
X+013586Y+009335
X+039804Y+011107
X+036703Y+006903
X+050812Y+012161
X+005389Y+005521
X+011033Y+005140
X+013926Y+025158
X+014277Y+022346
X+016546Y+013915
X+006309Y+014513
X+012876Y+010215
X+044729Y+016248
X+055699Y+006273
X+052501Y+010820
X+031475Y+006093
X+012416Y+005285
X+050134Y+001010
X+027973Y+022395
X+024533Y+015427
X+030822Y+011087
X+003810Y+011125
X+005842Y+010744
X+007874Y+027508
X+023622Y+028778
X+017146Y+027255
X+006604Y+007569
X+012446Y+007545
X+019528Y+011773
X+019177Y+014554
X+021082Y+020142
X+016002Y+005029
X+020701Y+009474
X+022098Y+017602
X+044958Y+006426
X+043942Y+010109
X+054229Y+005664
X+049276Y+009982
X+054009Y+020303
X+053978Y+017623
X+037084Y+009982
X+048260Y+012141
X+001397Y+008204
X+001143Y+027127
T03
X+058166Y+022809
X+042545Y+020904
X+054168Y+031553
X+033782Y+020396
M30
